{"glyphs":{"0":{"ha":946,"x_min":46,"x_max":901,"o":"m 473 -14 q 243 48 338 -14 q 97 225 148 110 q 46 505 46 341 q 97 784 46 668 q 243 962 148 901 q 473 1024 339 1024 q 703 962 608 1024 q 850 784 799 900 q 901 505 901 668 q 850 225 901 341 q 704 48 799 110 q 473 -14 608 -14 m 473 186 q 569 223 530 186 q 629 331 608 260 q 649 505 649 402 q 629 679 649 608 q 569 788 608 751 q 473 826 530 826 q 342 742 388 826 q 297 505 297 659 q 317 331 297 402 q 377 223 337 260 q 473 186 416 186 z "},"1":{"ha":575,"x_min":42,"x_max":518,"o":"m 518 1010 l 518 0 l 274 0 l 274 783 l 269 783 l 42 644 l 42 855 l 292 1010 l 518 1010 z "},"2":{"ha":848,"x_min":40,"x_max":803,"o":"m 54 0 l 54 175 l 423 498 q 494 567 465 536 q 538 630 523 598 q 553 700 553 662 q 535 771 553 741 q 485 817 517 801 q 412 833 454 833 q 338 817 370 833 q 289 768 307 800 q 272 690 272 736 l 40 690 q 86 867 40 793 q 217 983 133 942 q 413 1024 301 1024 q 612 986 528 1024 q 744 879 697 947 q 791 718 791 810 q 767 604 791 661 q 684 479 744 548 q 514 315 625 410 l 393 203 l 393 197 l 803 197 l 803 0 l 54 0 z "},"3":{"ha":888,"x_min":42,"x_max":843,"o":"m 439 -14 q 234 26 323 -14 q 94 135 145 65 q 42 297 43 205 l 288 297 q 308 238 288 264 q 363 199 328 213 q 440 185 397 185 q 517 200 484 185 q 569 243 550 216 q 587 305 587 270 q 567 369 587 342 q 509 412 546 396 q 420 427 471 427 l 321 427 l 321 601 l 420 601 q 498 616 465 601 q 552 657 532 631 q 571 719 571 684 q 555 779 571 753 q 509 819 538 804 q 441 833 480 833 q 367 819 400 833 q 315 779 334 804 q 296 718 296 753 l 62 718 q 112 877 62 808 q 247 985 161 946 q 441 1024 332 1024 q 632 986 550 1024 q 761 883 715 948 q 806 734 806 817 q 751 595 806 650 q 608 526 695 539 l 608 519 q 784 443 724 505 q 843 287 843 380 q 791 131 843 199 q 649 25 740 63 q 439 -14 557 -14 z "},"4":{"ha":920,"x_min":42,"x_max":885,"o":"m 42 168 l 42 358 l 456 1010 l 625 1010 l 625 751 l 528 751 l 285 368 l 285 359 l 885 359 l 885 168 l 42 168 m 530 0 l 530 225 l 536 310 l 536 1010 l 764 1010 l 764 0 l 530 0 z "},"5":{"ha":879,"x_min":58,"x_max":833,"o":"m 442 -14 q 245 26 332 -14 q 110 136 159 66 q 58 297 60 206 l 296 297 q 340 208 297 241 q 442 174 382 174 q 523 194 488 174 q 578 251 558 214 q 598 335 598 287 q 578 421 598 385 q 522 478 557 458 q 441 498 487 498 q 357 479 396 498 q 298 425 319 459 l 82 466 l 125 1010 l 774 1010 l 774 813 l 326 813 l 304 575 l 309 575 q 391 644 335 617 q 518 671 447 671 q 680 629 609 671 q 792 513 751 587 q 833 342 833 439 q 785 158 833 238 q 648 32 736 77 q 442 -14 559 -14 z "},"6":{"ha":903,"x_min":46,"x_max":857,"o":"m 467 -14 q 308 13 384 -14 q 173 99 232 40 q 80 254 114 158 q 46 488 46 350 q 76 712 46 613 q 162 881 106 811 q 296 987 218 951 q 471 1024 374 1024 q 658 983 577 1024 q 788 872 739 941 q 846 718 837 803 l 606 718 q 559 791 596 766 q 471 816 522 816 q 333 736 378 816 q 287 521 287 656 l 293 521 q 353 599 314 566 q 442 649 391 631 q 549 666 493 666 q 709 624 640 666 q 818 510 779 583 q 857 343 857 437 q 808 157 857 237 q 670 32 758 77 q 467 -14 583 -14 m 465 174 q 545 195 510 174 q 601 253 581 216 q 621 335 621 290 q 601 417 621 381 q 546 475 581 454 q 465 496 511 496 q 386 474 421 496 q 330 417 350 453 q 309 335 309 380 q 330 253 309 290 q 385 196 350 217 q 465 174 420 174 z "},"7":{"ha":783,"x_min":28,"x_max":758,"o":"m 98 0 l 505 807 l 505 813 l 28 813 l 28 1010 l 758 1010 l 758 812 l 349 0 l 98 0 z "},"8":{"ha":907,"x_min":46,"x_max":861,"o":"m 453 -14 q 243 24 335 -14 q 99 126 151 62 q 46 273 46 191 q 76 388 46 336 q 157 475 106 440 q 273 521 209 511 l 273 527 q 136 606 189 543 q 83 751 83 668 q 131 891 83 830 q 262 988 178 953 q 453 1024 347 1024 q 644 988 560 1024 q 777 891 728 953 q 825 751 825 829 q 770 605 825 667 q 635 527 716 543 l 635 521 q 749 475 697 511 q 831 388 800 440 q 861 273 861 336 q 809 126 861 191 q 664 24 756 62 q 453 -14 572 -14 m 453 159 q 532 176 498 159 q 586 224 566 193 q 605 294 605 254 q 585 363 605 332 q 531 411 566 393 q 453 428 497 428 q 375 411 410 428 q 321 363 341 393 q 302 294 302 333 q 321 224 302 254 q 375 176 340 194 q 453 159 409 159 m 453 601 q 522 616 492 601 q 569 660 551 632 q 586 724 586 688 q 569 787 586 760 q 522 829 551 814 q 453 844 492 844 q 385 829 414 844 q 338 787 355 814 q 321 724 321 760 q 338 661 321 688 q 385 617 355 633 q 453 601 415 601 z "},"9":{"ha":903,"x_min":46,"x_max":857,"o":"m 437 1026 q 596 999 520 1026 q 730 912 671 972 q 823 757 789 853 q 857 523 857 661 q 827 298 857 397 q 742 129 798 199 q 607 21 686 58 q 433 -16 529 -16 q 245 26 327 -16 q 115 138 164 68 q 57 293 66 208 l 297 293 q 345 218 308 244 q 433 193 382 193 q 571 274 526 193 q 616 490 616 355 l 610 490 q 551 412 590 445 q 462 362 512 380 q 355 345 412 345 q 195 386 264 345 q 85 501 125 428 q 46 668 46 574 q 96 854 46 774 q 233 981 145 935 q 437 1026 321 1027 m 439 836 q 359 815 395 836 q 302 758 323 794 q 282 675 282 722 q 302 593 282 630 q 358 536 323 557 q 438 515 393 515 q 518 537 483 515 q 574 594 554 558 q 595 676 595 631 q 575 757 595 721 q 519 815 555 793 q 439 836 484 836 z "},"A":{"ha":1032,"x_min":12,"x_max":1019,"o":"m 275 0 l 12 0 l 354 1010 l 678 1010 l 1019 0 l 758 0 l 520 756 l 512 756 l 275 0 m 241 398 l 789 398 l 789 212 l 241 212 l 241 398 z "},"Á":{"ha":1032,"x_min":12,"x_max":1019,"o":"m 275 0 l 12 0 l 354 1010 l 678 1010 l 1019 0 l 758 0 l 520 756 l 512 756 l 275 0 m 241 398 l 789 398 l 789 212 l 241 212 l 241 398 m 432 1104 l 526 1318 l 739 1318 l 594 1104 l 432 1104 z "},"Ă":{"ha":1032,"x_min":12,"x_max":1019,"o":"m 275 0 l 12 0 l 354 1010 l 678 1010 l 1019 0 l 758 0 l 520 756 l 512 756 l 275 0 m 241 398 l 789 398 l 789 212 l 241 212 l 241 398 m 516 1094 q 330 1153 401 1094 q 258 1306 258 1211 l 416 1306 q 443 1241 416 1265 q 516 1217 469 1217 q 588 1241 562 1217 q 614 1306 614 1265 l 774 1306 q 703 1153 774 1211 q 516 1094 631 1094 z "},"Ắ":{"ha":1032,"x_min":12,"x_max":1019,"o":"m 275 0 l 12 0 l 354 1010 l 678 1010 l 1019 0 l 758 0 l 520 756 l 512 756 l 275 0 m 241 398 l 789 398 l 789 212 l 241 212 l 241 398 m 627 1254 l 773 1254 q 702 1132 772 1179 q 514 1084 632 1085 q 327 1132 396 1085 q 258 1254 257 1179 l 400 1254 q 426 1201 399 1225 q 514 1177 452 1177 q 602 1201 576 1177 q 627 1254 627 1225 m 450 1247 l 543 1371 l 699 1371 l 572 1247 l 450 1247 z "},"Ặ":{"ha":1032,"x_min":12,"x_max":1019,"o":"m 275 0 l 12 0 l 354 1010 l 678 1010 l 1019 0 l 758 0 l 520 756 l 512 756 l 275 0 m 241 398 l 789 398 l 789 212 l 241 212 l 241 398 m 516 1094 q 330 1153 401 1094 q 258 1306 258 1211 l 416 1306 q 443 1241 416 1265 q 516 1217 469 1217 q 588 1241 562 1217 q 614 1306 614 1265 l 774 1306 q 703 1153 774 1211 q 516 1094 631 1094 m 516 -296 q 429 -262 465 -296 q 392 -180 392 -228 q 429 -98 392 -132 q 516 -64 465 -64 q 604 -98 568 -64 q 640 -180 640 -132 q 604 -262 640 -228 q 516 -296 568 -296 z "},"Ằ":{"ha":1032,"x_min":12,"x_max":1019,"o":"m 275 0 l 12 0 l 354 1010 l 678 1010 l 1019 0 l 758 0 l 520 756 l 512 756 l 275 0 m 241 398 l 789 398 l 789 212 l 241 212 l 241 398 m 627 1255 l 773 1255 q 703 1135 772 1182 q 514 1088 633 1088 q 327 1135 396 1088 q 258 1255 257 1182 l 400 1255 q 426 1202 399 1227 q 514 1178 452 1178 q 601 1202 574 1178 q 627 1255 627 1227 m 463 1247 l 335 1371 l 492 1371 l 582 1247 l 463 1247 z "},"Ẳ":{"ha":1032,"x_min":12,"x_max":1019,"o":"m 275 0 l 12 0 l 354 1010 l 678 1010 l 1019 0 l 758 0 l 520 756 l 512 756 l 275 0 m 241 398 l 789 398 l 789 212 l 241 212 l 241 398 m 628 1240 l 774 1240 q 704 1119 774 1164 q 511 1074 633 1074 q 321 1119 391 1074 q 251 1240 252 1164 l 395 1240 q 423 1190 396 1210 q 511 1169 450 1169 q 602 1190 574 1169 q 628 1240 629 1211 m 576 1264 l 436 1264 l 419 1329 q 493 1339 470 1331 q 516 1360 516 1347 q 489 1389 516 1383 q 420 1396 462 1395 l 427 1474 q 617 1448 552 1475 q 680 1369 682 1420 q 649 1317 682 1334 q 576 1295 616 1300 l 576 1264 z "},"Ẵ":{"ha":1032,"x_min":12,"x_max":1019,"o":"m 275 0 l 12 0 l 354 1010 l 678 1010 l 1019 0 l 758 0 l 520 756 l 512 756 l 275 0 m 241 398 l 789 398 l 789 212 l 241 212 l 241 398 m 625 1241 l 770 1241 q 700 1119 770 1165 q 512 1073 629 1072 q 325 1119 395 1072 q 255 1241 254 1165 l 398 1241 q 424 1192 398 1212 q 512 1171 449 1171 q 598 1191 572 1171 q 625 1241 625 1211 m 623 1455 l 718 1427 q 685 1341 718 1379 q 604 1305 653 1304 q 539 1315 566 1305 q 489 1337 513 1326 q 435 1348 465 1348 q 403 1332 417 1348 q 390 1290 389 1316 l 298 1316 q 329 1402 297 1365 q 412 1439 361 1440 q 468 1429 441 1440 q 523 1408 495 1418 q 581 1397 550 1397 q 609 1413 596 1396 q 623 1455 623 1430 z "},"Ǎ":{"ha":1032,"x_min":12,"x_max":1019,"o":"m 275 0 l 12 0 l 354 1010 l 678 1010 l 1019 0 l 758 0 l 520 756 l 512 756 l 275 0 m 241 398 l 789 398 l 789 212 l 241 212 l 241 398 m 418 1329 l 516 1214 l 614 1329 l 816 1329 l 816 1321 l 603 1100 l 429 1100 l 216 1321 l 216 1329 l 418 1329 z "},"Â":{"ha":1032,"x_min":12,"x_max":1019,"o":"m 275 0 l 12 0 l 354 1010 l 678 1010 l 1019 0 l 758 0 l 520 756 l 512 756 l 275 0 m 241 398 l 789 398 l 789 212 l 241 212 l 241 398 m 613 1100 l 515 1215 l 418 1100 l 216 1100 l 216 1107 l 429 1329 l 602 1329 l 815 1107 l 815 1100 l 613 1100 z "},"Ấ":{"ha":1032,"x_min":12,"x_max":1019,"o":"m 275 0 l 12 0 l 354 1010 l 678 1010 l 1019 0 l 758 0 l 520 756 l 512 756 l 275 0 m 241 398 l 789 398 l 789 212 l 241 212 l 241 398 m 259 1089 l 456 1233 l 572 1233 l 772 1089 l 617 1089 l 515 1165 l 412 1089 l 259 1089 m 720 1165 l 842 1352 l 1010 1352 l 844 1165 l 720 1165 z "},"Ậ":{"ha":1032,"x_min":12,"x_max":1019,"o":"m 275 0 l 12 0 l 354 1010 l 678 1010 l 1019 0 l 758 0 l 520 756 l 512 756 l 275 0 m 241 398 l 789 398 l 789 212 l 241 212 l 241 398 m 613 1100 l 515 1215 l 418 1100 l 216 1100 l 216 1107 l 429 1329 l 602 1329 l 815 1107 l 815 1100 l 613 1100 m 516 -295 q 428 -261 465 -295 q 392 -180 392 -227 q 428 -98 392 -132 q 516 -64 465 -64 q 604 -98 567 -64 q 640 -180 640 -132 q 604 -261 640 -227 q 516 -295 567 -295 z "},"Ầ":{"ha":1032,"x_min":12,"x_max":1019,"o":"m 275 0 l 12 0 l 354 1010 l 678 1010 l 1019 0 l 758 0 l 520 756 l 512 756 l 275 0 m 241 398 l 789 398 l 789 212 l 241 212 l 241 398 m 572 1230 l 772 1086 l 616 1086 l 516 1162 l 412 1086 l 259 1086 l 457 1230 l 572 1230 m 188 1348 l 311 1162 l 189 1162 l 22 1348 l 188 1348 z "},"Ẩ":{"ha":1032,"x_min":12,"x_max":1019,"o":"m 275 0 l 12 0 l 354 1010 l 678 1010 l 1019 0 l 758 0 l 520 756 l 512 756 l 275 0 m 241 398 l 789 398 l 789 212 l 241 212 l 241 398 m 572 1230 l 769 1086 l 616 1086 l 516 1160 l 411 1086 l 258 1086 l 456 1230 l 572 1230 m 821 1169 l 704 1169 l 691 1238 q 753 1249 734 1240 q 772 1274 772 1259 q 749 1303 772 1296 q 691 1310 726 1310 l 696 1394 q 855 1365 800 1394 q 910 1282 910 1336 q 882 1228 910 1248 q 821 1203 854 1208 l 821 1169 z "},"Ẫ":{"ha":1032,"x_min":12,"x_max":1019,"o":"m 275 0 l 12 0 l 354 1010 l 678 1010 l 1019 0 l 758 0 l 520 756 l 512 756 l 275 0 m 241 398 l 789 398 l 789 212 l 241 212 l 241 398 m 576 1235 l 772 1089 l 619 1089 l 515 1165 l 415 1089 l 260 1089 l 457 1235 l 576 1235 m 619 1401 l 697 1373 q 675 1299 698 1333 q 611 1265 652 1266 q 568 1272 588 1265 q 530 1288 548 1279 q 495 1302 512 1296 q 459 1309 477 1309 q 437 1295 444 1309 q 430 1262 430 1281 l 353 1284 q 376 1355 353 1322 q 439 1389 399 1388 q 490 1378 464 1389 q 542 1358 516 1368 q 591 1347 568 1348 q 612 1365 605 1348 q 619 1401 618 1382 z "},"Ȁ":{"ha":1032,"x_min":12,"x_max":1019,"o":"m 275 0 l 12 0 l 354 1010 l 678 1010 l 1019 0 l 758 0 l 520 756 l 512 756 l 275 0 m 241 398 l 789 398 l 789 212 l 241 212 l 241 398 m 314 1105 l 163 1329 l 379 1329 l 479 1105 l 314 1105 m 571 1105 l 469 1329 l 675 1329 l 730 1105 l 571 1105 z "},"Ä":{"ha":1032,"x_min":12,"x_max":1019,"o":"m 275 0 l 12 0 l 354 1010 l 678 1010 l 1019 0 l 758 0 l 520 756 l 512 756 l 275 0 m 241 398 l 789 398 l 789 212 l 241 212 l 241 398 m 362 1106 q 283 1138 315 1106 q 250 1213 250 1169 q 283 1290 250 1259 q 362 1321 315 1320 q 440 1290 408 1320 q 473 1213 473 1259 q 440 1138 473 1169 q 362 1106 408 1106 m 670 1106 q 590 1138 623 1106 q 557 1213 557 1169 q 590 1290 557 1259 q 670 1321 623 1320 q 748 1290 715 1320 q 780 1213 780 1259 q 748 1138 780 1169 q 670 1106 715 1106 z "},"Ǟ":{"ha":1032,"x_min":12,"x_max":1019,"o":"m 275 0 l 12 0 l 354 1010 l 678 1010 l 1019 0 l 758 0 l 520 756 l 512 756 l 275 0 m 241 398 l 789 398 l 789 212 l 241 212 l 241 398 m 362 1106 q 283 1138 315 1106 q 250 1213 250 1169 q 283 1290 250 1259 q 362 1321 315 1320 q 440 1290 408 1320 q 473 1213 473 1259 q 440 1138 473 1169 q 362 1106 408 1106 m 670 1106 q 590 1138 623 1106 q 557 1213 557 1169 q 590 1290 557 1259 q 670 1321 623 1320 q 748 1290 715 1320 q 780 1213 780 1259 q 748 1138 780 1169 q 670 1106 715 1106 m 760 1515 l 760 1396 l 272 1396 l 272 1515 l 760 1515 z "},"Ạ":{"ha":1032,"x_min":12,"x_max":1019,"o":"m 275 0 l 12 0 l 354 1010 l 678 1010 l 1019 0 l 758 0 l 520 756 l 512 756 l 275 0 m 241 398 l 789 398 l 789 212 l 241 212 l 241 398 m 516 -296 q 429 -262 465 -296 q 392 -180 392 -228 q 429 -98 392 -132 q 516 -64 465 -64 q 604 -98 568 -64 q 640 -180 640 -132 q 604 -262 640 -228 q 516 -296 568 -296 z "},"Ǡ":{"ha":1032,"x_min":12,"x_max":1019,"o":"m 275 0 l 12 0 l 354 1010 l 678 1010 l 1019 0 l 758 0 l 520 756 l 512 756 l 275 0 m 241 398 l 789 398 l 789 212 l 241 212 l 241 398 m 516 1106 q 436 1138 469 1106 q 403 1213 404 1169 q 436 1289 404 1258 q 516 1321 469 1320 q 596 1289 563 1320 q 629 1213 629 1258 q 596 1138 629 1169 q 516 1106 563 1106 m 760 1515 l 760 1396 l 273 1396 l 273 1515 l 760 1515 z "},"À":{"ha":1032,"x_min":12,"x_max":1019,"o":"m 275 0 l 12 0 l 354 1010 l 678 1010 l 1019 0 l 758 0 l 520 756 l 512 756 l 275 0 m 241 398 l 789 398 l 789 212 l 241 212 l 241 398 m 437 1104 l 294 1318 l 505 1318 l 600 1104 l 437 1104 z "},"Ả":{"ha":1032,"x_min":12,"x_max":1019,"o":"m 275 0 l 12 0 l 354 1010 l 678 1010 l 1019 0 l 758 0 l 520 756 l 512 756 l 275 0 m 241 398 l 789 398 l 789 212 l 241 212 l 241 398 m 602 1120 l 426 1120 l 412 1203 q 487 1216 465 1204 q 509 1246 509 1228 q 481 1281 509 1273 q 412 1289 454 1289 l 418 1391 q 634 1356 560 1391 q 707 1256 708 1320 q 675 1191 708 1213 q 602 1161 642 1168 l 602 1120 z "},"Ȃ":{"ha":1032,"x_min":12,"x_max":1019,"o":"m 275 0 l 12 0 l 354 1010 l 678 1010 l 1019 0 l 758 0 l 520 756 l 512 756 l 275 0 m 241 398 l 789 398 l 789 212 l 241 212 l 241 398 m 258 1104 q 330 1258 258 1200 q 516 1317 401 1317 q 703 1258 631 1317 q 774 1104 774 1200 l 614 1104 q 588 1170 614 1145 q 516 1194 562 1194 q 443 1170 469 1194 q 416 1104 416 1145 l 258 1104 z "},"Ā":{"ha":1032,"x_min":12,"x_max":1019,"o":"m 275 0 l 12 0 l 354 1010 l 678 1010 l 1019 0 l 758 0 l 520 756 l 512 756 l 275 0 m 241 398 l 789 398 l 789 212 l 241 212 l 241 398 m 760 1263 l 760 1143 l 272 1143 l 272 1263 l 760 1263 z "},"Ą":{"ha":1032,"x_min":12,"x_max":1038,"o":"m 275 0 l 12 0 l 354 1010 l 678 1010 l 1019 0 l 758 0 l 520 756 l 512 756 l 275 0 m 241 398 l 789 398 l 789 212 l 241 212 l 241 398 m 923 -278 q 810 -244 856 -278 q 750 -148 765 -211 q 745 -64 739 -106 q 772 12 751 -22 q 830 62 793 46 l 1020 0 q 946 -39 973 -18 q 919 -93 918 -60 q 931 -131 918 -117 q 965 -144 944 -144 q 991 -140 980 -144 q 1012 -134 1002 -136 l 1038 -248 q 990 -269 1019 -259 q 923 -278 962 -278 z "},"Å":{"ha":1032,"x_min":12,"x_max":1019,"o":"m 275 0 l 12 0 l 354 1010 l 678 1010 l 1019 0 l 758 0 l 520 756 l 512 756 l 275 0 m 241 398 l 789 398 l 789 212 l 241 212 l 241 398 m 516 1065 q 406 1109 452 1065 q 361 1215 361 1153 q 406 1321 361 1278 q 516 1366 452 1365 q 626 1321 581 1365 q 670 1215 671 1278 q 626 1109 671 1153 q 516 1065 581 1065 m 516 1154 q 562 1172 543 1154 q 581 1215 581 1190 q 562 1259 581 1240 q 516 1276 543 1277 q 470 1258 490 1276 q 452 1215 451 1240 q 470 1171 451 1190 q 516 1154 489 1153 z "},"Ǻ":{"ha":1032,"x_min":12,"x_max":1019,"o":"m 275 0 l 12 0 l 354 1010 l 678 1010 l 1019 0 l 758 0 l 520 756 l 512 756 l 275 0 m 241 398 l 789 398 l 789 212 l 241 212 l 241 398 m 442 1408 l 541 1557 l 733 1557 l 589 1408 l 442 1408 m 515 1074 q 405 1116 450 1074 q 360 1217 359 1157 q 405 1318 359 1276 q 515 1360 450 1360 q 625 1318 579 1360 q 669 1217 670 1276 q 625 1116 670 1157 q 515 1074 579 1074 m 515 1158 q 560 1175 541 1158 q 580 1217 579 1192 q 561 1258 579 1241 q 515 1275 542 1276 q 469 1258 488 1275 q 451 1217 450 1241 q 469 1175 450 1192 q 515 1158 488 1158 z "},"Ḁ":{"ha":1032,"x_min":12,"x_max":1019,"o":"m 275 0 l 12 0 l 354 1010 l 678 1010 l 1019 0 l 758 0 l 520 756 l 512 756 l 275 0 m 241 398 l 789 398 l 789 212 l 241 212 l 241 398 m 379 -151 q 418 -68 379 -102 q 516 -34 457 -34 q 610 -68 572 -34 q 648 -151 648 -102 q 610 -235 648 -202 q 516 -268 572 -268 q 418 -234 457 -268 q 379 -151 379 -200 m 464 -151 q 478 -185 464 -172 q 516 -198 492 -198 q 548 -185 535 -198 q 562 -151 562 -172 q 548 -118 562 -131 q 516 -105 535 -105 q 478 -118 492 -105 q 464 -151 464 -131 z "},"Ã":{"ha":1032,"x_min":12,"x_max":1019,"o":"m 275 0 l 12 0 l 354 1010 l 678 1010 l 1019 0 l 758 0 l 520 756 l 512 756 l 275 0 m 241 398 l 789 398 l 789 212 l 241 212 l 241 398 m 614 1108 q 552 1119 578 1108 q 506 1146 526 1131 q 469 1173 486 1161 q 435 1184 452 1184 q 400 1165 412 1184 q 387 1113 388 1146 l 262 1113 q 308 1260 264 1211 q 418 1310 352 1310 q 480 1298 454 1310 q 527 1272 507 1287 q 563 1246 547 1257 q 597 1235 580 1235 q 635 1253 624 1235 q 648 1305 646 1272 l 770 1305 q 724 1159 768 1210 q 614 1108 680 1108 z "},"Æ":{"ha":1410,"x_min":12,"x_max":1354,"o":"m 12 0 l 426 1010 l 1354 1010 l 1354 812 l 892 812 l 892 605 l 1317 605 l 1317 406 l 892 406 l 892 199 l 1353 199 l 1353 0 l 649 0 l 649 766 l 579 766 l 281 0 l 12 0 m 253 212 l 253 398 l 790 398 l 790 212 l 253 212 z "},"Ǽ":{"ha":1410,"x_min":12,"x_max":1354,"o":"m 12 0 l 426 1010 l 1354 1010 l 1354 812 l 892 812 l 892 605 l 1317 605 l 1317 406 l 892 406 l 892 199 l 1353 199 l 1353 0 l 649 0 l 649 766 l 579 766 l 281 0 l 12 0 m 253 212 l 253 398 l 790 398 l 790 212 l 253 212 m 810 1104 l 903 1318 l 1116 1318 l 972 1104 l 810 1104 z "},"Ǣ":{"ha":1410,"x_min":12,"x_max":1354,"o":"m 12 0 l 426 1010 l 1354 1010 l 1354 812 l 892 812 l 892 605 l 1317 605 l 1317 406 l 892 406 l 892 199 l 1353 199 l 1353 0 l 649 0 l 649 766 l 579 766 l 281 0 l 12 0 m 253 212 l 253 398 l 790 398 l 790 212 l 253 212 m 1137 1263 l 1137 1143 l 650 1143 l 650 1263 l 1137 1263 z "},"B":{"ha":884,"x_min":57,"x_max":861,"o":"m 57 0 l 57 1010 l 478 1010 q 668 978 591 1010 q 783 888 745 946 q 822 755 822 831 q 798 652 822 697 q 731 577 774 607 q 633 536 689 547 l 633 525 q 746 493 694 523 q 830 409 798 463 q 861 283 861 355 q 820 137 861 201 q 701 37 779 73 q 511 0 623 0 l 57 0 m 300 197 l 452 197 q 569 227 531 197 q 607 311 607 258 q 589 378 607 350 q 537 422 570 407 q 457 438 503 438 l 300 438 l 300 197 m 300 595 l 436 595 q 507 608 476 595 q 555 647 538 622 q 573 707 573 671 q 537 787 573 758 q 440 817 501 817 l 300 817 l 300 595 z "},"Ḃ":{"ha":884,"x_min":57,"x_max":861,"o":"m 57 0 l 57 1010 l 478 1010 q 668 978 591 1010 q 783 888 745 946 q 822 755 822 831 q 798 652 822 697 q 731 577 774 607 q 633 536 689 547 l 633 525 q 746 493 694 523 q 830 409 798 463 q 861 283 861 355 q 820 137 861 201 q 701 37 779 73 q 511 0 623 0 l 57 0 m 300 197 l 452 197 q 569 227 531 197 q 607 311 607 258 q 589 378 607 350 q 537 422 570 407 q 457 438 503 438 l 300 438 l 300 197 m 300 595 l 436 595 q 507 608 476 595 q 555 647 538 622 q 573 707 573 671 q 537 787 573 758 q 440 817 501 817 l 300 817 l 300 595 m 428 1097 q 340 1131 377 1097 q 304 1213 304 1165 q 340 1295 304 1261 q 428 1329 377 1329 q 516 1295 479 1329 q 552 1213 552 1261 q 516 1131 552 1165 q 428 1097 479 1097 z "},"Ḅ":{"ha":884,"x_min":57,"x_max":861,"o":"m 57 0 l 57 1010 l 478 1010 q 668 978 591 1010 q 783 888 745 946 q 822 755 822 831 q 798 652 822 697 q 731 577 774 607 q 633 536 689 547 l 633 525 q 746 493 694 523 q 830 409 798 463 q 861 283 861 355 q 820 137 861 201 q 701 37 779 73 q 511 0 623 0 l 57 0 m 300 197 l 452 197 q 569 227 531 197 q 607 311 607 258 q 589 378 607 350 q 537 422 570 407 q 457 438 503 438 l 300 438 l 300 197 m 300 595 l 436 595 q 507 608 476 595 q 555 647 538 622 q 573 707 573 671 q 537 787 573 758 q 440 817 501 817 l 300 817 l 300 595 m 428 -296 q 340 -262 377 -296 q 304 -180 304 -228 q 340 -98 304 -132 q 428 -64 377 -64 q 516 -98 479 -64 q 552 -180 552 -132 q 516 -262 552 -228 q 428 -296 479 -296 z "},"Ɓ":{"ha":1194,"x_min":24,"x_max":1172,"o":"m 505 813 l 342 813 q 279 794 301 814 q 248 746 256 775 q 239 686 239 717 l 239 621 l 24 621 l 24 730 q 110 936 24 861 q 342 1010 195 1010 l 505 1010 l 505 813 m 368 0 l 368 1010 l 789 1010 q 979 978 902 1010 q 1094 888 1055 946 q 1133 755 1133 831 q 1108 652 1133 697 q 1042 577 1084 607 q 943 536 1000 547 l 943 525 q 1057 493 1005 523 q 1140 409 1109 463 q 1172 283 1172 355 q 1131 137 1172 201 q 1011 37 1090 73 q 821 0 933 0 l 368 0 m 611 197 l 762 197 q 880 227 842 197 q 918 311 918 258 q 899 378 918 350 q 847 422 881 407 q 767 438 813 438 l 611 438 l 611 197 m 611 595 l 747 595 q 817 608 786 595 q 866 647 848 622 q 884 707 884 671 q 847 787 884 758 q 751 817 811 817 l 611 817 l 611 595 z "},"Ḇ":{"ha":884,"x_min":57,"x_max":861,"o":"m 57 0 l 57 1010 l 478 1010 q 668 978 591 1010 q 783 888 745 946 q 822 755 822 831 q 798 652 822 697 q 731 577 774 607 q 633 536 689 547 l 633 525 q 746 493 694 523 q 830 409 798 463 q 861 283 861 355 q 820 137 861 201 q 701 37 779 73 q 511 0 623 0 l 57 0 m 300 197 l 452 197 q 569 227 531 197 q 607 311 607 258 q 589 378 607 350 q 537 422 570 407 q 457 438 503 438 l 300 438 l 300 197 m 300 595 l 436 595 q 507 608 476 595 q 555 647 538 622 q 573 707 573 671 q 537 787 573 758 q 440 817 501 817 l 300 817 l 300 595 m 672 -127 l 672 -246 l 184 -246 l 184 -127 l 672 -127 z "},"Ƃ":{"ha":869,"x_min":57,"x_max":841,"o":"m 57 0 l 57 1010 l 747 1010 l 747 812 l 300 812 l 300 654 l 434 654 q 649 614 558 654 q 791 502 741 574 q 841 331 841 429 q 791 159 841 233 q 649 42 741 84 q 434 0 558 0 l 57 0 m 300 194 l 434 194 q 524 213 488 194 q 580 263 561 231 q 599 334 599 294 q 556 427 599 389 q 434 465 514 465 l 300 465 l 300 194 z "},"C":{"ha":1017,"x_min":46,"x_max":974,"o":"m 525 -14 q 280 47 388 -14 q 109 223 172 107 q 46 505 46 338 q 110 788 46 671 q 282 964 173 904 q 525 1024 391 1024 q 694 999 616 1024 q 832 924 772 973 q 928 805 891 876 q 974 644 964 734 l 727 644 q 707 712 722 682 q 666 765 692 743 q 607 799 641 787 q 531 810 573 810 q 405 774 458 810 q 323 670 352 738 q 295 505 295 602 q 324 337 295 405 q 405 234 353 269 q 530 200 458 200 q 604 211 570 200 q 662 241 637 221 q 704 290 688 261 q 727 355 721 319 l 974 355 q 935 222 967 288 q 847 103 903 157 q 709 18 790 50 q 525 -14 629 -14 z "},"Ć":{"ha":1017,"x_min":46,"x_max":974,"o":"m 525 -14 q 280 47 388 -14 q 109 223 172 107 q 46 505 46 338 q 110 788 46 671 q 282 964 173 904 q 525 1024 391 1024 q 694 999 616 1024 q 832 924 772 973 q 928 805 891 876 q 974 644 964 734 l 727 644 q 707 712 722 682 q 666 765 692 743 q 607 799 641 787 q 531 810 573 810 q 405 774 458 810 q 323 670 352 738 q 295 505 295 602 q 324 337 295 405 q 405 234 353 269 q 530 200 458 200 q 604 211 570 200 q 662 241 637 221 q 704 290 688 261 q 727 355 721 319 l 974 355 q 935 222 967 288 q 847 103 903 157 q 709 18 790 50 q 525 -14 629 -14 m 441 1104 l 534 1318 l 747 1318 l 603 1104 l 441 1104 z "},"Č":{"ha":1017,"x_min":46,"x_max":974,"o":"m 525 -14 q 280 47 388 -14 q 109 223 172 107 q 46 505 46 338 q 110 788 46 671 q 282 964 173 904 q 525 1024 391 1024 q 694 999 616 1024 q 832 924 772 973 q 928 805 891 876 q 974 644 964 734 l 727 644 q 707 712 722 682 q 666 765 692 743 q 607 799 641 787 q 531 810 573 810 q 405 774 458 810 q 323 670 352 738 q 295 505 295 602 q 324 337 295 405 q 405 234 353 269 q 530 200 458 200 q 604 211 570 200 q 662 241 637 221 q 704 290 688 261 q 727 355 721 319 l 974 355 q 935 222 967 288 q 847 103 903 157 q 709 18 790 50 q 525 -14 629 -14 m 427 1329 l 524 1214 l 622 1329 l 824 1329 l 824 1321 l 611 1100 l 437 1100 l 224 1321 l 224 1329 l 427 1329 z "},"Ç":{"ha":1017,"x_min":46,"x_max":974,"o":"m 525 -14 q 280 47 388 -14 q 109 223 172 107 q 46 505 46 338 q 110 788 46 671 q 282 964 173 904 q 525 1024 391 1024 q 694 999 616 1024 q 832 924 772 973 q 928 805 891 876 q 974 644 964 734 l 727 644 q 707 712 722 682 q 666 765 692 743 q 607 799 641 787 q 531 810 573 810 q 405 774 458 810 q 323 670 352 738 q 295 505 295 602 q 324 337 295 405 q 405 234 353 269 q 530 200 458 200 q 604 211 570 200 q 662 241 637 221 q 704 290 688 261 q 727 355 721 319 l 974 355 q 935 222 967 288 q 847 103 903 157 q 709 18 790 50 q 525 -14 629 -14 m 472 5 l 569 5 l 561 -39 q 648 -79 616 -47 q 682 -160 681 -111 q 608 -282 682 -237 q 402 -326 534 -326 l 401 -227 q 506 -212 469 -227 q 545 -165 543 -196 q 523 -119 546 -136 q 450 -96 499 -102 l 472 5 z "},"Ḉ":{"ha":1017,"x_min":46,"x_max":974,"o":"m 525 -14 q 280 47 388 -14 q 109 223 172 107 q 46 505 46 338 q 110 788 46 671 q 282 964 173 904 q 525 1024 391 1024 q 694 999 616 1024 q 832 924 772 973 q 928 805 891 876 q 974 644 964 734 l 727 644 q 707 712 722 682 q 666 765 692 743 q 607 799 641 787 q 531 810 573 810 q 405 774 458 810 q 323 670 352 738 q 295 505 295 602 q 324 337 295 405 q 405 234 353 269 q 530 200 458 200 q 604 211 570 200 q 662 241 637 221 q 704 290 688 261 q 727 355 721 319 l 974 355 q 935 222 967 288 q 847 103 903 157 q 709 18 790 50 q 525 -14 629 -14 m 472 5 l 569 5 l 561 -39 q 648 -79 616 -47 q 682 -160 681 -111 q 608 -282 682 -237 q 402 -326 534 -326 l 401 -227 q 506 -212 469 -227 q 545 -165 543 -196 q 523 -119 546 -136 q 450 -96 499 -102 l 472 5 m 441 1104 l 534 1318 l 747 1318 l 603 1104 l 441 1104 z "},"Ĉ":{"ha":1017,"x_min":46,"x_max":974,"o":"m 525 -14 q 280 47 388 -14 q 109 223 172 107 q 46 505 46 338 q 110 788 46 671 q 282 964 173 904 q 525 1024 391 1024 q 694 999 616 1024 q 832 924 772 973 q 928 805 891 876 q 974 644 964 734 l 727 644 q 707 712 722 682 q 666 765 692 743 q 607 799 641 787 q 531 810 573 810 q 405 774 458 810 q 323 670 352 738 q 295 505 295 602 q 324 337 295 405 q 405 234 353 269 q 530 200 458 200 q 604 211 570 200 q 662 241 637 221 q 704 290 688 261 q 727 355 721 319 l 974 355 q 935 222 967 288 q 847 103 903 157 q 709 18 790 50 q 525 -14 629 -14 m 622 1100 l 524 1215 l 427 1100 l 224 1100 l 224 1107 l 438 1329 l 611 1329 l 824 1107 l 824 1100 l 622 1100 z "},"Ċ":{"ha":1017,"x_min":46,"x_max":974,"o":"m 525 -14 q 280 47 388 -14 q 109 223 172 107 q 46 505 46 338 q 110 788 46 671 q 282 964 173 904 q 525 1024 391 1024 q 694 999 616 1024 q 832 924 772 973 q 928 805 891 876 q 974 644 964 734 l 727 644 q 707 712 722 682 q 666 765 692 743 q 607 799 641 787 q 531 810 573 810 q 405 774 458 810 q 323 670 352 738 q 295 505 295 602 q 324 337 295 405 q 405 234 353 269 q 530 200 458 200 q 604 211 570 200 q 662 241 637 221 q 704 290 688 261 q 727 355 721 319 l 974 355 q 935 222 967 288 q 847 103 903 157 q 709 18 790 50 q 525 -14 629 -14 m 524 1097 q 437 1131 473 1097 q 400 1213 400 1165 q 437 1295 400 1261 q 524 1329 473 1329 q 612 1295 576 1329 q 648 1213 648 1261 q 612 1131 648 1165 q 524 1097 576 1097 z "},"Ƈ":{"ha":1155,"x_min":46,"x_max":1187,"o":"m 974 644 l 739 644 l 739 751 q 786 913 739 847 q 910 1013 833 979 q 1076 1046 987 1046 q 1130 1046 1104 1046 q 1187 1040 1156 1045 l 1187 847 q 1153 848 1173 847 q 1120 849 1133 849 q 1054 837 1088 849 q 997 795 1020 824 q 974 715 975 766 l 974 644 m 525 -14 q 280 47 388 -14 q 109 223 172 107 q 46 505 46 338 q 110 788 46 671 q 282 964 173 904 q 525 1024 391 1024 q 694 999 616 1024 q 832 924 772 973 q 928 805 891 876 q 974 644 964 734 l 727 644 q 707 712 722 682 q 666 765 692 743 q 607 799 641 787 q 531 810 573 810 q 405 774 458 810 q 323 670 352 738 q 295 505 295 602 q 324 337 295 405 q 405 234 353 269 q 530 200 458 200 q 604 211 570 200 q 662 241 637 221 q 704 290 688 261 q 727 355 721 319 l 974 355 q 935 222 967 288 q 847 103 903 157 q 709 18 790 50 q 525 -14 629 -14 z "},"D":{"ha":975,"x_min":57,"x_max":928,"o":"m 431 0 l 161 0 l 161 208 l 420 208 q 565 237 506 208 q 654 331 624 266 q 685 505 685 396 q 654 680 685 614 q 564 773 624 745 q 416 802 504 802 l 157 802 l 157 1010 l 430 1010 q 696 950 585 1010 q 868 776 808 889 q 928 505 928 663 q 868 234 928 348 q 696 60 808 121 q 431 0 585 0 m 300 1010 l 300 0 l 57 0 l 57 1010 l 300 1010 z "},"Ǳ":{"ha":1881,"x_min":57,"x_max":1827,"o":"m 431 0 l 161 0 l 161 208 l 420 208 q 565 237 506 208 q 654 331 624 266 q 685 505 685 396 q 654 680 685 614 q 564 773 624 745 q 416 802 504 802 l 157 802 l 157 1010 l 430 1010 q 696 950 585 1010 q 868 776 808 889 q 928 505 928 663 q 868 234 928 348 q 696 60 808 121 q 431 0 585 0 m 300 1010 l 300 0 l 57 0 l 57 1010 l 300 1010 m 1028 0 l 1028 139 l 1519 812 l 1028 812 l 1028 1010 l 1827 1010 l 1827 871 l 1336 199 l 1827 199 l 1827 0 l 1028 0 z "},"Ð":{"ha":975,"x_min":-79,"x_max":928,"o":"m 431 0 l 161 0 l 161 208 l 420 208 q 565 237 506 208 q 654 331 624 266 q 685 505 685 396 q 654 680 685 614 q 564 773 624 745 q 416 802 504 802 l 157 802 l 157 1010 l 430 1010 q 696 950 585 1010 q 868 776 808 889 q 928 505 928 663 q 868 234 928 348 q 696 60 808 121 q 431 0 585 0 m 300 1010 l 300 0 l 57 0 l 57 1010 l 300 1010 m -78 469 l -78 604 l 433 604 l 433 469 l -78 469 z "},"Ɖ":{"ha":975,"x_min":-79,"x_max":928,"o":"m 431 0 l 161 0 l 161 208 l 420 208 q 565 237 506 208 q 654 331 624 266 q 685 505 685 396 q 654 680 685 614 q 564 773 624 745 q 416 802 504 802 l 157 802 l 157 1010 l 430 1010 q 696 950 585 1010 q 868 776 808 889 q 928 505 928 663 q 868 234 928 348 q 696 60 808 121 q 431 0 585 0 m 300 1010 l 300 0 l 57 0 l 57 1010 l 300 1010 m -78 469 l -78 604 l 433 604 l 433 469 l -78 469 z "},"Ď":{"ha":975,"x_min":57,"x_max":928,"o":"m 431 0 l 161 0 l 161 208 l 420 208 q 565 237 506 208 q 654 331 624 266 q 685 505 685 396 q 654 680 685 614 q 564 773 624 745 q 416 802 504 802 l 157 802 l 157 1010 l 430 1010 q 696 950 585 1010 q 868 776 808 889 q 928 505 928 663 q 868 234 928 348 q 696 60 808 121 q 431 0 585 0 m 300 1010 l 300 0 l 57 0 l 57 1010 l 300 1010 m 288 1329 l 386 1214 l 484 1329 l 686 1329 l 686 1321 l 473 1100 l 299 1100 l 86 1321 l 86 1329 l 288 1329 z "},"Ḑ":{"ha":975,"x_min":57,"x_max":928,"o":"m 431 0 l 161 0 l 161 208 l 420 208 q 565 237 506 208 q 654 331 624 266 q 685 505 685 396 q 654 680 685 614 q 564 773 624 745 q 416 802 504 802 l 157 802 l 157 1010 l 430 1010 q 696 950 585 1010 q 868 776 808 889 q 928 505 928 663 q 868 234 928 348 q 696 60 808 121 q 431 0 585 0 m 300 1010 l 300 0 l 57 0 l 57 1010 l 300 1010 m 260 -320 l 323 -80 l 543 -80 l 426 -320 l 260 -320 z "},"Ḓ":{"ha":975,"x_min":57,"x_max":928,"o":"m 431 0 l 161 0 l 161 208 l 420 208 q 565 237 506 208 q 654 331 624 266 q 685 505 685 396 q 654 680 685 614 q 564 773 624 745 q 416 802 504 802 l 157 802 l 157 1010 l 430 1010 q 696 950 585 1010 q 868 776 808 889 q 928 505 928 663 q 868 234 928 348 q 696 60 808 121 q 431 0 585 0 m 300 1010 l 300 0 l 57 0 l 57 1010 l 300 1010 m 528 -291 l 430 -176 l 333 -291 l 130 -291 l 130 -283 l 344 -62 l 517 -62 l 730 -283 l 730 -291 l 528 -291 z "},"Đ":{"ha":975,"x_min":-79,"x_max":928,"o":"m 431 0 l 161 0 l 161 208 l 420 208 q 565 237 506 208 q 654 331 624 266 q 685 505 685 396 q 654 680 685 614 q 564 773 624 745 q 416 802 504 802 l 157 802 l 157 1010 l 430 1010 q 696 950 585 1010 q 868 776 808 889 q 928 505 928 663 q 868 234 928 348 q 696 60 808 121 q 431 0 585 0 m 300 1010 l 300 0 l 57 0 l 57 1010 l 300 1010 m -78 469 l -78 604 l 433 604 l 433 469 l -78 469 z "},"Ḋ":{"ha":975,"x_min":57,"x_max":928,"o":"m 431 0 l 161 0 l 161 208 l 420 208 q 565 237 506 208 q 654 331 624 266 q 685 505 685 396 q 654 680 685 614 q 564 773 624 745 q 416 802 504 802 l 157 802 l 157 1010 l 430 1010 q 696 950 585 1010 q 868 776 808 889 q 928 505 928 663 q 868 234 928 348 q 696 60 808 121 q 431 0 585 0 m 300 1010 l 300 0 l 57 0 l 57 1010 l 300 1010 m 386 1097 q 298 1131 335 1097 q 262 1213 262 1165 q 298 1295 262 1261 q 386 1329 335 1329 q 474 1295 437 1329 q 510 1213 510 1261 q 474 1131 510 1165 q 386 1097 437 1097 z "},"Ḍ":{"ha":975,"x_min":57,"x_max":928,"o":"m 431 0 l 161 0 l 161 208 l 420 208 q 565 237 506 208 q 654 331 624 266 q 685 505 685 396 q 654 680 685 614 q 564 773 624 745 q 416 802 504 802 l 157 802 l 157 1010 l 430 1010 q 696 950 585 1010 q 868 776 808 889 q 928 505 928 663 q 868 234 928 348 q 696 60 808 121 q 431 0 585 0 m 300 1010 l 300 0 l 57 0 l 57 1010 l 300 1010 m 431 -296 q 343 -262 380 -296 q 307 -180 307 -228 q 343 -98 307 -132 q 431 -64 380 -64 q 518 -98 482 -64 q 555 -180 555 -132 q 518 -262 555 -228 q 431 -296 482 -296 z "},"Ɗ":{"ha":1289,"x_min":24,"x_max":1242,"o":"m 24 621 l 24 730 q 110 936 24 861 q 342 1010 195 1010 l 505 1010 l 505 802 l 342 802 q 279 786 301 802 q 248 743 256 769 q 239 686 239 717 l 239 621 l 24 621 m 745 0 l 475 0 l 475 208 l 734 208 q 879 237 820 208 q 968 331 938 266 q 998 505 998 396 q 968 680 998 614 q 878 773 937 745 q 730 802 818 802 l 471 802 l 471 1010 l 744 1010 q 1010 950 899 1010 q 1182 776 1122 889 q 1242 505 1242 663 q 1182 234 1242 348 q 1010 60 1122 121 q 745 0 899 0 m 614 1010 l 614 0 l 371 0 l 371 1010 l 614 1010 z "},"Ḏ":{"ha":975,"x_min":57,"x_max":928,"o":"m 431 0 l 161 0 l 161 208 l 420 208 q 565 237 506 208 q 654 331 624 266 q 685 505 685 396 q 654 680 685 614 q 564 773 624 745 q 416 802 504 802 l 157 802 l 157 1010 l 430 1010 q 696 950 585 1010 q 868 776 808 889 q 928 505 928 663 q 868 234 928 348 q 696 60 808 121 q 431 0 585 0 m 300 1010 l 300 0 l 57 0 l 57 1010 l 300 1010 m 675 -127 l 675 -246 l 187 -246 l 187 -127 l 675 -127 z "},"Ƌ":{"ha":911,"x_min":65,"x_max":848,"o":"m 848 0 l 471 0 q 256 42 348 0 q 115 159 165 85 q 65 331 65 234 q 115 501 65 428 q 256 614 165 574 q 471 655 348 655 l 608 655 l 608 817 l 158 817 l 158 1013 l 848 1013 l 848 0 m 608 192 l 608 464 l 471 464 q 347 427 390 465 q 304 334 304 389 q 323 262 304 294 q 380 211 342 230 q 471 192 417 192 l 608 192 z "},"ǲ":{"ha":1744,"x_min":57,"x_max":1684,"o":"m 431 0 l 161 0 l 161 208 l 420 208 q 565 237 506 208 q 654 331 624 266 q 685 505 685 396 q 654 680 685 614 q 564 773 624 745 q 416 802 504 802 l 157 802 l 157 1010 l 430 1010 q 696 950 585 1010 q 868 776 808 889 q 928 505 928 663 q 868 234 928 348 q 696 60 808 121 q 431 0 585 0 m 300 1010 l 300 0 l 57 0 l 57 1010 l 300 1010 m 1034 0 l 1034 138 l 1385 566 l 1385 570 l 1045 570 l 1045 758 l 1672 758 l 1672 606 l 1348 193 l 1348 188 l 1684 188 l 1684 0 l 1034 0 z "},"ǅ":{"ha":1744,"x_min":57,"x_max":1684,"o":"m 431 0 l 161 0 l 161 208 l 420 208 q 565 237 506 208 q 654 331 624 266 q 685 505 685 396 q 654 680 685 614 q 564 773 624 745 q 416 802 504 802 l 157 802 l 157 1010 l 430 1010 q 696 950 585 1010 q 868 776 808 889 q 928 505 928 663 q 868 234 928 348 q 696 60 808 121 q 431 0 585 0 m 300 1010 l 300 0 l 57 0 l 57 1010 l 300 1010 m 1034 0 l 1034 138 l 1385 566 l 1385 570 l 1045 570 l 1045 758 l 1672 758 l 1672 606 l 1348 193 l 1348 188 l 1684 188 l 1684 0 l 1034 0 m 1261 1076 l 1358 962 l 1456 1076 l 1658 1076 l 1658 1069 l 1445 848 l 1272 848 l 1059 1069 l 1059 1076 l 1261 1076 z "},"E":{"ha":818,"x_min":57,"x_max":762,"o":"m 57 0 l 57 1010 l 762 1010 l 762 812 l 300 812 l 300 608 l 725 608 l 725 414 l 300 414 l 300 199 l 761 199 l 761 0 l 57 0 z "},"É":{"ha":818,"x_min":57,"x_max":762,"o":"m 57 0 l 57 1010 l 762 1010 l 762 812 l 300 812 l 300 608 l 725 608 l 725 414 l 300 414 l 300 199 l 761 199 l 761 0 l 57 0 m 328 1104 l 422 1318 l 635 1318 l 490 1104 l 328 1104 z "},"Ĕ":{"ha":818,"x_min":57,"x_max":762,"o":"m 57 0 l 57 1010 l 762 1010 l 762 812 l 300 812 l 300 608 l 725 608 l 725 414 l 300 414 l 300 199 l 761 199 l 761 0 l 57 0 m 412 1094 q 225 1153 297 1094 q 154 1306 154 1211 l 312 1306 q 338 1241 312 1265 q 412 1217 365 1217 q 484 1241 457 1217 q 510 1306 510 1265 l 669 1306 q 598 1153 669 1211 q 412 1094 527 1094 z "},"Ě":{"ha":818,"x_min":57,"x_max":762,"o":"m 57 0 l 57 1010 l 762 1010 l 762 812 l 300 812 l 300 608 l 725 608 l 725 414 l 300 414 l 300 199 l 761 199 l 761 0 l 57 0 m 314 1329 l 412 1214 l 509 1329 l 711 1329 l 711 1321 l 498 1100 l 325 1100 l 112 1321 l 112 1329 l 314 1329 z "},"Ḝ":{"ha":818,"x_min":57,"x_max":762,"o":"m 57 0 l 57 1010 l 762 1010 l 762 812 l 300 812 l 300 608 l 725 608 l 725 414 l 300 414 l 300 199 l 761 199 l 761 0 l 57 0 m 363 4 l 460 4 l 452 -41 q 539 -80 507 -49 q 572 -161 572 -112 q 499 -283 573 -239 q 293 -327 425 -328 l 292 -228 q 397 -213 360 -229 q 435 -167 434 -197 q 413 -121 437 -138 q 340 -98 390 -104 l 363 4 m 412 1094 q 225 1153 297 1094 q 154 1306 154 1211 l 312 1306 q 338 1241 312 1265 q 412 1217 365 1217 q 484 1241 457 1217 q 510 1306 510 1265 l 669 1306 q 598 1153 669 1211 q 412 1094 527 1094 z "},"Ê":{"ha":818,"x_min":57,"x_max":762,"o":"m 57 0 l 57 1010 l 762 1010 l 762 812 l 300 812 l 300 608 l 725 608 l 725 414 l 300 414 l 300 199 l 761 199 l 761 0 l 57 0 m 509 1100 l 412 1215 l 314 1100 l 112 1100 l 112 1107 l 325 1329 l 498 1329 l 711 1107 l 711 1100 l 509 1100 z "},"Ế":{"ha":818,"x_min":57,"x_max":906,"o":"m 57 0 l 57 1010 l 762 1010 l 762 812 l 300 812 l 300 608 l 725 608 l 725 414 l 300 414 l 300 199 l 761 199 l 761 0 l 57 0 m 155 1089 l 352 1233 l 467 1233 l 667 1089 l 513 1089 l 411 1165 l 308 1089 l 155 1089 m 615 1165 l 738 1352 l 906 1352 l 740 1165 l 615 1165 z "},"Ḙ":{"ha":818,"x_min":57,"x_max":762,"o":"m 57 0 l 57 1010 l 762 1010 l 762 812 l 300 812 l 300 608 l 725 608 l 725 414 l 300 414 l 300 199 l 761 199 l 761 0 l 57 0 m 507 -291 l 410 -176 l 312 -291 l 110 -291 l 110 -283 l 323 -62 l 496 -62 l 709 -283 l 709 -291 l 507 -291 z "},"Ệ":{"ha":818,"x_min":57,"x_max":762,"o":"m 57 0 l 57 1010 l 762 1010 l 762 812 l 300 812 l 300 608 l 725 608 l 725 414 l 300 414 l 300 199 l 761 199 l 761 0 l 57 0 m 509 1100 l 412 1215 l 314 1100 l 112 1100 l 112 1107 l 325 1329 l 498 1329 l 711 1107 l 711 1100 l 509 1100 m 410 -295 q 322 -261 359 -295 q 286 -180 286 -227 q 322 -98 286 -132 q 410 -64 359 -64 q 497 -98 461 -64 q 534 -179 534 -132 q 497 -261 534 -227 q 410 -295 461 -295 z "},"Ề":{"ha":818,"x_min":-83,"x_max":762,"o":"m 57 0 l 57 1010 l 762 1010 l 762 812 l 300 812 l 300 608 l 725 608 l 725 414 l 300 414 l 300 199 l 761 199 l 761 0 l 57 0 m 468 1230 l 668 1086 l 512 1086 l 412 1162 l 308 1086 l 155 1086 l 353 1230 l 468 1230 m 83 1348 l 206 1162 l 84 1162 l -83 1348 l 83 1348 z "},"Ể":{"ha":818,"x_min":57,"x_max":806,"o":"m 57 0 l 57 1010 l 762 1010 l 762 812 l 300 812 l 300 608 l 725 608 l 725 414 l 300 414 l 300 199 l 761 199 l 761 0 l 57 0 m 467 1230 l 665 1086 l 512 1086 l 412 1160 l 307 1086 l 154 1086 l 351 1230 l 467 1230 m 717 1169 l 600 1169 l 587 1238 q 649 1249 630 1240 q 668 1274 667 1259 q 644 1303 667 1296 q 587 1310 621 1310 l 591 1394 q 751 1365 696 1394 q 806 1282 806 1336 q 778 1228 806 1248 q 717 1203 750 1208 l 717 1169 z "},"Ễ":{"ha":818,"x_min":57,"x_max":762,"o":"m 57 0 l 57 1010 l 762 1010 l 762 812 l 300 812 l 300 608 l 725 608 l 725 414 l 300 414 l 300 199 l 761 199 l 761 0 l 57 0 m 471 1235 l 667 1089 l 515 1089 l 411 1165 l 311 1089 l 155 1089 l 353 1235 l 471 1235 m 515 1401 l 593 1373 q 570 1299 593 1333 q 507 1265 547 1266 q 464 1272 484 1265 q 426 1288 444 1279 q 390 1302 408 1296 q 355 1309 373 1309 q 333 1295 340 1309 q 326 1262 326 1281 l 249 1284 q 271 1355 248 1322 q 335 1389 294 1388 q 386 1378 359 1389 q 438 1358 412 1368 q 487 1347 464 1348 q 507 1365 500 1348 q 515 1401 514 1382 z "},"Ȅ":{"ha":818,"x_min":57,"x_max":762,"o":"m 57 0 l 57 1010 l 762 1010 l 762 812 l 300 812 l 300 608 l 725 608 l 725 414 l 300 414 l 300 199 l 761 199 l 761 0 l 57 0 m 210 1105 l 59 1329 l 275 1329 l 374 1105 l 210 1105 m 467 1105 l 365 1329 l 570 1329 l 625 1105 l 467 1105 z "},"Ë":{"ha":818,"x_min":57,"x_max":762,"o":"m 57 0 l 57 1010 l 762 1010 l 762 812 l 300 812 l 300 608 l 725 608 l 725 414 l 300 414 l 300 199 l 761 199 l 761 0 l 57 0 m 258 1106 q 179 1138 212 1106 q 146 1213 146 1169 q 179 1290 146 1259 q 258 1321 212 1320 q 336 1290 304 1320 q 369 1213 369 1259 q 336 1138 369 1169 q 258 1106 304 1106 m 566 1106 q 487 1138 519 1106 q 454 1213 454 1169 q 487 1290 454 1259 q 566 1321 519 1320 q 644 1290 612 1320 q 676 1213 676 1259 q 644 1138 676 1169 q 566 1106 612 1106 z "},"Ė":{"ha":818,"x_min":57,"x_max":762,"o":"m 57 0 l 57 1010 l 762 1010 l 762 812 l 300 812 l 300 608 l 725 608 l 725 414 l 300 414 l 300 199 l 761 199 l 761 0 l 57 0 m 412 1097 q 324 1131 361 1097 q 288 1213 288 1165 q 324 1295 288 1261 q 412 1329 361 1329 q 499 1295 463 1329 q 536 1213 536 1261 q 499 1131 536 1165 q 412 1097 463 1097 z "},"Ẹ":{"ha":818,"x_min":57,"x_max":762,"o":"m 57 0 l 57 1010 l 762 1010 l 762 812 l 300 812 l 300 608 l 725 608 l 725 414 l 300 414 l 300 199 l 761 199 l 761 0 l 57 0 m 410 -296 q 322 -262 359 -296 q 286 -180 286 -228 q 322 -98 286 -132 q 410 -64 359 -64 q 497 -98 461 -64 q 534 -180 534 -132 q 497 -262 534 -228 q 410 -296 461 -296 z "},"È":{"ha":818,"x_min":57,"x_max":762,"o":"m 57 0 l 57 1010 l 762 1010 l 762 812 l 300 812 l 300 608 l 725 608 l 725 414 l 300 414 l 300 199 l 761 199 l 761 0 l 57 0 m 333 1104 l 189 1318 l 401 1318 l 496 1104 l 333 1104 z "},"Ẻ":{"ha":818,"x_min":57,"x_max":762,"o":"m 57 0 l 57 1010 l 762 1010 l 762 812 l 300 812 l 300 608 l 725 608 l 725 414 l 300 414 l 300 199 l 761 199 l 761 0 l 57 0 m 497 1120 l 321 1120 l 307 1203 q 382 1216 360 1204 q 404 1246 405 1228 q 377 1281 405 1273 q 308 1289 349 1289 l 314 1391 q 530 1356 456 1391 q 603 1256 604 1320 q 571 1191 604 1213 q 497 1161 538 1168 l 497 1120 z "},"Ȇ":{"ha":818,"x_min":57,"x_max":762,"o":"m 57 0 l 57 1010 l 762 1010 l 762 812 l 300 812 l 300 608 l 725 608 l 725 414 l 300 414 l 300 199 l 761 199 l 761 0 l 57 0 m 154 1104 q 225 1258 154 1200 q 412 1317 297 1317 q 598 1258 527 1317 q 669 1104 669 1200 l 510 1104 q 484 1170 510 1145 q 412 1194 457 1194 q 338 1170 365 1194 q 312 1104 312 1145 l 154 1104 z "},"Ē":{"ha":818,"x_min":57,"x_max":762,"o":"m 57 0 l 57 1010 l 762 1010 l 762 812 l 300 812 l 300 608 l 725 608 l 725 414 l 300 414 l 300 199 l 761 199 l 761 0 l 57 0 m 656 1263 l 656 1143 l 168 1143 l 168 1263 l 656 1263 z "},"Ḗ":{"ha":818,"x_min":57,"x_max":762,"o":"m 57 0 l 57 1010 l 762 1010 l 762 812 l 300 812 l 300 608 l 725 608 l 725 414 l 300 414 l 300 199 l 761 199 l 761 0 l 57 0 m 317 1331 l 452 1514 l 658 1514 l 488 1331 l 317 1331 m 656 1242 l 656 1122 l 169 1122 l 169 1242 l 656 1242 z "},"Ḕ":{"ha":818,"x_min":57,"x_max":762,"o":"m 57 0 l 57 1010 l 762 1010 l 762 812 l 300 812 l 300 608 l 725 608 l 725 414 l 300 414 l 300 199 l 761 199 l 761 0 l 57 0 m 335 1331 l 165 1514 l 372 1514 l 507 1331 l 335 1331 m 656 1242 l 656 1122 l 168 1122 l 168 1242 l 656 1242 z "},"Ę":{"ha":818,"x_min":57,"x_max":780,"o":"m 57 0 l 57 1010 l 762 1010 l 762 812 l 300 812 l 300 608 l 725 608 l 725 414 l 300 414 l 300 199 l 761 199 l 761 0 l 57 0 m 664 -278 q 551 -244 597 -278 q 491 -148 506 -211 q 486 -64 480 -106 q 513 12 492 -22 q 571 62 534 46 l 761 0 q 687 -39 714 -18 q 660 -93 659 -60 q 672 -131 659 -117 q 706 -144 685 -144 q 732 -140 721 -144 q 753 -134 743 -136 l 779 -248 q 731 -269 760 -259 q 664 -278 703 -278 z "},"Ɛ":{"ha":911,"x_min":58,"x_max":852,"o":"m 581 483 l 414 483 q 238 515 315 484 q 117 604 161 547 q 73 733 74 660 q 121 890 74 825 q 255 989 168 955 q 461 1024 342 1024 q 655 988 570 1024 q 788 887 740 951 q 838 741 837 823 l 598 741 q 563 808 597 785 q 460 831 528 831 q 350 803 386 831 q 315 718 314 774 q 329 657 315 683 q 374 618 343 632 q 453 604 405 605 l 581 604 l 581 483 m 414 543 l 581 543 l 581 422 l 453 422 q 366 409 399 423 q 315 367 332 395 q 298 298 299 339 q 317 228 299 254 q 370 190 336 201 q 453 177 405 178 q 571 204 532 178 q 612 274 611 231 l 852 274 q 802 121 852 186 q 662 21 751 56 q 460 -14 574 -14 q 245 20 336 -14 q 106 120 155 54 q 58 283 58 186 q 151 475 58 408 q 414 543 245 543 z "},"Ʃ":{"ha":914,"x_min":90,"x_max":821,"o":"m 821 197 l 821 0 l 181 0 l 181 197 l 821 197 m 811 1013 l 811 814 l 218 814 l 218 1013 l 811 1013 m 643 512 l 643 503 l 289 0 l 91 0 l 91 104 l 391 507 l 91 907 l 91 1013 l 289 1013 l 643 512 z "},"Ẽ":{"ha":818,"x_min":57,"x_max":762,"o":"m 57 0 l 57 1010 l 762 1010 l 762 812 l 300 812 l 300 608 l 725 608 l 725 414 l 300 414 l 300 199 l 761 199 l 761 0 l 57 0 m 510 1103 q 448 1114 474 1103 q 402 1140 422 1125 q 365 1167 382 1156 q 330 1179 348 1179 q 296 1160 308 1179 q 282 1107 283 1141 l 158 1107 q 204 1255 160 1205 q 314 1304 248 1304 q 376 1293 350 1304 q 422 1267 402 1282 q 459 1241 442 1252 q 493 1230 475 1230 q 531 1248 519 1230 q 543 1300 542 1266 l 665 1300 q 620 1154 664 1204 q 510 1103 575 1103 z "},"Ḛ":{"ha":818,"x_min":57,"x_max":762,"o":"m 57 0 l 57 1010 l 762 1010 l 762 812 l 300 812 l 300 608 l 725 608 l 725 414 l 300 414 l 300 199 l 761 199 l 761 0 l 57 0 m 508 -279 q 446 -268 472 -279 q 400 -241 420 -256 q 363 -214 380 -226 q 328 -203 346 -203 q 294 -222 306 -203 q 280 -274 281 -241 l 156 -274 q 202 -127 158 -176 q 312 -77 245 -77 q 374 -89 348 -77 q 420 -115 400 -100 q 457 -141 440 -130 q 491 -152 473 -152 q 529 -134 517 -152 q 541 -81 540 -115 l 663 -81 q 617 -228 662 -177 q 508 -279 573 -279 z "},"Ǝ":{"ha":818,"x_min":56,"x_max":761,"o":"m 761 1010 l 761 0 l 56 0 l 56 199 l 517 199 l 517 403 l 94 403 l 94 597 l 517 597 l 517 812 l 57 812 l 57 1010 l 761 1010 z "},"Ə":{"ha":1042,"x_min":73,"x_max":970,"o":"m 512 -14 q 278 43 376 -14 q 126 205 180 100 q 73 456 73 311 l 73 581 l 788 581 l 788 383 l 313 383 l 313 363 q 336 277 313 315 q 403 219 359 239 q 510 198 447 199 q 636 229 588 199 q 707 312 684 260 q 729 430 730 365 l 729 576 q 706 695 730 643 q 621 779 682 748 q 446 810 559 810 q 347 805 397 810 q 252 791 296 800 q 176 774 208 783 l 140 977 q 212 996 159 985 q 335 1016 265 1007 q 473 1024 405 1024 q 745 967 635 1024 q 913 809 856 910 q 969 576 970 709 l 969 430 q 912 200 970 300 q 752 43 855 100 q 512 -14 650 -14 z "},"Ʒ":{"ha":916,"x_min":24,"x_max":894,"o":"m 24 83 l 269 83 q 296 -11 272 30 q 361 -74 321 -51 q 453 -96 402 -96 q 554 -65 512 -96 q 618 19 596 -35 q 640 140 640 72 q 613 273 640 218 q 537 358 585 328 q 429 388 490 389 l 308 388 l 308 560 l 571 800 l 571 808 l 79 808 l 79 1010 l 868 1010 l 868 834 l 549 547 l 549 537 q 731 475 654 528 q 851 338 808 423 q 894 145 894 254 q 862 -33 894 48 q 771 -174 829 -115 q 632 -267 712 -234 q 456 -300 552 -300 q 237 -251 334 -300 q 84 -115 140 -201 q 24 83 27 -28 z "},"Ǯ":{"ha":916,"x_min":24,"x_max":894,"o":"m 24 83 l 269 83 q 296 -11 272 30 q 361 -74 321 -51 q 453 -96 402 -96 q 554 -65 512 -96 q 618 19 596 -35 q 640 140 640 72 q 613 273 640 218 q 537 358 585 328 q 429 388 490 389 l 308 388 l 308 560 l 571 800 l 571 808 l 79 808 l 79 1010 l 868 1010 l 868 834 l 549 547 l 549 537 q 731 475 654 528 q 851 338 808 423 q 894 145 894 254 q 862 -33 894 48 q 771 -174 829 -115 q 632 -267 712 -234 q 456 -300 552 -300 q 237 -251 334 -300 q 84 -115 140 -201 q 24 83 27 -28 m 360 1329 l 458 1214 l 555 1329 l 758 1329 l 758 1321 l 545 1100 l 371 1100 l 158 1321 l 158 1329 l 360 1329 z "},"Ƹ":{"ha":918,"x_min":22,"x_max":893,"o":"m 893 83 q 834 -115 890 -28 q 680 -251 777 -201 q 461 -300 583 -300 q 285 -267 366 -300 q 146 -174 205 -234 q 55 -33 87 -115 q 22 145 22 48 q 66 338 23 254 q 186 475 109 423 q 368 537 264 528 l 368 547 l 48 834 l 48 1010 l 838 1010 l 838 808 l 346 808 l 346 800 l 608 560 l 608 388 l 488 388 q 379 358 427 389 q 304 273 332 328 q 277 140 277 218 q 299 19 277 72 q 363 -65 321 -35 q 464 -96 405 -96 q 555 -74 515 -96 q 620 -11 595 -51 q 647 83 645 30 l 893 83 z "},"F":{"ha":773,"x_min":57,"x_max":747,"o":"m 57 0 l 57 1010 l 747 1010 l 747 812 l 300 812 l 300 559 l 703 559 l 703 365 l 300 365 l 300 0 l 57 0 z "},"Ḟ":{"ha":773,"x_min":57,"x_max":747,"o":"m 57 0 l 57 1010 l 747 1010 l 747 812 l 300 812 l 300 559 l 703 559 l 703 365 l 300 365 l 300 0 l 57 0 m 406 1097 q 318 1131 355 1097 q 281 1213 281 1165 q 318 1295 281 1261 q 406 1329 355 1329 q 493 1295 457 1329 q 530 1213 530 1261 q 493 1131 530 1165 q 406 1097 457 1097 z "},"Ƒ":{"ha":814,"x_min":-49,"x_max":788,"o":"m 98 0 l 342 0 l 342 -35 q 317 -165 342 -116 q 252 -241 293 -215 q 159 -275 210 -267 q 53 -283 107 -283 q 4 -284 36 -284 q -49 -280 -27 -283 l -49 -98 q -26 -99 -39 -100 q -6 -99 -14 -99 q 66 -86 34 -99 q 98 -34 98 -74 l 98 0 m 98 0 l 98 1010 l 788 1010 l 788 812 l 342 812 l 342 559 l 744 559 l 744 365 l 342 365 l 342 0 l 98 0 z "},"G":{"ha":1025,"x_min":46,"x_max":978,"o":"m 532 -14 q 278 49 387 -14 q 107 228 168 112 q 46 503 46 344 q 111 785 46 669 q 285 963 176 902 q 529 1024 394 1024 q 692 999 617 1024 q 826 928 768 974 q 921 819 885 882 q 967 680 958 755 l 720 680 q 696 735 712 711 q 655 776 680 760 q 601 802 631 793 q 534 810 570 810 q 407 775 461 810 q 324 671 353 739 q 295 507 295 603 q 323 341 295 410 q 405 236 352 273 q 534 200 458 200 q 648 222 602 200 q 719 285 694 244 q 743 380 743 326 l 788 374 l 543 374 l 543 552 l 978 552 l 978 419 q 921 186 978 283 q 763 38 863 90 q 532 -14 662 -14 z "},"Ǵ":{"ha":1025,"x_min":46,"x_max":978,"o":"m 532 -14 q 278 49 387 -14 q 107 228 168 112 q 46 503 46 344 q 111 785 46 669 q 285 963 176 902 q 529 1024 394 1024 q 692 999 617 1024 q 826 928 768 974 q 921 819 885 882 q 967 680 958 755 l 720 680 q 696 735 712 711 q 655 776 680 760 q 601 802 631 793 q 534 810 570 810 q 407 775 461 810 q 324 671 353 739 q 295 507 295 603 q 323 341 295 410 q 405 236 352 273 q 534 200 458 200 q 648 222 602 200 q 719 285 694 244 q 743 380 743 326 l 788 374 l 543 374 l 543 552 l 978 552 l 978 419 q 921 186 978 283 q 763 38 863 90 q 532 -14 662 -14 m 439 1104 l 532 1318 l 745 1318 l 601 1104 l 439 1104 z "},"Ǥ":{"ha":1025,"x_min":46,"x_max":1017,"o":"m 1017 333 l 1017 264 l 543 264 l 543 333 l 1017 333 m 532 -14 q 278 49 387 -14 q 107 228 168 112 q 46 503 46 344 q 111 785 46 669 q 285 963 176 902 q 529 1024 394 1024 q 692 999 617 1024 q 826 928 768 974 q 921 819 885 882 q 967 680 958 755 l 720 680 q 696 735 712 711 q 655 776 680 760 q 601 802 631 793 q 534 810 570 810 q 407 775 461 810 q 324 671 353 739 q 295 507 295 603 q 323 341 295 410 q 405 236 352 273 q 534 200 458 200 q 648 222 602 200 q 719 285 694 244 q 743 380 743 326 l 788 374 l 543 374 l 543 552 l 978 552 l 978 419 q 921 186 978 283 q 763 38 863 90 q 532 -14 662 -14 z "},"Ğ":{"ha":1025,"x_min":46,"x_max":978,"o":"m 532 -14 q 278 49 387 -14 q 107 228 168 112 q 46 503 46 344 q 111 785 46 669 q 285 963 176 902 q 529 1024 394 1024 q 692 999 617 1024 q 826 928 768 974 q 921 819 885 882 q 967 680 958 755 l 720 680 q 696 735 712 711 q 655 776 680 760 q 601 802 631 793 q 534 810 570 810 q 407 775 461 810 q 324 671 353 739 q 295 507 295 603 q 323 341 295 410 q 405 236 352 273 q 534 200 458 200 q 648 222 602 200 q 719 285 694 244 q 743 380 743 326 l 788 374 l 543 374 l 543 552 l 978 552 l 978 419 q 921 186 978 283 q 763 38 863 90 q 532 -14 662 -14 m 523 1094 q 337 1153 408 1094 q 265 1306 265 1211 l 423 1306 q 450 1241 423 1265 q 523 1217 476 1217 q 595 1241 568 1217 q 621 1306 621 1265 l 781 1306 q 709 1153 781 1211 q 523 1094 638 1094 z "},"Ǧ":{"ha":1025,"x_min":46,"x_max":978,"o":"m 532 -14 q 278 49 387 -14 q 107 228 168 112 q 46 503 46 344 q 111 785 46 669 q 285 963 176 902 q 529 1024 394 1024 q 692 999 617 1024 q 826 928 768 974 q 921 819 885 882 q 967 680 958 755 l 720 680 q 696 735 712 711 q 655 776 680 760 q 601 802 631 793 q 534 810 570 810 q 407 775 461 810 q 324 671 353 739 q 295 507 295 603 q 323 341 295 410 q 405 236 352 273 q 534 200 458 200 q 648 222 602 200 q 719 285 694 244 q 743 380 743 326 l 788 374 l 543 374 l 543 552 l 978 552 l 978 419 q 921 186 978 283 q 763 38 863 90 q 532 -14 662 -14 m 425 1329 l 523 1214 l 621 1329 l 823 1329 l 823 1321 l 610 1100 l 436 1100 l 223 1321 l 223 1329 l 425 1329 z "},"Ĝ":{"ha":1025,"x_min":46,"x_max":978,"o":"m 532 -14 q 278 49 387 -14 q 107 228 168 112 q 46 503 46 344 q 111 785 46 669 q 285 963 176 902 q 529 1024 394 1024 q 692 999 617 1024 q 826 928 768 974 q 921 819 885 882 q 967 680 958 755 l 720 680 q 696 735 712 711 q 655 776 680 760 q 601 802 631 793 q 534 810 570 810 q 407 775 461 810 q 324 671 353 739 q 295 507 295 603 q 323 341 295 410 q 405 236 352 273 q 534 200 458 200 q 648 222 602 200 q 719 285 694 244 q 743 380 743 326 l 788 374 l 543 374 l 543 552 l 978 552 l 978 419 q 921 186 978 283 q 763 38 863 90 q 532 -14 662 -14 m 620 1100 l 522 1215 l 425 1100 l 222 1100 l 222 1107 l 436 1329 l 609 1329 l 822 1107 l 822 1100 l 620 1100 z "},"Ģ":{"ha":1025,"x_min":46,"x_max":978,"o":"m 532 -14 q 278 49 387 -14 q 107 228 168 112 q 46 503 46 344 q 111 785 46 669 q 285 963 176 902 q 529 1024 394 1024 q 692 999 617 1024 q 826 928 768 974 q 921 819 885 882 q 967 680 958 755 l 720 680 q 696 735 712 711 q 655 776 680 760 q 601 802 631 793 q 534 810 570 810 q 407 775 461 810 q 324 671 353 739 q 295 507 295 603 q 323 341 295 410 q 405 236 352 273 q 534 200 458 200 q 648 222 602 200 q 719 285 694 244 q 743 380 743 326 l 788 374 l 543 374 l 543 552 l 978 552 l 978 419 q 921 186 978 283 q 763 38 863 90 q 532 -14 662 -14 m 350 -317 l 412 -77 l 632 -77 l 515 -317 l 350 -317 z "},"Ġ":{"ha":1025,"x_min":46,"x_max":978,"o":"m 532 -14 q 278 49 387 -14 q 107 228 168 112 q 46 503 46 344 q 111 785 46 669 q 285 963 176 902 q 529 1024 394 1024 q 692 999 617 1024 q 826 928 768 974 q 921 819 885 882 q 967 680 958 755 l 720 680 q 696 735 712 711 q 655 776 680 760 q 601 802 631 793 q 534 810 570 810 q 407 775 461 810 q 324 671 353 739 q 295 507 295 603 q 323 341 295 410 q 405 236 352 273 q 534 200 458 200 q 648 222 602 200 q 719 285 694 244 q 743 380 743 326 l 788 374 l 543 374 l 543 552 l 978 552 l 978 419 q 921 186 978 283 q 763 38 863 90 q 532 -14 662 -14 m 523 1097 q 435 1131 472 1097 q 399 1213 399 1165 q 435 1295 399 1261 q 523 1329 472 1329 q 611 1295 574 1329 q 647 1213 647 1261 q 611 1131 647 1165 q 523 1097 574 1097 z "},"Ɠ":{"ha":1147,"x_min":46,"x_max":1170,"o":"m 966 680 l 717 680 l 718 850 q 745 978 718 922 q 822 1070 773 1033 q 931 1127 870 1108 q 1060 1146 993 1146 q 1114 1143 1087 1147 q 1170 1133 1140 1140 l 1170 943 q 1136 946 1153 944 q 1103 948 1120 948 q 1037 941 1069 948 q 986 913 1006 934 q 966 850 966 892 l 966 680 m 532 -14 q 278 49 387 -14 q 107 228 168 112 q 46 503 46 344 q 111 785 46 669 q 285 963 176 902 q 529 1024 394 1024 q 692 999 617 1024 q 826 928 768 974 q 921 819 885 882 q 967 680 958 755 l 720 680 q 696 735 712 711 q 655 776 680 760 q 601 802 631 793 q 534 810 570 810 q 407 775 461 810 q 324 671 353 739 q 295 507 295 603 q 323 341 295 410 q 405 236 352 273 q 534 200 458 200 q 648 222 602 200 q 719 285 694 244 q 743 380 743 326 l 788 374 l 543 374 l 543 552 l 978 552 l 978 419 q 921 186 978 283 q 763 38 863 90 q 532 -14 662 -14 z "},"Ḡ":{"ha":1025,"x_min":46,"x_max":978,"o":"m 532 -14 q 278 49 387 -14 q 107 228 168 112 q 46 503 46 344 q 111 785 46 669 q 285 963 176 902 q 529 1024 394 1024 q 692 999 617 1024 q 826 928 768 974 q 921 819 885 882 q 967 680 958 755 l 720 680 q 696 735 712 711 q 655 776 680 760 q 601 802 631 793 q 534 810 570 810 q 407 775 461 810 q 324 671 353 739 q 295 507 295 603 q 323 341 295 410 q 405 236 352 273 q 534 200 458 200 q 648 222 602 200 q 719 285 694 244 q 743 380 743 326 l 788 374 l 543 374 l 543 552 l 978 552 l 978 419 q 921 186 978 283 q 763 38 863 90 q 532 -14 662 -14 m 766 1263 l 766 1143 l 279 1143 l 279 1263 l 766 1263 z "},"Ȝ":{"ha":910,"x_min":66,"x_max":844,"o":"m 145 212 l 145 392 q 363 463 276 430 q 499 529 450 496 q 571 601 549 562 q 592 690 592 640 q 555 798 591 764 q 445 832 519 832 q 371 821 402 833 q 322 789 339 810 q 305 741 306 769 l 66 741 q 115 888 66 825 q 249 988 163 952 q 445 1024 334 1024 q 650 991 564 1024 q 783 892 736 958 q 829 723 829 825 q 791 557 829 633 q 670 420 753 482 q 458 308 588 359 q 145 212 328 256 m 481 361 l 515 502 q 687 474 613 505 q 802 383 761 443 q 844 239 844 323 q 793 40 844 130 q 651 -119 743 -50 q 430 -232 558 -187 q 145 -296 301 -277 l 145 -106 q 338 -53 253 -85 q 483 23 423 -21 q 573 123 542 67 q 604 245 604 178 q 577 340 604 315 q 481 361 550 365 z "},"H":{"ha":1000,"x_min":57,"x_max":943,"o":"m 57 0 l 57 1010 l 300 1010 l 300 605 l 699 605 l 699 1010 l 943 1010 l 943 0 l 699 0 l 699 406 l 300 406 l 300 0 l 57 0 z "},"Ħ":{"ha":1102,"x_min":24,"x_max":1078,"o":"m 1078 848 l 1078 723 l 24 723 l 24 848 l 1078 848 m 108 0 l 108 1010 l 351 1010 l 351 605 l 750 605 l 750 1010 l 994 1010 l 994 0 l 750 0 l 750 406 l 351 406 l 351 0 l 108 0 z "},"Ḫ":{"ha":1000,"x_min":57,"x_max":943,"o":"m 57 0 l 57 1010 l 300 1010 l 300 605 l 699 605 l 699 1010 l 943 1010 l 943 0 l 699 0 l 699 406 l 300 406 l 300 0 l 57 0 m 601 -53 l 758 -53 q 689 -204 758 -144 q 499 -264 620 -265 q 313 -207 384 -265 q 243 -53 243 -148 l 401 -53 q 423 -113 400 -86 q 500 -139 446 -139 q 576 -112 553 -139 q 601 -53 600 -84 z "},"Ḩ":{"ha":1000,"x_min":57,"x_max":943,"o":"m 57 0 l 57 1010 l 300 1010 l 300 605 l 699 605 l 699 1010 l 943 1010 l 943 0 l 699 0 l 699 406 l 300 406 l 300 0 l 57 0 m 128 4 l 225 4 l 217 -41 q 304 -80 272 -49 q 338 -161 337 -112 q 264 -283 338 -239 q 58 -327 191 -328 l 58 -228 q 162 -213 125 -229 q 201 -167 199 -197 q 179 -121 202 -138 q 106 -98 155 -104 l 128 4 z "},"Ĥ":{"ha":1000,"x_min":57,"x_max":943,"o":"m 57 0 l 57 1010 l 300 1010 l 300 605 l 699 605 l 699 1010 l 943 1010 l 943 0 l 699 0 l 699 406 l 300 406 l 300 0 l 57 0 m 597 1100 l 499 1215 l 402 1100 l 199 1100 l 199 1107 l 413 1329 l 586 1329 l 799 1107 l 799 1100 l 597 1100 z "},"Ḧ":{"ha":1000,"x_min":57,"x_max":943,"o":"m 57 0 l 57 1010 l 300 1010 l 300 605 l 699 605 l 699 1010 l 943 1010 l 943 0 l 699 0 l 699 406 l 300 406 l 300 0 l 57 0 m 346 1106 q 267 1138 299 1106 q 234 1213 234 1169 q 267 1290 234 1259 q 346 1321 299 1320 q 424 1290 391 1320 q 456 1213 456 1259 q 424 1138 456 1169 q 346 1106 391 1106 m 654 1106 q 574 1138 607 1106 q 541 1213 541 1169 q 574 1290 541 1259 q 654 1321 607 1320 q 731 1290 699 1320 q 764 1213 764 1259 q 731 1138 764 1169 q 654 1106 699 1106 z "},"Ḣ":{"ha":1000,"x_min":57,"x_max":943,"o":"m 57 0 l 57 1010 l 300 1010 l 300 605 l 699 605 l 699 1010 l 943 1010 l 943 0 l 699 0 l 699 406 l 300 406 l 300 0 l 57 0 m 500 1097 q 412 1131 449 1097 q 376 1213 376 1165 q 412 1295 376 1261 q 500 1329 449 1329 q 588 1295 551 1329 q 624 1213 624 1261 q 588 1131 624 1165 q 500 1097 551 1097 z "},"Ḥ":{"ha":1000,"x_min":57,"x_max":943,"o":"m 57 0 l 57 1010 l 300 1010 l 300 605 l 699 605 l 699 1010 l 943 1010 l 943 0 l 699 0 l 699 406 l 300 406 l 300 0 l 57 0 m 500 -296 q 412 -262 449 -296 q 376 -180 376 -228 q 412 -98 376 -132 q 500 -64 449 -64 q 588 -98 551 -64 q 624 -180 624 -132 q 588 -262 624 -228 q 500 -296 551 -296 z "},"I":{"ha":357,"x_min":57,"x_max":300,"o":"m 300 1010 l 300 0 l 57 0 l 57 1010 l 300 1010 z "},"Ĳ":{"ha":1122,"x_min":57,"x_max":1065,"o":"m 300 1010 l 300 0 l 57 0 l 57 1010 l 300 1010 m 715 -14 q 541 20 622 -14 q 411 122 460 53 q 362 300 362 191 l 362 308 l 606 308 l 606 300 q 619 234 606 261 q 657 193 633 207 q 715 178 682 178 q 775 193 751 178 q 812 238 800 208 q 825 311 825 268 l 825 1010 l 1065 1010 l 1065 311 q 1023 140 1065 214 q 901 27 980 67 q 715 -14 823 -14 z "},"Í":{"ha":357,"x_min":57,"x_max":403,"o":"m 300 1010 l 300 0 l 57 0 l 57 1010 l 300 1010 m 96 1104 l 190 1318 l 403 1318 l 258 1104 l 96 1104 z "},"Ĭ":{"ha":357,"x_min":-78,"x_max":437,"o":"m 300 1010 l 300 0 l 57 0 l 57 1010 l 300 1010 m 180 1094 q -6 1153 65 1094 q -78 1306 -78 1211 l 80 1306 q 106 1241 80 1265 q 180 1217 133 1217 q 252 1241 225 1217 q 278 1306 278 1265 l 437 1306 q 366 1153 437 1211 q 180 1094 295 1094 z "},"Ǐ":{"ha":357,"x_min":-120,"x_max":479,"o":"m 300 1010 l 300 0 l 57 0 l 57 1010 l 300 1010 m 82 1329 l 180 1214 l 277 1329 l 479 1329 l 479 1321 l 267 1100 l 93 1100 l -120 1321 l -120 1329 l 82 1329 z "},"Î":{"ha":357,"x_min":-120,"x_max":479,"o":"m 300 1010 l 300 0 l 57 0 l 57 1010 l 300 1010 m 277 1100 l 180 1215 l 82 1100 l -120 1100 l -120 1107 l 93 1329 l 267 1329 l 479 1107 l 479 1100 l 277 1100 z "},"Ȉ":{"ha":357,"x_min":-173,"x_max":394,"o":"m 300 1010 l 300 0 l 57 0 l 57 1010 l 300 1010 m -22 1105 l -173 1329 l 43 1329 l 142 1105 l -22 1105 m 235 1105 l 133 1329 l 338 1329 l 393 1105 l 235 1105 z "},"Ï":{"ha":357,"x_min":-86,"x_max":444,"o":"m 300 1010 l 300 0 l 57 0 l 57 1010 l 300 1010 m 26 1106 q -53 1138 -20 1106 q -85 1213 -85 1169 q -53 1290 -85 1259 q 26 1321 -20 1320 q 104 1290 72 1320 q 137 1213 137 1259 q 104 1138 137 1169 q 26 1106 72 1106 m 334 1106 q 255 1138 288 1106 q 222 1213 222 1169 q 255 1290 222 1259 q 334 1321 288 1320 q 412 1290 380 1320 q 444 1213 444 1259 q 412 1138 444 1169 q 334 1106 380 1106 z "},"Ḯ":{"ha":357,"x_min":-70,"x_max":431,"o":"m 300 1010 l 300 0 l 57 0 l 57 1010 l 300 1010 m 90 1333 l 223 1516 l 429 1516 l 256 1333 l 90 1333 m 36 1076 q -39 1105 -8 1076 q -70 1174 -70 1134 q -39 1244 -70 1215 q 36 1273 -8 1272 q 109 1244 79 1272 q 140 1174 140 1215 q 109 1105 140 1134 q 36 1076 79 1076 m 327 1076 q 252 1105 283 1076 q 221 1174 221 1134 q 252 1244 221 1215 q 327 1273 283 1272 q 401 1244 370 1272 q 431 1174 431 1215 q 401 1105 431 1134 q 327 1076 370 1076 z "},"İ":{"ha":357,"x_min":56,"x_max":304,"o":"m 300 1010 l 300 0 l 57 0 l 57 1010 l 300 1010 m 180 1097 q 92 1131 129 1097 q 56 1213 56 1165 q 92 1295 56 1261 q 180 1329 129 1329 q 268 1295 231 1329 q 304 1213 304 1261 q 268 1131 304 1165 q 180 1097 231 1097 z "},"Ị":{"ha":357,"x_min":54,"x_max":302,"o":"m 300 1010 l 300 0 l 57 0 l 57 1010 l 300 1010 m 178 -296 q 90 -262 127 -296 q 54 -180 54 -228 q 90 -98 54 -132 q 178 -64 127 -64 q 266 -98 229 -64 q 302 -180 302 -132 q 266 -262 302 -228 q 178 -296 229 -296 z "},"Ì":{"ha":357,"x_min":-43,"x_max":300,"o":"m 300 1010 l 300 0 l 57 0 l 57 1010 l 300 1010 m 101 1104 l -43 1318 l 169 1318 l 264 1104 l 101 1104 z "},"Ỉ":{"ha":357,"x_min":57,"x_max":372,"o":"m 300 1010 l 300 0 l 57 0 l 57 1010 l 300 1010 m 265 1120 l 90 1120 l 75 1203 q 151 1216 128 1204 q 172 1246 173 1228 q 145 1281 173 1273 q 76 1289 117 1289 l 82 1391 q 298 1356 224 1391 q 371 1256 372 1320 q 339 1191 372 1213 q 265 1161 306 1168 l 265 1120 z "},"Ȋ":{"ha":357,"x_min":-78,"x_max":437,"o":"m 300 1010 l 300 0 l 57 0 l 57 1010 l 300 1010 m -78 1104 q -6 1258 -78 1200 q 180 1317 65 1317 q 366 1258 295 1317 q 437 1104 437 1200 l 278 1104 q 252 1170 278 1145 q 180 1194 225 1194 q 106 1170 133 1194 q 80 1104 80 1145 l -78 1104 z "},"Ī":{"ha":357,"x_min":-64,"x_max":423,"o":"m 300 1010 l 300 0 l 57 0 l 57 1010 l 300 1010 m 424 1263 l 424 1143 l -64 1143 l -64 1263 l 424 1263 z "},"Į":{"ha":357,"x_min":20,"x_max":319,"o":"m 300 1010 l 300 0 l 57 0 l 57 1010 l 300 1010 m 204 -278 q 92 -244 137 -278 q 31 -148 46 -211 q 26 -64 20 -106 q 53 12 32 -22 q 111 62 75 46 l 301 0 q 227 -39 254 -18 q 200 -93 199 -60 q 212 -131 199 -117 q 246 -144 225 -144 q 272 -140 261 -144 q 293 -134 283 -136 l 319 -248 q 272 -269 300 -259 q 204 -278 243 -278 z "},"Ɩ":{"ha":399,"x_min":57,"x_max":425,"o":"m 57 1010 l 298 1010 l 298 237 q 311 193 298 208 q 351 179 324 179 q 374 181 366 180 q 388 184 382 182 l 425 14 q 385 3 408 8 q 317 -4 361 -2 q 121 41 184 -10 q 57 210 58 92 l 57 1010 z "},"Ɨ":{"ha":357,"x_min":-79,"x_max":433,"o":"m 300 1010 l 300 0 l 57 0 l 57 1010 l 300 1010 m -78 469 l -78 604 l 433 604 l 433 469 l -78 469 z "},"Ĩ":{"ha":357,"x_min":-74,"x_max":433,"o":"m 300 1010 l 300 0 l 57 0 l 57 1010 l 300 1010 m 278 1103 q 216 1114 242 1103 q 170 1140 190 1125 q 133 1167 150 1156 q 98 1179 116 1179 q 64 1160 76 1179 q 50 1107 52 1141 l -74 1107 q -28 1255 -72 1205 q 82 1304 16 1304 q 144 1293 118 1304 q 190 1267 170 1282 q 227 1241 210 1252 q 261 1230 243 1230 q 299 1248 288 1230 q 311 1300 310 1266 l 433 1300 q 388 1154 432 1204 q 278 1103 343 1103 z "},"Ḭ":{"ha":357,"x_min":-76,"x_max":431,"o":"m 300 1010 l 300 0 l 57 0 l 57 1010 l 300 1010 m 276 -279 q 214 -268 240 -279 q 168 -241 188 -256 q 131 -214 148 -226 q 96 -203 114 -203 q 62 -222 74 -203 q 48 -274 50 -241 l -76 -274 q -30 -127 -74 -176 q 80 -77 14 -77 q 142 -89 116 -77 q 188 -115 168 -100 q 225 -141 208 -130 q 259 -152 241 -152 q 297 -134 286 -152 q 309 -81 308 -115 l 431 -81 q 386 -228 430 -177 q 276 -279 341 -279 z "},"J":{"ha":765,"x_min":5,"x_max":708,"o":"m 358 -14 q 183 20 264 -14 q 54 122 102 53 q 5 300 5 191 l 5 308 l 248 308 l 248 300 q 262 234 248 261 q 300 193 275 207 q 358 178 325 178 q 418 193 393 178 q 455 238 442 208 q 467 311 467 268 l 467 1010 l 708 1010 l 708 311 q 665 140 708 214 q 544 27 623 67 q 358 -14 465 -14 z "},"Ĵ":{"ha":765,"x_min":5,"x_max":886,"o":"m 358 -14 q 183 20 264 -14 q 54 122 102 53 q 5 300 5 191 l 5 308 l 248 308 l 248 300 q 262 234 248 261 q 300 193 275 207 q 358 178 325 178 q 418 193 393 178 q 455 238 442 208 q 467 311 467 268 l 467 1010 l 708 1010 l 708 311 q 665 140 708 214 q 544 27 623 67 q 358 -14 465 -14 m 684 1100 l 587 1215 l 490 1100 l 287 1100 l 287 1107 l 500 1329 l 673 1329 l 886 1107 l 886 1100 l 684 1100 z "},"K":{"ha":937,"x_min":57,"x_max":942,"o":"m 57 0 l 57 1010 l 300 1010 l 300 583 l 314 583 l 648 1010 l 936 1010 l 578 559 l 942 0 l 650 0 l 399 397 l 300 274 l 300 0 l 57 0 z "},"Ḱ":{"ha":937,"x_min":57,"x_max":942,"o":"m 57 0 l 57 1010 l 300 1010 l 300 583 l 314 583 l 648 1010 l 936 1010 l 578 559 l 942 0 l 650 0 l 399 397 l 300 274 l 300 0 l 57 0 m 381 1104 l 475 1318 l 688 1318 l 543 1104 l 381 1104 z "},"Ǩ":{"ha":937,"x_min":57,"x_max":942,"o":"m 57 0 l 57 1010 l 300 1010 l 300 583 l 314 583 l 648 1010 l 936 1010 l 578 559 l 942 0 l 650 0 l 399 397 l 300 274 l 300 0 l 57 0 m 367 1329 l 465 1214 l 562 1329 l 764 1329 l 764 1321 l 551 1100 l 378 1100 l 165 1321 l 165 1329 l 367 1329 z "},"Ķ":{"ha":937,"x_min":57,"x_max":942,"o":"m 57 0 l 57 1010 l 300 1010 l 300 583 l 314 583 l 648 1010 l 936 1010 l 578 559 l 942 0 l 650 0 l 399 397 l 300 274 l 300 0 l 57 0 m 293 -319 l 355 -79 l 575 -79 l 458 -319 l 293 -319 z "},"Ḳ":{"ha":937,"x_min":57,"x_max":942,"o":"m 57 0 l 57 1010 l 300 1010 l 300 583 l 314 583 l 648 1010 l 936 1010 l 578 559 l 942 0 l 650 0 l 399 397 l 300 274 l 300 0 l 57 0 m 463 -294 q 376 -260 412 -294 q 339 -178 339 -227 q 376 -97 339 -130 q 463 -63 412 -63 q 551 -97 515 -63 q 587 -178 587 -130 q 551 -260 587 -227 q 463 -294 515 -294 z "},"Ƙ":{"ha":1000,"x_min":57,"x_max":1011,"o":"m 57 0 l 57 1010 l 300 1010 l 300 597 l 314 597 l 623 918 q 742 1002 679 976 q 872 1022 804 1028 q 1011 975 940 1015 l 936 804 q 863 813 892 826 q 801 768 834 801 l 580 541 l 994 0 l 702 0 l 423 368 l 300 238 l 300 0 l 57 0 z "},"Ḵ":{"ha":937,"x_min":57,"x_max":942,"o":"m 57 0 l 57 1010 l 300 1010 l 300 583 l 314 583 l 648 1010 l 936 1010 l 578 559 l 942 0 l 650 0 l 399 397 l 300 274 l 300 0 l 57 0 m 707 -125 l 707 -245 l 220 -245 l 220 -125 l 707 -125 z "},"L":{"ha":752,"x_min":57,"x_max":722,"o":"m 57 0 l 57 1010 l 300 1010 l 300 199 l 722 199 l 722 0 l 57 0 z "},"Ǉ":{"ha":1516,"x_min":57,"x_max":1459,"o":"m 57 0 l 57 1010 l 300 1010 l 300 199 l 722 199 l 722 0 l 57 0 m 1110 -14 q 936 20 1017 -14 q 806 122 854 53 q 757 300 757 191 l 757 308 l 1000 308 l 1000 300 q 1014 234 1000 261 q 1052 193 1027 207 q 1110 178 1077 178 q 1170 193 1145 178 q 1207 238 1194 208 q 1219 311 1219 268 l 1219 1010 l 1460 1010 l 1460 311 q 1417 140 1460 214 q 1296 27 1375 67 q 1110 -14 1217 -14 z "},"Ĺ":{"ha":752,"x_min":57,"x_max":722,"o":"m 57 0 l 57 1010 l 300 1010 l 300 199 l 722 199 l 722 0 l 57 0 m 93 1104 l 186 1318 l 399 1318 l 255 1104 l 93 1104 z "},"Ƚ":{"ha":752,"x_min":-79,"x_max":722,"o":"m 57 0 l 57 1010 l 300 1010 l 300 199 l 722 199 l 722 0 l 57 0 m -78 469 l -78 604 l 433 604 l 433 469 l -78 469 z "},"Ľ":{"ha":752,"x_min":57,"x_max":722,"o":"m 57 0 l 57 1010 l 300 1010 l 300 199 l 722 199 l 722 0 l 57 0 m 446 802 l 446 1063 l 617 1063 l 581 802 l 446 802 z "},"Ḽ":{"ha":752,"x_min":57,"x_max":722,"o":"m 57 0 l 57 1010 l 300 1010 l 300 199 l 722 199 l 722 0 l 57 0 m 487 -291 l 389 -176 l 292 -291 l 90 -291 l 90 -283 l 302 -62 l 476 -62 l 689 -283 l 689 -291 l 487 -291 z "},"Ļ":{"ha":752,"x_min":57,"x_max":722,"o":"m 57 0 l 57 1010 l 300 1010 l 300 199 l 722 199 l 722 0 l 57 0 m 219 -320 l 281 -80 l 501 -80 l 385 -320 l 219 -320 z "},"Ŀ":{"ha":774,"x_min":61,"x_max":726,"o":"m 61 0 l 61 1010 l 304 1010 l 304 199 l 726 199 l 726 0 l 61 0 m 501 507 q 414 541 450 507 q 377 623 377 575 q 414 705 377 671 q 501 739 450 739 q 589 705 553 739 q 625 623 625 671 q 589 541 625 575 q 501 507 553 507 z "},"Ḷ":{"ha":752,"x_min":57,"x_max":722,"o":"m 57 0 l 57 1010 l 300 1010 l 300 199 l 722 199 l 722 0 l 57 0 m 389 -296 q 302 -262 338 -296 q 265 -180 265 -228 q 302 -98 265 -132 q 389 -64 338 -64 q 477 -98 441 -64 q 513 -180 513 -132 q 477 -262 513 -228 q 389 -296 441 -296 z "},"Ḹ":{"ha":752,"x_min":-67,"x_max":722,"o":"m 57 0 l 57 1010 l 300 1010 l 300 199 l 722 199 l 722 0 l 57 0 m 389 -296 q 302 -262 338 -296 q 265 -180 265 -228 q 302 -98 265 -132 q 389 -64 338 -64 q 477 -98 441 -64 q 513 -180 513 -132 q 477 -262 513 -228 q 389 -296 441 -296 m 420 1263 l 420 1143 l -67 1143 l -67 1263 l 420 1263 z "},"ǈ":{"ha":1107,"x_min":57,"x_max":1053,"o":"m 57 0 l 57 1010 l 300 1010 l 300 199 l 722 199 l 722 0 l 57 0 m 809 758 l 1050 758 l 1050 -32 q 1013 -180 1050 -125 q 905 -259 975 -235 q 740 -283 835 -283 l 691 -283 l 691 -101 l 720 -101 q 790 -83 770 -101 q 809 -27 809 -65 l 809 758 m 929 845 q 842 879 878 845 q 805 961 805 913 q 842 1043 805 1009 q 929 1076 878 1076 q 1017 1043 981 1076 q 1053 961 1053 1009 q 1017 879 1053 913 q 929 845 981 845 z "},"Ḻ":{"ha":752,"x_min":57,"x_max":722,"o":"m 57 0 l 57 1010 l 300 1010 l 300 199 l 722 199 l 722 0 l 57 0 m 633 -127 l 633 -246 l 146 -246 l 146 -127 l 633 -127 z "},"Ł":{"ha":785,"x_min":-3,"x_max":778,"o":"m 473 660 l 473 533 l -3 407 l -3 532 l 473 660 m 113 0 l 113 1010 l 357 1010 l 357 199 l 778 199 l 778 0 l 113 0 z "},"M":{"ha":1244,"x_min":57,"x_max":1187,"o":"m 57 1010 l 359 1010 l 616 385 l 627 385 l 884 1010 l 1187 1010 l 1187 0 l 948 0 l 948 621 l 941 621 l 697 7 l 545 7 l 303 623 l 295 623 l 295 0 l 57 0 l 57 1010 z "},"Ḿ":{"ha":1244,"x_min":57,"x_max":1187,"o":"m 57 1010 l 359 1010 l 616 385 l 627 385 l 884 1010 l 1187 1010 l 1187 0 l 948 0 l 948 621 l 941 621 l 697 7 l 545 7 l 303 623 l 295 623 l 295 0 l 57 0 l 57 1010 m 538 1104 l 631 1318 l 844 1318 l 700 1104 l 538 1104 z "},"Ṁ":{"ha":1244,"x_min":57,"x_max":1187,"o":"m 57 1010 l 359 1010 l 616 385 l 627 385 l 884 1010 l 1187 1010 l 1187 0 l 948 0 l 948 621 l 941 621 l 697 7 l 545 7 l 303 623 l 295 623 l 295 0 l 57 0 l 57 1010 m 621 1097 q 534 1131 570 1097 q 497 1213 497 1165 q 534 1295 497 1261 q 621 1329 570 1329 q 709 1295 673 1329 q 745 1213 745 1261 q 709 1131 745 1165 q 621 1097 673 1097 z "},"Ṃ":{"ha":1244,"x_min":57,"x_max":1187,"o":"m 57 1010 l 359 1010 l 616 385 l 627 385 l 884 1010 l 1187 1010 l 1187 0 l 948 0 l 948 621 l 941 621 l 697 7 l 545 7 l 303 623 l 295 623 l 295 0 l 57 0 l 57 1010 m 621 -296 q 534 -262 570 -296 q 497 -180 497 -228 q 534 -98 497 -132 q 621 -64 570 -64 q 709 -98 673 -64 q 745 -180 745 -132 q 709 -262 745 -228 q 621 -296 673 -296 z "},"N":{"ha":973,"x_min":57,"x_max":916,"o":"m 916 1010 l 916 0 l 710 0 l 308 583 l 300 583 l 300 0 l 57 0 l 57 1010 l 267 1010 l 665 429 l 673 429 l 673 1010 l 916 1010 z "},"Ǌ":{"ha":1738,"x_min":57,"x_max":1681,"o":"m 916 1010 l 916 0 l 710 0 l 308 583 l 300 583 l 300 0 l 57 0 l 57 1010 l 267 1010 l 665 429 l 673 429 l 673 1010 l 916 1010 m 1331 -14 q 1157 20 1238 -14 q 1027 122 1076 53 q 978 300 978 191 l 978 308 l 1221 308 l 1221 300 q 1235 234 1221 261 q 1273 193 1249 207 q 1331 178 1298 178 q 1391 193 1367 178 q 1428 238 1415 208 q 1440 311 1440 268 l 1440 1010 l 1681 1010 l 1681 311 q 1638 140 1681 214 q 1517 27 1596 67 q 1331 -14 1438 -14 z "},"Ń":{"ha":973,"x_min":57,"x_max":916,"o":"m 916 1010 l 916 0 l 710 0 l 308 583 l 300 583 l 300 0 l 57 0 l 57 1010 l 267 1010 l 665 429 l 673 429 l 673 1010 l 916 1010 m 404 1104 l 497 1318 l 710 1318 l 566 1104 l 404 1104 z "},"Ň":{"ha":973,"x_min":57,"x_max":916,"o":"m 916 1010 l 916 0 l 710 0 l 308 583 l 300 583 l 300 0 l 57 0 l 57 1010 l 267 1010 l 665 429 l 673 429 l 673 1010 l 916 1010 m 390 1329 l 488 1214 l 585 1329 l 787 1329 l 787 1321 l 574 1100 l 401 1100 l 188 1321 l 188 1329 l 390 1329 z "},"Ṋ":{"ha":973,"x_min":57,"x_max":916,"o":"m 916 1010 l 916 0 l 710 0 l 308 583 l 300 583 l 300 0 l 57 0 l 57 1010 l 267 1010 l 665 429 l 673 429 l 673 1010 l 916 1010 m 585 -291 l 487 -176 l 390 -291 l 187 -291 l 187 -283 l 401 -62 l 574 -62 l 787 -283 l 787 -291 l 585 -291 z "},"Ņ":{"ha":973,"x_min":57,"x_max":916,"o":"m 916 1010 l 916 0 l 710 0 l 308 583 l 300 583 l 300 0 l 57 0 l 57 1010 l 267 1010 l 665 429 l 673 429 l 673 1010 l 916 1010 m 317 -320 l 380 -80 l 600 -80 l 483 -320 l 317 -320 z "},"Ṅ":{"ha":973,"x_min":57,"x_max":916,"o":"m 916 1010 l 916 0 l 710 0 l 308 583 l 300 583 l 300 0 l 57 0 l 57 1010 l 267 1010 l 665 429 l 673 429 l 673 1010 l 916 1010 m 488 1097 q 400 1131 437 1097 q 363 1213 363 1165 q 400 1295 363 1261 q 488 1329 437 1329 q 575 1295 539 1329 q 612 1213 612 1261 q 575 1131 612 1165 q 488 1097 539 1097 z "},"Ṇ":{"ha":973,"x_min":57,"x_max":916,"o":"m 916 1010 l 916 0 l 710 0 l 308 583 l 300 583 l 300 0 l 57 0 l 57 1010 l 267 1010 l 665 429 l 673 429 l 673 1010 l 916 1010 m 488 -296 q 400 -262 437 -296 q 363 -180 363 -228 q 400 -98 363 -132 q 488 -64 437 -64 q 575 -98 539 -64 q 612 -180 612 -132 q 575 -262 612 -228 q 488 -296 539 -296 z "},"Ɲ":{"ha":1003,"x_min":-61,"x_max":946,"o":"m 87 0 l 330 0 l 330 -35 q 306 -165 330 -116 q 240 -241 281 -215 q 149 -275 199 -267 q 47 -283 98 -283 q -6 -284 28 -284 q -61 -280 -41 -283 l -61 -98 q -38 -99 -50 -100 q -16 -99 -26 -99 q 54 -86 22 -99 q 87 -34 86 -74 l 87 0 m 946 1010 l 946 0 l 739 0 l 338 583 l 330 583 l 330 0 l 87 0 l 87 1010 l 297 1010 l 694 429 l 703 429 l 703 1010 l 946 1010 z "},"ǋ":{"ha":1286,"x_min":57,"x_max":1252,"o":"m 916 1010 l 916 0 l 710 0 l 308 583 l 300 583 l 300 0 l 57 0 l 57 1010 l 267 1010 l 665 429 l 673 429 l 673 1010 l 916 1010 m 1008 758 l 1249 758 l 1249 -32 q 1211 -180 1249 -125 q 1103 -259 1173 -235 q 939 -283 1034 -283 l 890 -283 l 890 -101 l 919 -101 q 988 -83 969 -101 q 1008 -27 1008 -65 l 1008 758 m 1128 845 q 1040 879 1077 845 q 1004 961 1004 913 q 1040 1043 1004 1009 q 1128 1076 1077 1076 q 1216 1043 1179 1076 q 1252 961 1252 1009 q 1216 879 1252 913 q 1128 845 1179 845 z "},"Ṉ":{"ha":973,"x_min":57,"x_max":916,"o":"m 916 1010 l 916 0 l 710 0 l 308 583 l 300 583 l 300 0 l 57 0 l 57 1010 l 267 1010 l 665 429 l 673 429 l 673 1010 l 916 1010 m 732 -127 l 732 -246 l 244 -246 l 244 -127 l 732 -127 z "},"Ñ":{"ha":973,"x_min":57,"x_max":916,"o":"m 916 1010 l 916 0 l 710 0 l 308 583 l 300 583 l 300 0 l 57 0 l 57 1010 l 267 1010 l 665 429 l 673 429 l 673 1010 l 916 1010 m 586 1103 q 524 1114 550 1103 q 478 1140 498 1125 q 441 1167 458 1156 q 406 1179 424 1179 q 372 1160 384 1179 q 358 1107 359 1141 l 234 1107 q 280 1255 236 1205 q 390 1304 323 1304 q 452 1293 426 1304 q 498 1267 478 1282 q 535 1241 518 1252 q 569 1230 551 1230 q 607 1248 595 1230 q 619 1300 618 1266 l 741 1300 q 695 1154 740 1204 q 586 1103 651 1103 z "},"Ŋ":{"ha":973,"x_min":57,"x_max":917,"o":"m 710 0 l 916 0 l 916 -27 q 876 -194 917 -134 q 762 -279 836 -254 q 587 -304 688 -304 q 548 -301 569 -304 q 507 -292 526 -298 l 507 -115 q 547 -121 525 -118 q 592 -123 570 -123 q 678 -100 646 -123 q 710 -32 709 -77 l 710 0 m 916 1010 l 916 0 l 710 0 l 308 583 l 300 583 l 300 0 l 57 0 l 57 1010 l 267 1010 l 665 429 l 673 429 l 673 1010 l 916 1010 z "},"O":{"ha":1056,"x_min":46,"x_max":1010,"o":"m 528 -14 q 282 47 392 -14 q 110 223 173 107 q 46 505 46 338 q 110 788 46 671 q 282 964 173 904 q 528 1024 392 1024 q 773 964 664 1024 q 946 788 882 904 q 1010 505 1010 671 q 946 222 1010 338 q 773 46 882 106 q 528 -14 664 -14 m 528 200 q 653 235 601 200 q 733 338 705 271 q 761 505 761 406 q 733 672 761 604 q 653 775 705 740 q 528 810 601 810 q 404 775 456 810 q 323 672 351 740 q 295 505 295 604 q 323 338 295 406 q 404 235 351 271 q 528 200 456 200 z "},"Ƣ":{"ha":1291,"x_min":46,"x_max":1234,"o":"m 897 627 l 897 123 q 814 60 869 92 q 681 7 758 28 q 508 -14 604 -14 q 313 19 398 -14 q 168 113 227 51 q 77 264 109 175 q 46 467 46 353 l 46 529 l 290 530 l 290 467 q 312 314 290 379 q 382 213 333 249 q 517 177 432 178 q 606 190 568 178 q 665 218 644 202 l 665 627 l 897 627 m 897 887 l 897 391 l 665 388 l 665 793 q 601 823 640 813 q 519 832 561 832 q 380 799 430 833 q 311 701 331 765 q 290 544 290 637 l 290 472 l 46 473 l 46 544 q 77 747 46 658 q 168 898 109 836 q 314 992 228 960 q 510 1024 400 1024 q 683 1003 606 1024 q 815 950 760 982 q 897 887 869 919 m 1234 1010 l 1234 -283 l 1005 -283 l 1005 726 l 768 615 l 768 873 l 1061 1010 l 1234 1010 z "},"Ó":{"ha":1056,"x_min":46,"x_max":1010,"o":"m 528 -14 q 282 47 392 -14 q 110 223 173 107 q 46 505 46 338 q 110 788 46 671 q 282 964 173 904 q 528 1024 392 1024 q 773 964 664 1024 q 946 788 882 904 q 1010 505 1010 671 q 946 222 1010 338 q 773 46 882 106 q 528 -14 664 -14 m 528 200 q 653 235 601 200 q 733 338 705 271 q 761 505 761 406 q 733 672 761 604 q 653 775 705 740 q 528 810 601 810 q 404 775 456 810 q 323 672 351 740 q 295 505 295 604 q 323 338 295 406 q 404 235 351 271 q 528 200 456 200 m 444 1104 l 538 1318 l 751 1318 l 606 1104 l 444 1104 z "},"Ɵ":{"ha":1056,"x_min":46,"x_max":1010,"o":"m 846 579 l 846 431 l 211 431 l 211 579 l 846 579 m 528 -14 q 282 47 392 -14 q 110 223 173 107 q 46 505 46 338 q 110 788 46 671 q 282 964 173 904 q 528 1024 392 1024 q 773 964 664 1024 q 946 788 882 904 q 1010 505 1010 671 q 946 222 1010 338 q 773 46 882 106 q 528 -14 664 -14 m 528 200 q 653 235 601 200 q 733 338 705 271 q 761 505 761 406 q 733 672 761 604 q 653 775 705 740 q 528 810 601 810 q 404 775 456 810 q 323 672 351 740 q 295 505 295 604 q 323 338 295 406 q 404 235 351 271 q 528 200 456 200 z "},"Ŏ":{"ha":1056,"x_min":46,"x_max":1010,"o":"m 528 -14 q 282 47 392 -14 q 110 223 173 107 q 46 505 46 338 q 110 788 46 671 q 282 964 173 904 q 528 1024 392 1024 q 773 964 664 1024 q 946 788 882 904 q 1010 505 1010 671 q 946 222 1010 338 q 773 46 882 106 q 528 -14 664 -14 m 528 200 q 653 235 601 200 q 733 338 705 271 q 761 505 761 406 q 733 672 761 604 q 653 775 705 740 q 528 810 601 810 q 404 775 456 810 q 323 672 351 740 q 295 505 295 604 q 323 338 295 406 q 404 235 351 271 q 528 200 456 200 m 528 1094 q 342 1153 414 1094 q 271 1306 271 1211 l 429 1306 q 455 1241 429 1265 q 528 1217 481 1217 q 600 1241 574 1217 q 627 1306 627 1265 l 786 1306 q 715 1153 786 1211 q 528 1094 644 1094 z "},"Ǒ":{"ha":1056,"x_min":46,"x_max":1010,"o":"m 528 -14 q 282 47 392 -14 q 110 223 173 107 q 46 505 46 338 q 110 788 46 671 q 282 964 173 904 q 528 1024 392 1024 q 773 964 664 1024 q 946 788 882 904 q 1010 505 1010 671 q 946 222 1010 338 q 773 46 882 106 q 528 -14 664 -14 m 528 200 q 653 235 601 200 q 733 338 705 271 q 761 505 761 406 q 733 672 761 604 q 653 775 705 740 q 528 810 601 810 q 404 775 456 810 q 323 672 351 740 q 295 505 295 604 q 323 338 295 406 q 404 235 351 271 q 528 200 456 200 m 430 1329 l 528 1214 l 625 1329 l 827 1329 l 827 1321 l 614 1100 l 441 1100 l 228 1321 l 228 1329 l 430 1329 z "},"Ô":{"ha":1056,"x_min":46,"x_max":1010,"o":"m 528 -14 q 282 47 392 -14 q 110 223 173 107 q 46 505 46 338 q 110 788 46 671 q 282 964 173 904 q 528 1024 392 1024 q 773 964 664 1024 q 946 788 882 904 q 1010 505 1010 671 q 946 222 1010 338 q 773 46 882 106 q 528 -14 664 -14 m 528 200 q 653 235 601 200 q 733 338 705 271 q 761 505 761 406 q 733 672 761 604 q 653 775 705 740 q 528 810 601 810 q 404 775 456 810 q 323 672 351 740 q 295 505 295 604 q 323 338 295 406 q 404 235 351 271 q 528 200 456 200 m 625 1100 l 528 1215 l 431 1100 l 228 1100 l 228 1107 l 441 1329 l 614 1329 l 827 1107 l 827 1100 l 625 1100 z "},"Ố":{"ha":1056,"x_min":46,"x_max":1023,"o":"m 528 -14 q 282 47 392 -14 q 110 223 173 107 q 46 505 46 338 q 110 788 46 671 q 282 964 173 904 q 528 1024 392 1024 q 773 964 664 1024 q 946 788 882 904 q 1010 505 1010 671 q 946 222 1010 338 q 773 46 882 106 q 528 -14 664 -14 m 528 200 q 653 235 601 200 q 733 338 705 271 q 761 505 761 406 q 733 672 761 604 q 653 775 705 740 q 528 810 601 810 q 404 775 456 810 q 323 672 351 740 q 295 505 295 604 q 323 338 295 406 q 404 235 351 271 q 528 200 456 200 m 271 1089 l 468 1233 l 583 1233 l 783 1089 l 629 1089 l 527 1165 l 424 1089 l 271 1089 m 731 1165 l 854 1352 l 1022 1352 l 856 1165 l 731 1165 z "},"Ộ":{"ha":1056,"x_min":46,"x_max":1010,"o":"m 528 -14 q 282 47 392 -14 q 110 223 173 107 q 46 505 46 338 q 110 788 46 671 q 282 964 173 904 q 528 1024 392 1024 q 773 964 664 1024 q 946 788 882 904 q 1010 505 1010 671 q 946 222 1010 338 q 773 46 882 106 q 528 -14 664 -14 m 528 200 q 653 235 601 200 q 733 338 705 271 q 761 505 761 406 q 733 672 761 604 q 653 775 705 740 q 528 810 601 810 q 404 775 456 810 q 323 672 351 740 q 295 505 295 604 q 323 338 295 406 q 404 235 351 271 q 528 200 456 200 m 625 1100 l 528 1215 l 431 1100 l 228 1100 l 228 1107 l 441 1329 l 614 1329 l 827 1107 l 827 1100 l 625 1100 m 528 -295 q 440 -261 477 -295 q 404 -180 404 -227 q 440 -98 404 -132 q 528 -64 477 -64 q 615 -98 579 -64 q 652 -180 652 -132 q 615 -261 652 -227 q 528 -295 579 -295 z "},"Ồ":{"ha":1056,"x_min":33,"x_max":1010,"o":"m 528 -14 q 282 47 392 -14 q 110 223 173 107 q 46 505 46 338 q 110 788 46 671 q 282 964 173 904 q 528 1024 392 1024 q 773 964 664 1024 q 946 788 882 904 q 1010 505 1010 671 q 946 222 1010 338 q 773 46 882 106 q 528 -14 664 -14 m 528 200 q 653 235 601 200 q 733 338 705 271 q 761 505 761 406 q 733 672 761 604 q 653 775 705 740 q 528 810 601 810 q 404 775 456 810 q 323 672 351 740 q 295 505 295 604 q 323 338 295 406 q 404 235 351 271 q 528 200 456 200 m 585 1230 l 785 1086 l 629 1086 l 528 1162 l 425 1086 l 271 1086 l 469 1230 l 585 1230 m 200 1348 l 323 1162 l 201 1162 l 34 1348 l 200 1348 z "},"Ổ":{"ha":1056,"x_min":46,"x_max":1010,"o":"m 528 -14 q 282 47 392 -14 q 110 223 173 107 q 46 505 46 338 q 110 788 46 671 q 282 964 173 904 q 528 1024 392 1024 q 773 964 664 1024 q 946 788 882 904 q 1010 505 1010 671 q 946 222 1010 338 q 773 46 882 106 q 528 -14 664 -14 m 528 200 q 653 235 601 200 q 733 338 705 271 q 761 505 761 406 q 733 672 761 604 q 653 775 705 740 q 528 810 601 810 q 404 775 456 810 q 323 672 351 740 q 295 505 295 604 q 323 338 295 406 q 404 235 351 271 q 528 200 456 200 m 584 1230 l 781 1086 l 629 1086 l 528 1160 l 423 1086 l 271 1086 l 468 1230 l 584 1230 m 833 1169 l 716 1169 l 703 1238 q 765 1249 747 1240 q 785 1274 784 1259 q 761 1303 784 1296 q 703 1310 738 1310 l 708 1394 q 867 1365 812 1394 q 922 1282 922 1336 q 895 1228 922 1248 q 833 1203 867 1208 l 833 1169 z "},"Ỗ":{"ha":1056,"x_min":46,"x_max":1010,"o":"m 528 -14 q 282 47 392 -14 q 110 223 173 107 q 46 505 46 338 q 110 788 46 671 q 282 964 173 904 q 528 1024 392 1024 q 773 964 664 1024 q 946 788 882 904 q 1010 505 1010 671 q 946 222 1010 338 q 773 46 882 106 q 528 -14 664 -14 m 528 200 q 653 235 601 200 q 733 338 705 271 q 761 505 761 406 q 733 672 761 604 q 653 775 705 740 q 528 810 601 810 q 404 775 456 810 q 323 672 351 740 q 295 505 295 604 q 323 338 295 406 q 404 235 351 271 q 528 200 456 200 m 588 1235 l 784 1089 l 631 1089 l 528 1165 l 427 1089 l 272 1089 l 469 1235 l 588 1235 m 631 1401 l 709 1373 q 687 1299 710 1333 q 623 1265 664 1266 q 580 1272 600 1265 q 542 1288 560 1279 q 507 1302 524 1296 q 471 1309 490 1309 q 449 1295 456 1309 q 442 1262 442 1281 l 366 1284 q 388 1355 365 1322 q 452 1389 411 1388 q 502 1378 476 1389 q 554 1358 528 1368 q 604 1347 581 1348 q 624 1365 617 1348 q 631 1401 631 1382 z "},"Ȍ":{"ha":1056,"x_min":46,"x_max":1010,"o":"m 528 -14 q 282 47 392 -14 q 110 223 173 107 q 46 505 46 338 q 110 788 46 671 q 282 964 173 904 q 528 1024 392 1024 q 773 964 664 1024 q 946 788 882 904 q 1010 505 1010 671 q 946 222 1010 338 q 773 46 882 106 q 528 -14 664 -14 m 528 200 q 653 235 601 200 q 733 338 705 271 q 761 505 761 406 q 733 672 761 604 q 653 775 705 740 q 528 810 601 810 q 404 775 456 810 q 323 672 351 740 q 295 505 295 604 q 323 338 295 406 q 404 235 351 271 q 528 200 456 200 m 326 1105 l 176 1329 l 391 1329 l 491 1105 l 326 1105 m 583 1105 l 481 1329 l 687 1329 l 742 1105 l 583 1105 z "},"Ö":{"ha":1056,"x_min":46,"x_max":1010,"o":"m 528 -14 q 282 47 392 -14 q 110 223 173 107 q 46 505 46 338 q 110 788 46 671 q 282 964 173 904 q 528 1024 392 1024 q 773 964 664 1024 q 946 788 882 904 q 1010 505 1010 671 q 946 222 1010 338 q 773 46 882 106 q 528 -14 664 -14 m 528 200 q 653 235 601 200 q 733 338 705 271 q 761 505 761 406 q 733 672 761 604 q 653 775 705 740 q 528 810 601 810 q 404 775 456 810 q 323 672 351 740 q 295 505 295 604 q 323 338 295 406 q 404 235 351 271 q 528 200 456 200 m 374 1106 q 295 1138 328 1106 q 262 1213 262 1169 q 295 1290 262 1259 q 374 1321 328 1320 q 452 1290 420 1320 q 485 1213 485 1259 q 452 1138 485 1169 q 374 1106 420 1106 m 682 1106 q 603 1138 635 1106 q 570 1213 570 1169 q 603 1290 570 1259 q 682 1321 635 1320 q 760 1290 728 1320 q 792 1213 792 1259 q 760 1138 792 1169 q 682 1106 728 1106 z "},"Ọ":{"ha":1056,"x_min":46,"x_max":1010,"o":"m 528 -14 q 282 47 392 -14 q 110 223 173 107 q 46 505 46 338 q 110 788 46 671 q 282 964 173 904 q 528 1024 392 1024 q 773 964 664 1024 q 946 788 882 904 q 1010 505 1010 671 q 946 222 1010 338 q 773 46 882 106 q 528 -14 664 -14 m 528 200 q 653 235 601 200 q 733 338 705 271 q 761 505 761 406 q 733 672 761 604 q 653 775 705 740 q 528 810 601 810 q 404 775 456 810 q 323 672 351 740 q 295 505 295 604 q 323 338 295 406 q 404 235 351 271 q 528 200 456 200 m 528 -296 q 440 -262 477 -296 q 404 -180 404 -228 q 440 -98 404 -132 q 528 -64 477 -64 q 615 -98 579 -64 q 652 -180 652 -132 q 615 -262 652 -228 q 528 -296 579 -296 z "},"Ò":{"ha":1056,"x_min":46,"x_max":1010,"o":"m 528 -14 q 282 47 392 -14 q 110 223 173 107 q 46 505 46 338 q 110 788 46 671 q 282 964 173 904 q 528 1024 392 1024 q 773 964 664 1024 q 946 788 882 904 q 1010 505 1010 671 q 946 222 1010 338 q 773 46 882 106 q 528 -14 664 -14 m 528 200 q 653 235 601 200 q 733 338 705 271 q 761 505 761 406 q 733 672 761 604 q 653 775 705 740 q 528 810 601 810 q 404 775 456 810 q 323 672 351 740 q 295 505 295 604 q 323 338 295 406 q 404 235 351 271 q 528 200 456 200 m 450 1104 l 306 1318 l 517 1318 l 612 1104 l 450 1104 z "},"Ỏ":{"ha":1056,"x_min":46,"x_max":1010,"o":"m 528 -14 q 282 47 392 -14 q 110 223 173 107 q 46 505 46 338 q 110 788 46 671 q 282 964 173 904 q 528 1024 392 1024 q 773 964 664 1024 q 946 788 882 904 q 1010 505 1010 671 q 946 222 1010 338 q 773 46 882 106 q 528 -14 664 -14 m 528 200 q 653 235 601 200 q 733 338 705 271 q 761 505 761 406 q 733 672 761 604 q 653 775 705 740 q 528 810 601 810 q 404 775 456 810 q 323 672 351 740 q 295 505 295 604 q 323 338 295 406 q 404 235 351 271 q 528 200 456 200 m 614 1120 l 438 1120 l 424 1203 q 499 1216 477 1204 q 521 1246 522 1228 q 494 1281 522 1273 q 425 1289 466 1289 l 431 1391 q 646 1356 572 1391 q 720 1256 720 1320 q 687 1191 720 1213 q 614 1161 654 1168 l 614 1120 z "},"Ơ":{"ha":1056,"x_min":46,"x_max":1104,"o":"m 859 734 l 851 844 q 941 895 918 844 q 964 1039 964 945 l 1104 1039 q 1045 815 1104 894 q 859 734 986 736 m 528 -14 q 282 47 392 -14 q 110 223 173 107 q 46 505 46 338 q 110 788 46 671 q 282 964 173 904 q 528 1024 392 1024 q 773 964 664 1024 q 946 788 882 904 q 1010 505 1010 671 q 946 222 1010 338 q 773 46 882 106 q 528 -14 664 -14 m 528 200 q 653 235 601 200 q 733 338 705 271 q 761 505 761 406 q 733 672 761 604 q 653 775 705 740 q 528 810 601 810 q 404 775 456 810 q 323 672 351 740 q 295 505 295 604 q 323 338 295 406 q 404 235 351 271 q 528 200 456 200 z "},"Ớ":{"ha":1056,"x_min":46,"x_max":1104,"o":"m 859 734 l 851 844 q 941 895 918 844 q 964 1039 964 945 l 1104 1039 q 1045 815 1104 894 q 859 734 986 736 m 528 -14 q 282 47 392 -14 q 110 223 173 107 q 46 505 46 338 q 110 788 46 671 q 282 964 173 904 q 528 1024 392 1024 q 773 964 664 1024 q 946 788 882 904 q 1010 505 1010 671 q 946 222 1010 338 q 773 46 882 106 q 528 -14 664 -14 m 528 200 q 653 235 601 200 q 733 338 705 271 q 761 505 761 406 q 733 672 761 604 q 653 775 705 740 q 528 810 601 810 q 404 775 456 810 q 323 672 351 740 q 295 505 295 604 q 323 338 295 406 q 404 235 351 271 q 528 200 456 200 m 444 1104 l 538 1318 l 751 1318 l 606 1104 l 444 1104 z "},"Ợ":{"ha":1056,"x_min":46,"x_max":1104,"o":"m 859 734 l 851 844 q 941 895 918 844 q 964 1039 964 945 l 1104 1039 q 1045 815 1104 894 q 859 734 986 736 m 528 -14 q 282 47 392 -14 q 110 223 173 107 q 46 505 46 338 q 110 788 46 671 q 282 964 173 904 q 528 1024 392 1024 q 773 964 664 1024 q 946 788 882 904 q 1010 505 1010 671 q 946 222 1010 338 q 773 46 882 106 q 528 -14 664 -14 m 528 200 q 653 235 601 200 q 733 338 705 271 q 761 505 761 406 q 733 672 761 604 q 653 775 705 740 q 528 810 601 810 q 404 775 456 810 q 323 672 351 740 q 295 505 295 604 q 323 338 295 406 q 404 235 351 271 q 528 200 456 200 m 528 -296 q 440 -262 477 -296 q 404 -180 404 -228 q 440 -98 404 -132 q 528 -64 477 -64 q 615 -98 579 -64 q 652 -180 652 -132 q 615 -262 652 -228 q 528 -296 579 -296 z "},"Ờ":{"ha":1056,"x_min":46,"x_max":1104,"o":"m 859 734 l 851 844 q 941 895 918 844 q 964 1039 964 945 l 1104 1039 q 1045 815 1104 894 q 859 734 986 736 m 528 -14 q 282 47 392 -14 q 110 223 173 107 q 46 505 46 338 q 110 788 46 671 q 282 964 173 904 q 528 1024 392 1024 q 773 964 664 1024 q 946 788 882 904 q 1010 505 1010 671 q 946 222 1010 338 q 773 46 882 106 q 528 -14 664 -14 m 528 200 q 653 235 601 200 q 733 338 705 271 q 761 505 761 406 q 733 672 761 604 q 653 775 705 740 q 528 810 601 810 q 404 775 456 810 q 323 672 351 740 q 295 505 295 604 q 323 338 295 406 q 404 235 351 271 q 528 200 456 200 m 450 1104 l 306 1318 l 517 1318 l 612 1104 l 450 1104 z "},"Ở":{"ha":1056,"x_min":46,"x_max":1104,"o":"m 859 734 l 851 844 q 941 895 918 844 q 964 1039 964 945 l 1104 1039 q 1045 815 1104 894 q 859 734 986 736 m 528 -14 q 282 47 392 -14 q 110 223 173 107 q 46 505 46 338 q 110 788 46 671 q 282 964 173 904 q 528 1024 392 1024 q 773 964 664 1024 q 946 788 882 904 q 1010 505 1010 671 q 946 222 1010 338 q 773 46 882 106 q 528 -14 664 -14 m 528 200 q 653 235 601 200 q 733 338 705 271 q 761 505 761 406 q 733 672 761 604 q 653 775 705 740 q 528 810 601 810 q 404 775 456 810 q 323 672 351 740 q 295 505 295 604 q 323 338 295 406 q 404 235 351 271 q 528 200 456 200 m 614 1120 l 438 1120 l 424 1203 q 499 1216 477 1204 q 521 1246 522 1228 q 494 1281 522 1273 q 425 1289 466 1289 l 431 1391 q 646 1356 572 1391 q 720 1256 720 1320 q 687 1191 720 1213 q 614 1161 654 1168 l 614 1120 z "},"Ỡ":{"ha":1056,"x_min":46,"x_max":1104,"o":"m 859 734 l 851 844 q 941 895 918 844 q 964 1039 964 945 l 1104 1039 q 1045 815 1104 894 q 859 734 986 736 m 528 -14 q 282 47 392 -14 q 110 223 173 107 q 46 505 46 338 q 110 788 46 671 q 282 964 173 904 q 528 1024 392 1024 q 773 964 664 1024 q 946 788 882 904 q 1010 505 1010 671 q 946 222 1010 338 q 773 46 882 106 q 528 -14 664 -14 m 528 200 q 653 235 601 200 q 733 338 705 271 q 761 505 761 406 q 733 672 761 604 q 653 775 705 740 q 528 810 601 810 q 404 775 456 810 q 323 672 351 740 q 295 505 295 604 q 323 338 295 406 q 404 235 351 271 q 528 200 456 200 m 626 1103 q 564 1114 590 1103 q 518 1140 538 1125 q 481 1167 498 1156 q 446 1179 464 1179 q 412 1160 424 1179 q 398 1107 399 1141 l 274 1107 q 320 1255 276 1205 q 430 1304 363 1304 q 492 1293 466 1304 q 538 1267 518 1282 q 575 1241 558 1252 q 609 1230 591 1230 q 647 1248 635 1230 q 659 1300 658 1266 l 781 1300 q 735 1154 780 1204 q 626 1103 691 1103 z "},"Ő":{"ha":1056,"x_min":46,"x_max":1010,"o":"m 528 -14 q 282 47 392 -14 q 110 223 173 107 q 46 505 46 338 q 110 788 46 671 q 282 964 173 904 q 528 1024 392 1024 q 773 964 664 1024 q 946 788 882 904 q 1010 505 1010 671 q 946 222 1010 338 q 773 46 882 106 q 528 -14 664 -14 m 528 200 q 653 235 601 200 q 733 338 705 271 q 761 505 761 406 q 733 672 761 604 q 653 775 705 740 q 528 810 601 810 q 404 775 456 810 q 323 672 351 740 q 295 505 295 604 q 323 338 295 406 q 404 235 351 271 q 528 200 456 200 m 566 1100 l 725 1302 l 918 1302 l 731 1100 l 566 1100 m 298 1100 l 436 1302 l 629 1302 l 463 1100 l 298 1100 z "},"Ȏ":{"ha":1056,"x_min":46,"x_max":1010,"o":"m 528 -14 q 282 47 392 -14 q 110 223 173 107 q 46 505 46 338 q 110 788 46 671 q 282 964 173 904 q 528 1024 392 1024 q 773 964 664 1024 q 946 788 882 904 q 1010 505 1010 671 q 946 222 1010 338 q 773 46 882 106 q 528 -14 664 -14 m 528 200 q 653 235 601 200 q 733 338 705 271 q 761 505 761 406 q 733 672 761 604 q 653 775 705 740 q 528 810 601 810 q 404 775 456 810 q 323 672 351 740 q 295 505 295 604 q 323 338 295 406 q 404 235 351 271 q 528 200 456 200 m 271 1104 q 342 1258 271 1200 q 528 1317 414 1317 q 715 1258 644 1317 q 786 1104 786 1200 l 627 1104 q 600 1170 627 1145 q 528 1194 574 1194 q 455 1170 481 1194 q 429 1104 429 1145 l 271 1104 z "},"Ō":{"ha":1056,"x_min":46,"x_max":1010,"o":"m 528 -14 q 282 47 392 -14 q 110 223 173 107 q 46 505 46 338 q 110 788 46 671 q 282 964 173 904 q 528 1024 392 1024 q 773 964 664 1024 q 946 788 882 904 q 1010 505 1010 671 q 946 222 1010 338 q 773 46 882 106 q 528 -14 664 -14 m 528 200 q 653 235 601 200 q 733 338 705 271 q 761 505 761 406 q 733 672 761 604 q 653 775 705 740 q 528 810 601 810 q 404 775 456 810 q 323 672 351 740 q 295 505 295 604 q 323 338 295 406 q 404 235 351 271 q 528 200 456 200 m 772 1263 l 772 1143 l 284 1143 l 284 1263 l 772 1263 z "},"Ṓ":{"ha":1056,"x_min":46,"x_max":1010,"o":"m 528 -14 q 282 47 392 -14 q 110 223 173 107 q 46 505 46 338 q 110 788 46 671 q 282 964 173 904 q 528 1024 392 1024 q 773 964 664 1024 q 946 788 882 904 q 1010 505 1010 671 q 946 222 1010 338 q 773 46 882 106 q 528 -14 664 -14 m 528 200 q 653 235 601 200 q 733 338 705 271 q 761 505 761 406 q 733 672 761 604 q 653 775 705 740 q 528 810 601 810 q 404 775 456 810 q 323 672 351 740 q 295 505 295 604 q 323 338 295 406 q 404 235 351 271 q 528 200 456 200 m 434 1331 l 569 1514 l 774 1514 l 605 1331 l 434 1331 m 773 1242 l 773 1122 l 286 1122 l 286 1242 l 773 1242 z "},"Ṑ":{"ha":1056,"x_min":46,"x_max":1010,"o":"m 528 -14 q 282 47 392 -14 q 110 223 173 107 q 46 505 46 338 q 110 788 46 671 q 282 964 173 904 q 528 1024 392 1024 q 773 964 664 1024 q 946 788 882 904 q 1010 505 1010 671 q 946 222 1010 338 q 773 46 882 106 q 528 -14 664 -14 m 528 200 q 653 235 601 200 q 733 338 705 271 q 761 505 761 406 q 733 672 761 604 q 653 775 705 740 q 528 810 601 810 q 404 775 456 810 q 323 672 351 740 q 295 505 295 604 q 323 338 295 406 q 404 235 351 271 q 528 200 456 200 m 451 1331 l 281 1514 l 488 1514 l 623 1331 l 451 1331 m 772 1242 l 772 1122 l 284 1122 l 284 1242 l 772 1242 z "},"Ǫ":{"ha":1056,"x_min":46,"x_max":1010,"o":"m 528 -14 q 282 47 392 -14 q 110 223 173 107 q 46 505 46 338 q 110 788 46 671 q 282 964 173 904 q 528 1024 392 1024 q 773 964 664 1024 q 946 788 882 904 q 1010 505 1010 671 q 946 222 1010 338 q 773 46 882 106 q 528 -14 664 -14 m 528 200 q 653 235 601 200 q 733 338 705 271 q 761 505 761 406 q 733 672 761 604 q 653 775 705 740 q 528 810 601 810 q 404 775 456 810 q 323 672 351 740 q 295 505 295 604 q 323 338 295 406 q 404 235 351 271 q 528 200 456 200 m 564 -275 q 451 -242 496 -275 q 391 -145 406 -208 q 386 -62 380 -104 q 413 15 391 -20 q 471 64 434 49 l 661 3 q 586 -37 614 -16 q 559 -90 559 -58 q 572 -128 559 -115 q 606 -141 585 -141 q 632 -137 621 -141 q 652 -131 643 -133 l 679 -245 q 631 -266 660 -256 q 564 -275 602 -275 z "},"Ǭ":{"ha":1056,"x_min":46,"x_max":1010,"o":"m 528 -14 q 282 47 392 -14 q 110 223 173 107 q 46 505 46 338 q 110 788 46 671 q 282 964 173 904 q 528 1024 392 1024 q 773 964 664 1024 q 946 788 882 904 q 1010 505 1010 671 q 946 222 1010 338 q 773 46 882 106 q 528 -14 664 -14 m 528 200 q 653 235 601 200 q 733 338 705 271 q 761 505 761 406 q 733 672 761 604 q 653 775 705 740 q 528 810 601 810 q 404 775 456 810 q 323 672 351 740 q 295 505 295 604 q 323 338 295 406 q 404 235 351 271 q 528 200 456 200 m 564 -275 q 451 -242 496 -275 q 391 -145 406 -208 q 386 -62 380 -104 q 413 15 391 -20 q 471 64 434 49 l 661 3 q 586 -37 614 -16 q 559 -90 559 -58 q 572 -128 559 -115 q 606 -141 585 -141 q 632 -137 621 -141 q 652 -131 643 -133 l 679 -245 q 631 -266 660 -256 q 564 -275 602 -275 m 772 1263 l 772 1143 l 284 1143 l 284 1263 l 772 1263 z "},"Ɔ":{"ha":1017,"x_min":43,"x_max":971,"o":"m 492 1024 q 738 964 629 1024 q 908 788 846 903 q 971 506 971 673 q 907 223 971 339 q 735 47 844 107 q 492 -14 627 -14 q 323 12 401 -14 q 185 86 245 37 q 89 205 125 135 q 43 367 53 276 l 290 367 q 310 298 294 329 q 351 245 326 267 q 410 212 376 224 q 486 200 444 200 q 612 236 559 200 q 693 341 665 273 q 722 506 722 409 q 693 674 722 606 q 612 776 665 742 q 487 810 559 810 q 414 800 447 810 q 355 769 380 789 q 313 721 329 749 q 290 655 297 692 l 43 655 q 82 788 50 722 q 171 907 114 854 q 308 992 227 960 q 492 1024 388 1024 z "},"Ø":{"ha":1056,"x_min":46,"x_max":1010,"o":"m 214 -51 l 111 19 l 842 1059 l 945 989 l 214 -51 m 528 -14 q 282 47 392 -14 q 110 223 173 107 q 46 505 46 338 q 110 788 46 671 q 282 964 173 904 q 528 1024 392 1024 q 773 964 664 1024 q 946 788 882 904 q 1010 505 1010 671 q 946 222 1010 338 q 773 46 882 106 q 528 -14 664 -14 m 528 200 q 653 235 601 200 q 733 338 705 271 q 761 505 761 406 q 733 672 761 604 q 653 775 705 740 q 528 810 601 810 q 404 775 456 810 q 323 672 351 740 q 295 505 295 604 q 323 338 295 406 q 404 235 351 271 q 528 200 456 200 z "},"Ǿ":{"ha":1056,"x_min":46,"x_max":1010,"o":"m 214 -51 l 111 19 l 842 1059 l 945 989 l 214 -51 m 528 -14 q 282 47 392 -14 q 110 223 173 107 q 46 505 46 338 q 110 788 46 671 q 282 964 173 904 q 528 1024 392 1024 q 773 964 664 1024 q 946 788 882 904 q 1010 505 1010 671 q 946 222 1010 338 q 773 46 882 106 q 528 -14 664 -14 m 528 200 q 653 235 601 200 q 733 338 705 271 q 761 505 761 406 q 733 672 761 604 q 653 775 705 740 q 528 810 601 810 q 404 775 456 810 q 323 672 351 740 q 295 505 295 604 q 323 338 295 406 q 404 235 351 271 q 528 200 456 200 m 444 1104 l 538 1318 l 751 1318 l 606 1104 l 444 1104 z "},"Õ":{"ha":1056,"x_min":46,"x_max":1010,"o":"m 528 -14 q 282 47 392 -14 q 110 223 173 107 q 46 505 46 338 q 110 788 46 671 q 282 964 173 904 q 528 1024 392 1024 q 773 964 664 1024 q 946 788 882 904 q 1010 505 1010 671 q 946 222 1010 338 q 773 46 882 106 q 528 -14 664 -14 m 528 200 q 653 235 601 200 q 733 338 705 271 q 761 505 761 406 q 733 672 761 604 q 653 775 705 740 q 528 810 601 810 q 404 775 456 810 q 323 672 351 740 q 295 505 295 604 q 323 338 295 406 q 404 235 351 271 q 528 200 456 200 m 626 1108 q 564 1119 590 1108 q 518 1146 538 1131 q 481 1173 498 1161 q 446 1184 464 1184 q 412 1165 424 1184 q 398 1113 399 1146 l 274 1113 q 320 1260 276 1211 q 430 1310 363 1310 q 492 1298 466 1310 q 538 1272 518 1287 q 575 1246 558 1257 q 609 1235 591 1235 q 647 1253 635 1235 q 659 1305 658 1272 l 781 1305 q 735 1159 780 1210 q 626 1108 691 1108 z "},"Ṍ":{"ha":1056,"x_min":46,"x_max":1010,"o":"m 528 -14 q 282 47 392 -14 q 110 223 173 107 q 46 505 46 338 q 110 788 46 671 q 282 964 173 904 q 528 1024 392 1024 q 773 964 664 1024 q 946 788 882 904 q 1010 505 1010 671 q 946 222 1010 338 q 773 46 882 106 q 528 -14 664 -14 m 528 200 q 653 235 601 200 q 733 338 705 271 q 761 505 761 406 q 733 672 761 604 q 653 775 705 740 q 528 810 601 810 q 404 775 456 810 q 323 672 351 740 q 295 505 295 604 q 323 338 295 406 q 404 235 351 271 q 528 200 456 200 m 429 1333 l 562 1516 l 768 1516 l 595 1333 l 429 1333 m 621 1092 q 563 1102 587 1092 q 519 1126 538 1113 q 484 1150 500 1140 q 451 1160 468 1160 q 418 1143 430 1160 q 406 1097 407 1126 l 289 1097 q 332 1229 291 1184 q 436 1274 372 1274 q 494 1264 469 1274 q 538 1240 519 1253 q 573 1217 557 1227 q 605 1206 589 1206 q 641 1223 630 1206 q 652 1270 651 1240 l 768 1270 q 724 1138 766 1183 q 621 1092 682 1092 z "},"Ṏ":{"ha":1056,"x_min":46,"x_max":1010,"o":"m 528 -14 q 282 47 392 -14 q 110 223 173 107 q 46 505 46 338 q 110 788 46 671 q 282 964 173 904 q 528 1024 392 1024 q 773 964 664 1024 q 946 788 882 904 q 1010 505 1010 671 q 946 222 1010 338 q 773 46 882 106 q 528 -14 664 -14 m 528 200 q 653 235 601 200 q 733 338 705 271 q 761 505 761 406 q 733 672 761 604 q 653 775 705 740 q 528 810 601 810 q 404 775 456 810 q 323 672 351 740 q 295 505 295 604 q 323 338 295 406 q 404 235 351 271 q 528 200 456 200 m 643 1257 l 739 1230 q 706 1144 738 1181 q 625 1108 673 1107 q 560 1119 587 1108 q 510 1140 534 1129 q 456 1151 486 1152 q 425 1134 437 1152 q 412 1093 412 1117 l 319 1120 q 350 1205 319 1168 q 432 1243 380 1243 q 490 1232 462 1243 q 545 1211 517 1221 q 601 1200 572 1200 q 630 1217 618 1200 q 643 1257 643 1234 m 279 1379 q 307 1439 279 1415 q 378 1463 334 1463 q 451 1439 422 1463 q 481 1379 480 1415 q 452 1322 480 1345 q 378 1299 423 1299 q 307 1322 335 1299 q 279 1379 279 1345 m 575 1379 q 603 1439 574 1415 q 676 1463 631 1463 q 748 1439 720 1463 q 777 1379 776 1415 q 748 1322 776 1345 q 676 1299 720 1299 q 603 1322 631 1299 q 575 1379 574 1345 z "},"Œ":{"ha":1402,"x_min":46,"x_max":1345,"o":"m 536 0 q 277 61 387 0 q 106 235 166 122 q 46 505 46 349 q 106 775 46 661 q 278 949 166 888 q 540 1010 389 1010 l 783 1010 l 783 802 l 552 802 q 410 773 469 802 q 321 679 352 744 q 290 505 290 613 q 320 332 290 397 q 408 237 351 267 q 545 208 465 208 l 780 208 l 780 0 l 536 0 m 641 0 l 641 1010 l 1345 1010 l 1345 812 l 884 812 l 884 608 l 1309 608 l 1309 414 l 884 414 l 884 199 l 1345 199 l 1345 0 l 641 0 z "},"P":{"ha":867,"x_min":57,"x_max":843,"o":"m 57 0 l 57 1010 l 473 1010 q 670 966 587 1010 q 798 843 753 922 q 843 660 843 764 q 797 477 843 555 q 667 356 751 399 q 467 313 582 313 l 209 313 l 209 506 l 421 506 q 514 525 476 506 q 571 579 551 545 q 590 660 590 614 q 571 742 590 707 q 514 794 551 776 q 420 813 476 813 l 300 813 l 300 0 l 57 0 z "},"Ṕ":{"ha":867,"x_min":57,"x_max":843,"o":"m 57 0 l 57 1010 l 473 1010 q 670 966 587 1010 q 798 843 753 922 q 843 660 843 764 q 797 477 843 555 q 667 356 751 399 q 467 313 582 313 l 209 313 l 209 506 l 421 506 q 514 525 476 506 q 571 579 551 545 q 590 660 590 614 q 571 742 590 707 q 514 794 551 776 q 420 813 476 813 l 300 813 l 300 0 l 57 0 m 342 1104 l 435 1318 l 648 1318 l 504 1104 l 342 1104 z "},"Ṗ":{"ha":867,"x_min":57,"x_max":843,"o":"m 57 0 l 57 1010 l 473 1010 q 670 966 587 1010 q 798 843 753 922 q 843 660 843 764 q 797 477 843 555 q 667 356 751 399 q 467 313 582 313 l 209 313 l 209 506 l 421 506 q 514 525 476 506 q 571 579 551 545 q 590 660 590 614 q 571 742 590 707 q 514 794 551 776 q 420 813 476 813 l 300 813 l 300 0 l 57 0 m 425 1097 q 338 1131 374 1097 q 301 1213 301 1165 q 338 1295 301 1261 q 425 1329 374 1329 q 513 1295 477 1329 q 549 1213 549 1261 q 513 1131 549 1165 q 425 1097 477 1097 z "},"Ƥ":{"ha":1177,"x_min":24,"x_max":1153,"o":"m 239 621 l 24 621 l 24 730 q 110 936 24 861 q 342 1010 195 1010 l 505 1010 l 505 813 l 342 813 q 279 794 301 814 q 248 746 256 775 q 239 686 239 717 l 239 621 m 368 0 l 368 1010 l 784 1010 q 981 966 898 1010 q 1108 843 1063 922 q 1153 660 1153 764 q 1107 477 1153 555 q 977 356 1061 399 q 777 313 892 313 l 519 313 l 519 506 l 731 506 q 824 525 787 506 q 881 579 862 545 q 900 660 900 614 q 881 742 900 707 q 824 794 862 776 q 731 813 787 813 l 611 813 l 611 0 l 368 0 z "},"Þ":{"ha":911,"x_min":56,"x_max":825,"o":"m 56 1010 l 301 1010 l 301 0 l 56 0 l 56 1010 m 170 833 l 433 833 q 647 792 559 833 q 780 680 734 751 q 825 518 825 609 q 780 355 825 426 q 647 244 734 284 q 433 203 559 203 l 170 203 l 170 386 l 433 386 q 525 405 490 387 q 576 453 560 424 q 592 515 592 483 q 576 579 592 549 q 525 629 560 610 q 433 648 490 648 l 170 648 l 170 833 z "},"Q":{"ha":1058,"x_min":46,"x_max":1010,"o":"m 443 363 l 640 363 l 724 256 l 834 130 l 1004 -79 l 783 -79 l 664 62 l 594 163 l 443 363 m 528 -14 q 282 47 392 -14 q 110 223 173 107 q 46 505 46 338 q 110 788 46 671 q 282 964 173 904 q 528 1024 392 1024 q 773 964 664 1024 q 946 788 882 904 q 1010 505 1010 671 q 946 222 1010 338 q 773 46 882 106 q 528 -14 664 -14 m 528 200 q 653 235 601 200 q 733 338 705 271 q 761 505 761 406 q 733 672 761 604 q 653 775 705 740 q 528 810 601 810 q 404 775 456 810 q 323 672 351 740 q 295 505 295 604 q 323 338 295 406 q 404 235 351 271 q 528 200 456 200 z "},"Ɋ":{"ha":1136,"x_min":46,"x_max":1156,"o":"m 994 1010 l 994 -35 q 1027 -87 994 -74 q 1099 -100 1059 -100 q 1127 -98 1113 -100 q 1156 -96 1141 -97 l 1156 -277 q 1104 -281 1135 -279 q 1034 -283 1074 -284 q 924 -273 975 -283 q 835 -236 873 -263 q 775 -161 797 -210 q 753 -35 753 -112 l 753 146 l 746 146 q 639 33 709 79 q 468 -14 570 -14 q 299 26 376 -14 q 165 137 222 66 q 77 302 109 208 q 46 505 46 397 q 78 709 46 614 q 167 873 110 803 q 301 984 224 944 q 468 1024 378 1024 q 640 977 570 1024 q 746 865 709 930 l 754 865 l 754 1010 l 994 1010 m 524 200 q 652 237 602 200 q 728 342 703 273 q 753 505 754 410 q 728 669 754 600 q 651 774 702 737 q 525 811 600 811 q 400 775 452 811 q 322 670 349 739 q 296 505 296 602 q 323 339 296 408 q 401 236 350 271 q 524 200 452 200 z "},"R":{"ha":881,"x_min":57,"x_max":878,"o":"m 57 0 l 57 1010 l 473 1010 q 670 969 587 1010 q 798 853 753 928 q 843 674 843 777 q 797 496 843 569 q 667 384 751 422 q 467 346 582 346 l 203 346 l 203 538 l 421 538 q 514 553 476 538 q 571 597 551 567 q 590 674 590 627 q 571 752 590 721 q 514 798 551 783 q 420 813 476 813 l 300 813 l 300 0 l 57 0 m 610 0 l 364 462 l 625 462 l 878 0 l 610 0 z "},"Ŕ":{"ha":881,"x_min":57,"x_max":878,"o":"m 57 0 l 57 1010 l 473 1010 q 670 969 587 1010 q 798 853 753 928 q 843 674 843 777 q 797 496 843 569 q 667 384 751 422 q 467 346 582 346 l 203 346 l 203 538 l 421 538 q 514 553 476 538 q 571 597 551 567 q 590 674 590 627 q 571 752 590 721 q 514 798 551 783 q 420 813 476 813 l 300 813 l 300 0 l 57 0 m 610 0 l 364 462 l 625 462 l 878 0 l 610 0 m 350 1104 l 444 1318 l 656 1318 l 512 1104 l 350 1104 z "},"Ř":{"ha":881,"x_min":57,"x_max":878,"o":"m 57 0 l 57 1010 l 473 1010 q 670 969 587 1010 q 798 853 753 928 q 843 674 843 777 q 797 496 843 569 q 667 384 751 422 q 467 346 582 346 l 203 346 l 203 538 l 421 538 q 514 553 476 538 q 571 597 551 567 q 590 674 590 627 q 571 752 590 721 q 514 798 551 783 q 420 813 476 813 l 300 813 l 300 0 l 57 0 m 610 0 l 364 462 l 625 462 l 878 0 l 610 0 m 336 1329 l 433 1214 l 531 1329 l 733 1329 l 733 1321 l 520 1100 l 347 1100 l 134 1321 l 134 1329 l 336 1329 z "},"Ŗ":{"ha":881,"x_min":57,"x_max":878,"o":"m 57 0 l 57 1010 l 473 1010 q 670 969 587 1010 q 798 853 753 928 q 843 674 843 777 q 797 496 843 569 q 667 384 751 422 q 467 346 582 346 l 203 346 l 203 538 l 421 538 q 514 553 476 538 q 571 597 551 567 q 590 674 590 627 q 571 752 590 721 q 514 798 551 783 q 420 813 476 813 l 300 813 l 300 0 l 57 0 m 610 0 l 364 462 l 625 462 l 878 0 l 610 0 m 280 -320 l 342 -80 l 562 -80 l 446 -320 l 280 -320 z "},"Ȑ":{"ha":881,"x_min":57,"x_max":878,"o":"m 57 0 l 57 1010 l 473 1010 q 670 969 587 1010 q 798 853 753 928 q 843 674 843 777 q 797 496 843 569 q 667 384 751 422 q 467 346 582 346 l 203 346 l 203 538 l 421 538 q 514 553 476 538 q 571 597 551 567 q 590 674 590 627 q 571 752 590 721 q 514 798 551 783 q 420 813 476 813 l 300 813 l 300 0 l 57 0 m 610 0 l 364 462 l 625 462 l 878 0 l 610 0 m 232 1105 l 81 1329 l 297 1329 l 397 1105 l 232 1105 m 489 1105 l 387 1329 l 593 1329 l 648 1105 l 489 1105 z "},"Ṙ":{"ha":881,"x_min":57,"x_max":878,"o":"m 57 0 l 57 1010 l 473 1010 q 670 969 587 1010 q 798 853 753 928 q 843 674 843 777 q 797 496 843 569 q 667 384 751 422 q 467 346 582 346 l 203 346 l 203 538 l 421 538 q 514 553 476 538 q 571 597 551 567 q 590 674 590 627 q 571 752 590 721 q 514 798 551 783 q 420 813 476 813 l 300 813 l 300 0 l 57 0 m 610 0 l 364 462 l 625 462 l 878 0 l 610 0 m 433 1097 q 346 1131 382 1097 q 309 1213 309 1165 q 346 1295 309 1261 q 433 1329 382 1329 q 521 1295 485 1329 q 557 1213 557 1261 q 521 1131 557 1165 q 433 1097 485 1097 z "},"Ṛ":{"ha":881,"x_min":57,"x_max":878,"o":"m 57 0 l 57 1010 l 473 1010 q 670 969 587 1010 q 798 853 753 928 q 843 674 843 777 q 797 496 843 569 q 667 384 751 422 q 467 346 582 346 l 203 346 l 203 538 l 421 538 q 514 553 476 538 q 571 597 551 567 q 590 674 590 627 q 571 752 590 721 q 514 798 551 783 q 420 813 476 813 l 300 813 l 300 0 l 57 0 m 610 0 l 364 462 l 625 462 l 878 0 l 610 0 m 450 -296 q 363 -262 399 -296 q 326 -180 326 -228 q 363 -98 326 -132 q 450 -64 399 -64 q 538 -98 502 -64 q 574 -180 574 -132 q 538 -262 574 -228 q 450 -296 502 -296 z "},"Ṝ":{"ha":881,"x_min":57,"x_max":878,"o":"m 57 0 l 57 1010 l 473 1010 q 670 969 587 1010 q 798 853 753 928 q 843 674 843 777 q 797 496 843 569 q 667 384 751 422 q 467 346 582 346 l 203 346 l 203 538 l 421 538 q 514 553 476 538 q 571 597 551 567 q 590 674 590 627 q 571 752 590 721 q 514 798 551 783 q 420 813 476 813 l 300 813 l 300 0 l 57 0 m 610 0 l 364 462 l 625 462 l 878 0 l 610 0 m 450 -296 q 363 -262 399 -296 q 326 -180 326 -228 q 363 -98 326 -132 q 450 -64 399 -64 q 538 -98 502 -64 q 574 -180 574 -132 q 538 -262 574 -228 q 450 -296 502 -296 m 677 1263 l 677 1143 l 190 1143 l 190 1263 l 677 1263 z "},"Ȓ":{"ha":881,"x_min":57,"x_max":878,"o":"m 57 0 l 57 1010 l 473 1010 q 670 969 587 1010 q 798 853 753 928 q 843 674 843 777 q 797 496 843 569 q 667 384 751 422 q 467 346 582 346 l 203 346 l 203 538 l 421 538 q 514 553 476 538 q 571 597 551 567 q 590 674 590 627 q 571 752 590 721 q 514 798 551 783 q 420 813 476 813 l 300 813 l 300 0 l 57 0 m 610 0 l 364 462 l 625 462 l 878 0 l 610 0 m 176 1104 q 248 1258 176 1200 q 434 1317 319 1317 q 621 1258 549 1317 q 692 1104 692 1200 l 532 1104 q 506 1170 532 1145 q 434 1194 479 1194 q 361 1170 387 1194 q 334 1104 334 1145 l 176 1104 z "},"Ṟ":{"ha":881,"x_min":57,"x_max":878,"o":"m 57 0 l 57 1010 l 473 1010 q 670 969 587 1010 q 798 853 753 928 q 843 674 843 777 q 797 496 843 569 q 667 384 751 422 q 467 346 582 346 l 203 346 l 203 538 l 421 538 q 514 553 476 538 q 571 597 551 567 q 590 674 590 627 q 571 752 590 721 q 514 798 551 783 q 420 813 476 813 l 300 813 l 300 0 l 57 0 m 610 0 l 364 462 l 625 462 l 878 0 l 610 0 m 694 -127 l 694 -246 l 207 -246 l 207 -127 l 694 -127 z "},"S":{"ha":878,"x_min":28,"x_max":850,"o":"m 450 -14 q 229 25 323 -14 q 82 141 134 63 q 28 336 29 218 l 261 336 q 288 255 264 288 q 352 205 311 222 q 446 189 392 189 q 531 202 496 189 q 585 239 566 216 q 604 294 604 263 q 586 343 604 323 q 533 378 568 363 q 441 406 497 393 l 335 430 q 130 527 205 460 q 54 711 54 595 q 105 875 54 804 q 245 985 156 945 q 450 1024 334 1024 q 654 984 567 1024 q 788 873 741 945 q 837 707 836 802 l 602 707 q 559 792 598 762 q 449 822 520 822 q 370 810 401 822 q 322 776 338 798 q 307 727 307 754 q 324 676 307 697 q 375 641 342 655 q 454 616 409 627 l 541 597 q 673 553 615 581 q 770 489 730 526 q 830 403 810 452 q 850 294 850 354 q 803 129 850 197 q 665 23 755 60 q 450 -14 576 -14 z "},"Ś":{"ha":878,"x_min":28,"x_max":850,"o":"m 450 -14 q 229 25 323 -14 q 82 141 134 63 q 28 336 29 218 l 261 336 q 288 255 264 288 q 352 205 311 222 q 446 189 392 189 q 531 202 496 189 q 585 239 566 216 q 604 294 604 263 q 586 343 604 323 q 533 378 568 363 q 441 406 497 393 l 335 430 q 130 527 205 460 q 54 711 54 595 q 105 875 54 804 q 245 985 156 945 q 450 1024 334 1024 q 654 984 567 1024 q 788 873 741 945 q 837 707 836 802 l 602 707 q 559 792 598 762 q 449 822 520 822 q 370 810 401 822 q 322 776 338 798 q 307 727 307 754 q 324 676 307 697 q 375 641 342 655 q 454 616 409 627 l 541 597 q 673 553 615 581 q 770 489 730 526 q 830 403 810 452 q 850 294 850 354 q 803 129 850 197 q 665 23 755 60 q 450 -14 576 -14 m 356 1104 l 450 1318 l 663 1318 l 518 1104 l 356 1104 z "},"Ṥ":{"ha":878,"x_min":28,"x_max":850,"o":"m 450 -14 q 229 25 323 -14 q 82 141 134 63 q 28 336 29 218 l 261 336 q 288 255 264 288 q 352 205 311 222 q 446 189 392 189 q 531 202 496 189 q 585 239 566 216 q 604 294 604 263 q 586 343 604 323 q 533 378 568 363 q 441 406 497 393 l 335 430 q 130 527 205 460 q 54 711 54 595 q 105 875 54 804 q 245 985 156 945 q 450 1024 334 1024 q 654 984 567 1024 q 788 873 741 945 q 837 707 836 802 l 602 707 q 559 792 598 762 q 449 822 520 822 q 370 810 401 822 q 322 776 338 798 q 307 727 307 754 q 324 676 307 697 q 375 641 342 655 q 454 616 409 627 l 541 597 q 673 553 615 581 q 770 489 730 526 q 830 403 810 452 q 850 294 850 354 q 803 129 850 197 q 665 23 755 60 q 450 -14 576 -14 m 389 1107 l 490 1278 l 645 1278 l 508 1107 l 389 1107 m 196 1261 q 225 1320 197 1296 q 297 1343 254 1343 q 370 1319 342 1343 q 397 1261 399 1295 q 370 1202 399 1226 q 297 1178 342 1178 q 225 1202 253 1178 q 196 1261 197 1227 z "},"Š":{"ha":878,"x_min":28,"x_max":850,"o":"m 450 -14 q 229 25 323 -14 q 82 141 134 63 q 28 336 29 218 l 261 336 q 288 255 264 288 q 352 205 311 222 q 446 189 392 189 q 531 202 496 189 q 585 239 566 216 q 604 294 604 263 q 586 343 604 323 q 533 378 568 363 q 441 406 497 393 l 335 430 q 130 527 205 460 q 54 711 54 595 q 105 875 54 804 q 245 985 156 945 q 450 1024 334 1024 q 654 984 567 1024 q 788 873 741 945 q 837 707 836 802 l 602 707 q 559 792 598 762 q 449 822 520 822 q 370 810 401 822 q 322 776 338 798 q 307 727 307 754 q 324 676 307 697 q 375 641 342 655 q 454 616 409 627 l 541 597 q 673 553 615 581 q 770 489 730 526 q 830 403 810 452 q 850 294 850 354 q 803 129 850 197 q 665 23 755 60 q 450 -14 576 -14 m 342 1329 l 440 1214 l 538 1329 l 740 1329 l 740 1321 l 527 1100 l 353 1100 l 140 1321 l 140 1329 l 342 1329 z "},"Ṧ":{"ha":878,"x_min":28,"x_max":850,"o":"m 450 -14 q 229 25 323 -14 q 82 141 134 63 q 28 336 29 218 l 261 336 q 288 255 264 288 q 352 205 311 222 q 446 189 392 189 q 531 202 496 189 q 585 239 566 216 q 604 294 604 263 q 586 343 604 323 q 533 378 568 363 q 441 406 497 393 l 335 430 q 130 527 205 460 q 54 711 54 595 q 105 875 54 804 q 245 985 156 945 q 450 1024 334 1024 q 654 984 567 1024 q 788 873 741 945 q 837 707 836 802 l 602 707 q 559 792 598 762 q 449 822 520 822 q 370 810 401 822 q 322 776 338 798 q 307 727 307 754 q 324 676 307 697 q 375 641 342 655 q 454 616 409 627 l 541 597 q 673 553 615 581 q 770 489 730 526 q 830 403 810 452 q 850 294 850 354 q 803 129 850 197 q 665 23 755 60 q 450 -14 576 -14 m 338 1417 q 367 1477 338 1453 q 439 1501 395 1501 q 512 1477 484 1501 q 540 1417 540 1453 q 512 1360 540 1383 q 439 1337 484 1337 q 367 1360 395 1337 q 338 1417 338 1383 m 351 1302 l 441 1227 l 530 1302 l 727 1302 l 727 1290 l 522 1131 l 359 1131 l 154 1293 l 154 1302 l 351 1302 z "},"Ş":{"ha":878,"x_min":28,"x_max":850,"o":"m 450 -14 q 229 25 323 -14 q 82 141 134 63 q 28 336 29 218 l 261 336 q 288 255 264 288 q 352 205 311 222 q 446 189 392 189 q 531 202 496 189 q 585 239 566 216 q 604 294 604 263 q 586 343 604 323 q 533 378 568 363 q 441 406 497 393 l 335 430 q 130 527 205 460 q 54 711 54 595 q 105 875 54 804 q 245 985 156 945 q 450 1024 334 1024 q 654 984 567 1024 q 788 873 741 945 q 837 707 836 802 l 602 707 q 559 792 598 762 q 449 822 520 822 q 370 810 401 822 q 322 776 338 798 q 307 727 307 754 q 324 676 307 697 q 375 641 342 655 q 454 616 409 627 l 541 597 q 673 553 615 581 q 770 489 730 526 q 830 403 810 452 q 850 294 850 354 q 803 129 850 197 q 665 23 755 60 q 450 -14 576 -14 m 393 4 l 490 4 l 482 -41 q 570 -80 537 -49 q 603 -161 602 -112 q 530 -283 604 -239 q 323 -327 456 -328 l 323 -228 q 428 -213 391 -229 q 466 -167 465 -197 q 444 -121 467 -138 q 371 -98 420 -104 l 393 4 z "},"Ŝ":{"ha":878,"x_min":28,"x_max":850,"o":"m 450 -14 q 229 25 323 -14 q 82 141 134 63 q 28 336 29 218 l 261 336 q 288 255 264 288 q 352 205 311 222 q 446 189 392 189 q 531 202 496 189 q 585 239 566 216 q 604 294 604 263 q 586 343 604 323 q 533 378 568 363 q 441 406 497 393 l 335 430 q 130 527 205 460 q 54 711 54 595 q 105 875 54 804 q 245 985 156 945 q 450 1024 334 1024 q 654 984 567 1024 q 788 873 741 945 q 837 707 836 802 l 602 707 q 559 792 598 762 q 449 822 520 822 q 370 810 401 822 q 322 776 338 798 q 307 727 307 754 q 324 676 307 697 q 375 641 342 655 q 454 616 409 627 l 541 597 q 673 553 615 581 q 770 489 730 526 q 830 403 810 452 q 850 294 850 354 q 803 129 850 197 q 665 23 755 60 q 450 -14 576 -14 m 537 1100 l 439 1215 l 342 1100 l 140 1100 l 140 1107 l 353 1329 l 526 1329 l 739 1107 l 739 1100 l 537 1100 z "},"Ș":{"ha":878,"x_min":28,"x_max":850,"o":"m 450 -14 q 229 25 323 -14 q 82 141 134 63 q 28 336 29 218 l 261 336 q 288 255 264 288 q 352 205 311 222 q 446 189 392 189 q 531 202 496 189 q 585 239 566 216 q 604 294 604 263 q 586 343 604 323 q 533 378 568 363 q 441 406 497 393 l 335 430 q 130 527 205 460 q 54 711 54 595 q 105 875 54 804 q 245 985 156 945 q 450 1024 334 1024 q 654 984 567 1024 q 788 873 741 945 q 837 707 836 802 l 602 707 q 559 792 598 762 q 449 822 520 822 q 370 810 401 822 q 322 776 338 798 q 307 727 307 754 q 324 676 307 697 q 375 641 342 655 q 454 616 409 627 l 541 597 q 673 553 615 581 q 770 489 730 526 q 830 403 810 452 q 850 294 850 354 q 803 129 850 197 q 665 23 755 60 q 450 -14 576 -14 m 273 -323 l 336 -83 l 555 -83 l 439 -323 l 273 -323 z "},"Ṡ":{"ha":878,"x_min":28,"x_max":850,"o":"m 450 -14 q 229 25 323 -14 q 82 141 134 63 q 28 336 29 218 l 261 336 q 288 255 264 288 q 352 205 311 222 q 446 189 392 189 q 531 202 496 189 q 585 239 566 216 q 604 294 604 263 q 586 343 604 323 q 533 378 568 363 q 441 406 497 393 l 335 430 q 130 527 205 460 q 54 711 54 595 q 105 875 54 804 q 245 985 156 945 q 450 1024 334 1024 q 654 984 567 1024 q 788 873 741 945 q 837 707 836 802 l 602 707 q 559 792 598 762 q 449 822 520 822 q 370 810 401 822 q 322 776 338 798 q 307 727 307 754 q 324 676 307 697 q 375 641 342 655 q 454 616 409 627 l 541 597 q 673 553 615 581 q 770 489 730 526 q 830 403 810 452 q 850 294 850 354 q 803 129 850 197 q 665 23 755 60 q 450 -14 576 -14 m 440 1097 q 353 1131 389 1097 q 316 1213 316 1165 q 353 1295 316 1261 q 440 1329 389 1329 q 528 1295 492 1329 q 564 1213 564 1261 q 528 1131 564 1165 q 440 1097 492 1097 z "},"Ṣ":{"ha":878,"x_min":28,"x_max":850,"o":"m 450 -14 q 229 25 323 -14 q 82 141 134 63 q 28 336 29 218 l 261 336 q 288 255 264 288 q 352 205 311 222 q 446 189 392 189 q 531 202 496 189 q 585 239 566 216 q 604 294 604 263 q 586 343 604 323 q 533 378 568 363 q 441 406 497 393 l 335 430 q 130 527 205 460 q 54 711 54 595 q 105 875 54 804 q 245 985 156 945 q 450 1024 334 1024 q 654 984 567 1024 q 788 873 741 945 q 837 707 836 802 l 602 707 q 559 792 598 762 q 449 822 520 822 q 370 810 401 822 q 322 776 338 798 q 307 727 307 754 q 324 676 307 697 q 375 641 342 655 q 454 616 409 627 l 541 597 q 673 553 615 581 q 770 489 730 526 q 830 403 810 452 q 850 294 850 354 q 803 129 850 197 q 665 23 755 60 q 450 -14 576 -14 m 444 -299 q 356 -265 393 -299 q 319 -183 319 -231 q 356 -101 319 -135 q 444 -68 393 -68 q 531 -101 495 -68 q 568 -183 568 -135 q 531 -265 568 -231 q 444 -299 495 -299 z "},"Ṩ":{"ha":878,"x_min":28,"x_max":850,"o":"m 450 -14 q 229 25 323 -14 q 82 141 134 63 q 28 336 29 218 l 261 336 q 288 255 264 288 q 352 205 311 222 q 446 189 392 189 q 531 202 496 189 q 585 239 566 216 q 604 294 604 263 q 586 343 604 323 q 533 378 568 363 q 441 406 497 393 l 335 430 q 130 527 205 460 q 54 711 54 595 q 105 875 54 804 q 245 985 156 945 q 450 1024 334 1024 q 654 984 567 1024 q 788 873 741 945 q 837 707 836 802 l 602 707 q 559 792 598 762 q 449 822 520 822 q 370 810 401 822 q 322 776 338 798 q 307 727 307 754 q 324 676 307 697 q 375 641 342 655 q 454 616 409 627 l 541 597 q 673 553 615 581 q 770 489 730 526 q 830 403 810 452 q 850 294 850 354 q 803 129 850 197 q 665 23 755 60 q 450 -14 576 -14 m 444 -299 q 356 -265 393 -299 q 319 -183 319 -231 q 356 -101 319 -135 q 444 -68 393 -68 q 531 -101 495 -68 q 568 -183 568 -135 q 531 -265 568 -231 q 444 -299 495 -299 m 440 1097 q 353 1131 389 1097 q 316 1213 316 1165 q 353 1295 316 1261 q 440 1329 389 1329 q 528 1295 492 1329 q 564 1213 564 1261 q 528 1131 564 1165 q 440 1097 492 1097 z "},"ẞ":{"ha":972,"x_min":57,"x_max":945,"o":"m 57 0 l 57 663 q 104 852 57 771 q 234 979 151 934 q 431 1024 318 1024 q 587 1000 503 1024 q 752 936 670 977 q 903 842 834 895 l 678 589 q 818 535 758 576 q 912 432 878 494 q 945 296 945 370 q 898 134 945 203 q 769 25 851 64 q 579 -14 686 -14 q 456 -2 520 -14 q 345 29 391 9 l 410 206 q 484 183 445 191 q 559 174 524 174 q 672 207 631 174 q 713 296 713 239 q 697 366 713 337 q 656 414 682 395 q 597 440 630 432 q 528 449 564 449 l 436 449 l 436 585 l 615 774 q 533 818 581 800 q 431 836 485 836 q 358 813 387 836 q 315 753 330 791 q 300 663 300 714 l 300 0 l 57 0 z "},"T":{"ha":902,"x_min":24,"x_max":878,"o":"m 24 812 l 24 1010 l 878 1010 l 878 812 l 571 812 l 571 0 l 331 0 l 331 812 l 24 812 z "},"Ŧ":{"ha":902,"x_min":24,"x_max":878,"o":"m 24 812 l 24 1010 l 878 1010 l 878 812 l 571 812 l 571 0 l 331 0 l 331 812 l 24 812 m 195 402 l 195 537 l 705 537 l 705 402 l 195 402 z "},"Ť":{"ha":902,"x_min":24,"x_max":878,"o":"m 24 812 l 24 1010 l 878 1010 l 878 812 l 571 812 l 571 0 l 331 0 l 331 812 l 24 812 m 354 1329 l 452 1214 l 549 1329 l 751 1329 l 751 1321 l 538 1100 l 365 1100 l 152 1321 l 152 1329 l 354 1329 z "},"Ṱ":{"ha":902,"x_min":24,"x_max":878,"o":"m 24 812 l 24 1010 l 878 1010 l 878 812 l 571 812 l 571 0 l 331 0 l 331 812 l 24 812 m 548 -291 l 450 -176 l 353 -291 l 151 -291 l 151 -283 l 363 -62 l 537 -62 l 750 -283 l 750 -291 l 548 -291 z "},"Ţ":{"ha":902,"x_min":24,"x_max":878,"o":"m 24 812 l 24 1010 l 878 1010 l 878 812 l 571 812 l 571 0 l 331 0 l 331 812 l 24 812 m 402 4 l 499 4 l 491 -41 q 578 -80 546 -49 q 612 -161 611 -112 q 538 -283 612 -239 q 332 -327 465 -328 l 332 -228 q 436 -213 399 -229 q 475 -167 473 -197 q 453 -121 476 -138 q 380 -98 429 -104 l 402 4 z "},"Ṫ":{"ha":902,"x_min":24,"x_max":878,"o":"m 24 812 l 24 1010 l 878 1010 l 878 812 l 571 812 l 571 0 l 331 0 l 331 812 l 24 812 m 452 1097 q 364 1131 401 1097 q 328 1213 328 1165 q 364 1295 328 1261 q 452 1329 401 1329 q 539 1295 503 1329 q 576 1213 576 1261 q 539 1131 576 1165 q 452 1097 503 1097 z "},"Ṭ":{"ha":902,"x_min":24,"x_max":878,"o":"m 24 812 l 24 1010 l 878 1010 l 878 812 l 571 812 l 571 0 l 331 0 l 331 812 l 24 812 m 450 -296 q 363 -262 399 -296 q 326 -180 326 -228 q 363 -98 326 -132 q 450 -64 399 -64 q 538 -98 502 -64 q 574 -180 574 -132 q 538 -262 574 -228 q 450 -296 502 -296 z "},"Ƭ":{"ha":948,"x_min":24,"x_max":924,"o":"m 496 1010 l 496 812 l 326 812 q 261 793 283 812 q 231 745 239 774 q 223 685 223 716 l 223 619 l 24 619 l 24 728 q 101 935 24 861 q 326 1010 178 1010 l 496 1010 m 924 1010 l 924 812 l 617 812 l 617 0 l 376 0 l 376 812 l 351 812 l 351 1010 l 924 1010 z "},"Ṯ":{"ha":902,"x_min":24,"x_max":878,"o":"m 24 812 l 24 1010 l 878 1010 l 878 812 l 571 812 l 571 0 l 331 0 l 331 812 l 24 812 m 694 -127 l 694 -246 l 207 -246 l 207 -127 l 694 -127 z "},"Ƽ":{"ha":863,"x_min":31,"x_max":865,"o":"m 250 1010 l 250 813 l 31 813 l 31 1010 l 250 1010 m 473 -14 q 277 26 363 -14 q 141 136 191 66 q 90 297 92 206 l 327 297 q 371 208 328 241 q 473 174 414 174 q 554 194 519 174 q 609 251 589 214 q 629 335 629 287 q 609 421 629 385 q 554 478 589 458 q 472 498 519 498 q 389 479 427 498 q 330 425 350 459 l 113 466 l 157 1010 l 806 1010 l 806 813 l 358 813 l 336 575 l 341 575 q 422 644 366 617 q 550 671 478 671 q 712 629 641 671 q 824 513 783 587 q 865 342 865 439 q 816 158 865 238 q 679 32 767 77 q 473 -14 591 -14 z "},"Ƅ":{"ha":1083,"x_min":-1,"x_max":1029,"o":"m 441 1010 l 441 812 l -1 812 l -1 1010 l 441 1010 m 397 654 l 623 654 q 838 614 747 654 q 979 502 929 574 q 1028 331 1029 429 q 979 159 1029 233 q 838 42 929 84 q 623 0 747 0 l 245 0 l 245 1010 l 489 1010 l 489 194 l 623 194 q 713 213 676 194 q 768 263 749 231 q 787 334 787 294 q 745 427 787 389 q 623 465 703 465 l 397 465 l 397 654 z "},"Ƨ":{"ha":878,"x_min":28,"x_max":850,"o":"m 275 707 l 41 707 q 90 873 43 802 q 224 984 138 945 q 429 1024 311 1024 q 634 985 544 1024 q 774 875 724 945 q 825 711 825 804 q 749 528 825 595 q 543 430 674 460 l 438 406 q 347 378 382 393 q 294 343 311 363 q 276 294 277 323 q 295 239 277 263 q 348 202 313 216 q 433 189 383 189 q 527 206 486 189 q 591 255 568 222 q 617 336 614 288 l 850 336 q 797 141 849 218 q 651 25 745 64 q 429 -14 557 -13 q 214 24 304 -13 q 76 129 124 60 q 28 294 28 197 q 48 402 28 354 q 108 489 68 451 q 205 553 147 526 q 338 597 263 580 l 424 616 q 503 641 470 627 q 555 676 536 655 q 572 727 573 697 q 556 776 572 754 q 508 810 540 798 q 429 822 477 822 q 319 792 358 822 q 275 707 280 762 z "},"Ʈ":{"ha":902,"x_min":24,"x_max":878,"o":"m 571 0 l 571 -35 q 604 -87 571 -74 q 675 -100 637 -100 l 720 -100 l 720 -283 l 610 -283 q 509 -275 559 -283 q 419 -240 459 -266 q 355 -165 378 -214 q 331 -34 331 -115 l 331 0 l 571 0 m 24 812 l 24 1010 l 878 1010 l 878 812 l 571 812 l 571 0 l 331 0 l 331 812 l 24 812 z "},"U":{"ha":968,"x_min":57,"x_max":911,"o":"m 668 1010 l 911 1010 l 911 359 q 858 162 911 246 q 708 33 804 79 q 484 -14 612 -14 q 260 33 356 -14 q 111 162 164 79 q 57 359 57 246 l 57 1010 l 300 1010 l 300 380 q 324 286 300 327 q 389 222 347 245 q 484 199 430 199 q 580 222 538 199 q 645 286 621 245 q 668 380 668 327 l 668 1010 z "},"Ú":{"ha":968,"x_min":57,"x_max":911,"o":"m 668 1010 l 911 1010 l 911 359 q 858 162 911 246 q 708 33 804 79 q 484 -14 612 -14 q 260 33 356 -14 q 111 162 164 79 q 57 359 57 246 l 57 1010 l 300 1010 l 300 380 q 324 286 300 327 q 389 222 347 245 q 484 199 430 199 q 580 222 538 199 q 645 286 621 245 q 668 380 668 327 l 668 1010 m 400 1104 l 494 1318 l 707 1318 l 562 1104 l 400 1104 z "},"Ŭ":{"ha":968,"x_min":57,"x_max":911,"o":"m 668 1010 l 911 1010 l 911 359 q 858 162 911 246 q 708 33 804 79 q 484 -14 612 -14 q 260 33 356 -14 q 111 162 164 79 q 57 359 57 246 l 57 1010 l 300 1010 l 300 380 q 324 286 300 327 q 389 222 347 245 q 484 199 430 199 q 580 222 538 199 q 645 286 621 245 q 668 380 668 327 l 668 1010 m 484 1094 q 298 1153 370 1094 q 227 1306 227 1211 l 385 1306 q 411 1241 385 1265 q 484 1217 437 1217 q 556 1241 530 1217 q 583 1306 583 1265 l 742 1306 q 671 1153 742 1211 q 484 1094 600 1094 z "},"Ǔ":{"ha":968,"x_min":57,"x_max":911,"o":"m 668 1010 l 911 1010 l 911 359 q 858 162 911 246 q 708 33 804 79 q 484 -14 612 -14 q 260 33 356 -14 q 111 162 164 79 q 57 359 57 246 l 57 1010 l 300 1010 l 300 380 q 324 286 300 327 q 389 222 347 245 q 484 199 430 199 q 580 222 538 199 q 645 286 621 245 q 668 380 668 327 l 668 1010 m 386 1329 l 484 1214 l 581 1329 l 783 1329 l 783 1321 l 570 1100 l 397 1100 l 184 1321 l 184 1329 l 386 1329 z "},"Û":{"ha":968,"x_min":57,"x_max":911,"o":"m 668 1010 l 911 1010 l 911 359 q 858 162 911 246 q 708 33 804 79 q 484 -14 612 -14 q 260 33 356 -14 q 111 162 164 79 q 57 359 57 246 l 57 1010 l 300 1010 l 300 380 q 324 286 300 327 q 389 222 347 245 q 484 199 430 199 q 580 222 538 199 q 645 286 621 245 q 668 380 668 327 l 668 1010 m 581 1100 l 484 1215 l 387 1100 l 184 1100 l 184 1107 l 397 1329 l 570 1329 l 783 1107 l 783 1100 l 581 1100 z "},"Ṷ":{"ha":968,"x_min":57,"x_max":911,"o":"m 668 1010 l 911 1010 l 911 359 q 858 162 911 246 q 708 33 804 79 q 484 -14 612 -14 q 260 33 356 -14 q 111 162 164 79 q 57 359 57 246 l 57 1010 l 300 1010 l 300 380 q 324 286 300 327 q 389 222 347 245 q 484 199 430 199 q 580 222 538 199 q 645 286 621 245 q 668 380 668 327 l 668 1010 m 581 -289 l 484 -175 l 387 -289 l 184 -289 l 184 -282 l 397 -61 l 570 -61 l 783 -282 l 783 -289 l 581 -289 z "},"Ȕ":{"ha":968,"x_min":57,"x_max":911,"o":"m 668 1010 l 911 1010 l 911 359 q 858 162 911 246 q 708 33 804 79 q 484 -14 612 -14 q 260 33 356 -14 q 111 162 164 79 q 57 359 57 246 l 57 1010 l 300 1010 l 300 380 q 324 286 300 327 q 389 222 347 245 q 484 199 430 199 q 580 222 538 199 q 645 286 621 245 q 668 380 668 327 l 668 1010 m 282 1105 l 132 1329 l 347 1329 l 447 1105 l 282 1105 m 539 1105 l 437 1329 l 643 1329 l 698 1105 l 539 1105 z "},"Ü":{"ha":968,"x_min":57,"x_max":911,"o":"m 668 1010 l 911 1010 l 911 359 q 858 162 911 246 q 708 33 804 79 q 484 -14 612 -14 q 260 33 356 -14 q 111 162 164 79 q 57 359 57 246 l 57 1010 l 300 1010 l 300 380 q 324 286 300 327 q 389 222 347 245 q 484 199 430 199 q 580 222 538 199 q 645 286 621 245 q 668 380 668 327 l 668 1010 m 330 1106 q 251 1138 283 1106 q 218 1213 218 1169 q 251 1290 218 1259 q 330 1321 283 1320 q 408 1290 376 1320 q 441 1213 441 1259 q 408 1138 441 1169 q 330 1106 376 1106 m 638 1106 q 558 1138 591 1106 q 526 1213 526 1169 q 558 1290 526 1259 q 638 1321 591 1320 q 716 1290 684 1320 q 748 1213 748 1259 q 716 1138 748 1169 q 638 1106 684 1106 z "},"Ǘ":{"ha":968,"x_min":57,"x_max":911,"o":"m 668 1010 l 911 1010 l 911 359 q 858 162 911 246 q 708 33 804 79 q 484 -14 612 -14 q 260 33 356 -14 q 111 162 164 79 q 57 359 57 246 l 57 1010 l 300 1010 l 300 380 q 324 286 300 327 q 389 222 347 245 q 484 199 430 199 q 580 222 538 199 q 645 286 621 245 q 668 380 668 327 l 668 1010 m 393 1333 l 527 1516 l 732 1516 l 560 1333 l 393 1333 m 340 1076 q 265 1105 296 1076 q 234 1174 234 1134 q 265 1244 234 1215 q 340 1273 296 1272 q 413 1244 382 1272 q 444 1174 444 1215 q 413 1105 444 1134 q 340 1076 382 1076 m 631 1076 q 556 1105 587 1076 q 525 1174 525 1134 q 556 1244 525 1215 q 631 1273 587 1272 q 705 1244 674 1272 q 735 1174 735 1215 q 705 1105 735 1134 q 631 1076 674 1076 z "},"Ṳ":{"ha":968,"x_min":57,"x_max":911,"o":"m 668 1010 l 911 1010 l 911 359 q 858 162 911 246 q 708 33 804 79 q 484 -14 612 -14 q 260 33 356 -14 q 111 162 164 79 q 57 359 57 246 l 57 1010 l 300 1010 l 300 380 q 324 286 300 327 q 389 222 347 245 q 484 199 430 199 q 580 222 538 199 q 645 286 621 245 q 668 380 668 327 l 668 1010 m 347 -294 q 259 -260 296 -294 q 222 -178 222 -226 q 259 -96 222 -130 q 347 -62 296 -62 q 434 -96 398 -62 q 471 -178 471 -130 q 434 -260 471 -226 q 347 -294 398 -294 m 721 -294 q 633 -260 670 -294 q 597 -178 597 -226 q 633 -96 597 -130 q 721 -62 670 -62 q 809 -96 772 -62 q 845 -178 845 -130 q 809 -260 845 -226 q 721 -294 772 -294 z "},"Ǚ":{"ha":968,"x_min":57,"x_max":911,"o":"m 668 1010 l 911 1010 l 911 359 q 858 162 911 246 q 708 33 804 79 q 484 -14 612 -14 q 260 33 356 -14 q 111 162 164 79 q 57 359 57 246 l 57 1010 l 300 1010 l 300 380 q 324 286 300 327 q 389 222 347 245 q 484 199 430 199 q 580 222 538 199 q 645 286 621 245 q 668 380 668 327 l 668 1010 m 236 1202 q 263 1260 236 1236 q 335 1284 291 1284 q 408 1260 380 1284 q 435 1202 436 1236 q 408 1142 436 1166 q 335 1119 380 1119 q 264 1143 292 1119 q 236 1202 236 1166 m 532 1202 q 559 1259 531 1236 q 632 1283 587 1283 q 704 1260 675 1283 q 733 1202 732 1236 q 704 1142 732 1166 q 632 1119 675 1118 q 559 1143 587 1118 q 532 1202 531 1168 m 395 1459 l 485 1387 l 574 1459 l 771 1459 l 771 1448 l 567 1289 l 404 1289 l 198 1451 l 198 1459 l 395 1459 z "},"Ǜ":{"ha":968,"x_min":57,"x_max":911,"o":"m 668 1010 l 911 1010 l 911 359 q 858 162 911 246 q 708 33 804 79 q 484 -14 612 -14 q 260 33 356 -14 q 111 162 164 79 q 57 359 57 246 l 57 1010 l 300 1010 l 300 380 q 324 286 300 327 q 389 222 347 245 q 484 199 430 199 q 580 222 538 199 q 645 286 621 245 q 668 380 668 327 l 668 1010 m 462 1406 l 552 1284 l 433 1284 l 308 1406 l 462 1406 m 235 1202 q 263 1260 235 1236 q 334 1284 291 1284 q 408 1260 379 1284 q 437 1202 436 1236 q 407 1142 436 1166 q 334 1119 378 1119 q 262 1143 290 1119 q 235 1202 235 1166 m 531 1202 q 559 1260 530 1236 q 632 1283 588 1283 q 704 1259 677 1283 q 732 1202 732 1236 q 704 1143 732 1168 q 632 1119 677 1118 q 559 1142 588 1118 q 531 1202 530 1166 z "},"Ǖ":{"ha":968,"x_min":57,"x_max":911,"o":"m 668 1010 l 911 1010 l 911 359 q 858 162 911 246 q 708 33 804 79 q 484 -14 612 -14 q 260 33 356 -14 q 111 162 164 79 q 57 359 57 246 l 57 1010 l 300 1010 l 300 380 q 324 286 300 327 q 389 222 347 245 q 484 199 430 199 q 580 222 538 199 q 645 286 621 245 q 668 380 668 327 l 668 1010 m 330 1106 q 251 1138 283 1106 q 218 1213 218 1169 q 251 1290 218 1259 q 330 1321 283 1320 q 408 1290 376 1320 q 441 1213 441 1259 q 408 1138 441 1169 q 330 1106 376 1106 m 638 1106 q 558 1138 591 1106 q 526 1213 526 1169 q 558 1290 526 1259 q 638 1321 591 1320 q 716 1290 684 1320 q 748 1213 748 1259 q 716 1138 748 1169 q 638 1106 684 1106 m 728 1515 l 728 1396 l 240 1396 l 240 1515 l 728 1515 z "},"Ụ":{"ha":968,"x_min":57,"x_max":911,"o":"m 668 1010 l 911 1010 l 911 359 q 858 162 911 246 q 708 33 804 79 q 484 -14 612 -14 q 260 33 356 -14 q 111 162 164 79 q 57 359 57 246 l 57 1010 l 300 1010 l 300 380 q 324 286 300 327 q 389 222 347 245 q 484 199 430 199 q 580 222 538 199 q 645 286 621 245 q 668 380 668 327 l 668 1010 m 484 -294 q 396 -260 433 -294 q 359 -178 359 -226 q 396 -96 359 -130 q 484 -62 433 -62 q 571 -96 535 -62 q 608 -178 608 -130 q 571 -260 608 -226 q 484 -294 535 -294 z "},"Ù":{"ha":968,"x_min":57,"x_max":911,"o":"m 668 1010 l 911 1010 l 911 359 q 858 162 911 246 q 708 33 804 79 q 484 -14 612 -14 q 260 33 356 -14 q 111 162 164 79 q 57 359 57 246 l 57 1010 l 300 1010 l 300 380 q 324 286 300 327 q 389 222 347 245 q 484 199 430 199 q 580 222 538 199 q 645 286 621 245 q 668 380 668 327 l 668 1010 m 406 1104 l 262 1318 l 473 1318 l 568 1104 l 406 1104 z "},"Ủ":{"ha":968,"x_min":57,"x_max":911,"o":"m 668 1010 l 911 1010 l 911 359 q 858 162 911 246 q 708 33 804 79 q 484 -14 612 -14 q 260 33 356 -14 q 111 162 164 79 q 57 359 57 246 l 57 1010 l 300 1010 l 300 380 q 324 286 300 327 q 389 222 347 245 q 484 199 430 199 q 580 222 538 199 q 645 286 621 245 q 668 380 668 327 l 668 1010 m 570 1120 l 394 1120 l 380 1203 q 455 1216 433 1204 q 477 1246 477 1228 q 450 1281 477 1273 q 380 1289 422 1289 l 387 1391 q 602 1356 528 1391 q 675 1256 676 1320 q 643 1191 676 1213 q 570 1161 610 1168 l 570 1120 z "},"Ư":{"ha":968,"x_min":57,"x_max":1048,"o":"m 726 897 l 668 1010 q 817 1056 773 1010 q 864 1204 861 1101 l 1048 1204 q 961 976 1044 1056 q 726 897 877 897 m 668 1010 l 911 1010 l 911 359 q 858 162 911 246 q 708 33 804 79 q 484 -14 612 -14 q 260 33 356 -14 q 111 162 164 79 q 57 359 57 246 l 57 1010 l 300 1010 l 300 380 q 324 286 300 327 q 389 222 347 245 q 484 199 430 199 q 580 222 538 199 q 645 286 621 245 q 668 380 668 327 l 668 1010 z "},"Ứ":{"ha":968,"x_min":57,"x_max":1048,"o":"m 726 897 l 668 1010 q 817 1056 773 1010 q 864 1204 861 1101 l 1048 1204 q 961 976 1044 1056 q 726 897 877 897 m 668 1010 l 911 1010 l 911 359 q 858 162 911 246 q 708 33 804 79 q 484 -14 612 -14 q 260 33 356 -14 q 111 162 164 79 q 57 359 57 246 l 57 1010 l 300 1010 l 300 380 q 324 286 300 327 q 389 222 347 245 q 484 199 430 199 q 580 222 538 199 q 645 286 621 245 q 668 380 668 327 l 668 1010 m 400 1104 l 494 1318 l 707 1318 l 562 1104 l 400 1104 z "},"Ự":{"ha":968,"x_min":57,"x_max":1048,"o":"m 726 897 l 668 1010 q 817 1056 773 1010 q 864 1204 861 1101 l 1048 1204 q 961 976 1044 1056 q 726 897 877 897 m 668 1010 l 911 1010 l 911 359 q 858 162 911 246 q 708 33 804 79 q 484 -14 612 -14 q 260 33 356 -14 q 111 162 164 79 q 57 359 57 246 l 57 1010 l 300 1010 l 300 380 q 324 286 300 327 q 389 222 347 245 q 484 199 430 199 q 580 222 538 199 q 645 286 621 245 q 668 380 668 327 l 668 1010 m 484 -294 q 396 -260 433 -294 q 359 -178 359 -226 q 396 -96 359 -130 q 484 -62 433 -62 q 571 -96 535 -62 q 608 -178 608 -130 q 571 -260 608 -226 q 484 -294 535 -294 z "},"Ừ":{"ha":968,"x_min":57,"x_max":1048,"o":"m 726 897 l 668 1010 q 817 1056 773 1010 q 864 1204 861 1101 l 1048 1204 q 961 976 1044 1056 q 726 897 877 897 m 668 1010 l 911 1010 l 911 359 q 858 162 911 246 q 708 33 804 79 q 484 -14 612 -14 q 260 33 356 -14 q 111 162 164 79 q 57 359 57 246 l 57 1010 l 300 1010 l 300 380 q 324 286 300 327 q 389 222 347 245 q 484 199 430 199 q 580 222 538 199 q 645 286 621 245 q 668 380 668 327 l 668 1010 m 406 1104 l 262 1318 l 473 1318 l 568 1104 l 406 1104 z "},"Ử":{"ha":968,"x_min":57,"x_max":1048,"o":"m 726 897 l 668 1010 q 817 1056 773 1010 q 864 1204 861 1101 l 1048 1204 q 961 976 1044 1056 q 726 897 877 897 m 668 1010 l 911 1010 l 911 359 q 858 162 911 246 q 708 33 804 79 q 484 -14 612 -14 q 260 33 356 -14 q 111 162 164 79 q 57 359 57 246 l 57 1010 l 300 1010 l 300 380 q 324 286 300 327 q 389 222 347 245 q 484 199 430 199 q 580 222 538 199 q 645 286 621 245 q 668 380 668 327 l 668 1010 m 570 1120 l 394 1120 l 380 1203 q 455 1216 433 1204 q 477 1246 477 1228 q 450 1281 477 1273 q 380 1289 422 1289 l 387 1391 q 602 1356 528 1391 q 675 1256 676 1320 q 643 1191 676 1213 q 570 1161 610 1168 l 570 1120 z "},"Ữ":{"ha":968,"x_min":57,"x_max":1048,"o":"m 726 897 l 668 1010 q 817 1056 773 1010 q 864 1204 861 1101 l 1048 1204 q 961 976 1044 1056 q 726 897 877 897 m 668 1010 l 911 1010 l 911 359 q 858 162 911 246 q 708 33 804 79 q 484 -14 612 -14 q 260 33 356 -14 q 111 162 164 79 q 57 359 57 246 l 57 1010 l 300 1010 l 300 380 q 324 286 300 327 q 389 222 347 245 q 484 199 430 199 q 580 222 538 199 q 645 286 621 245 q 668 380 668 327 l 668 1010 m 582 1103 q 520 1114 546 1103 q 474 1140 494 1125 q 437 1167 454 1156 q 402 1179 420 1179 q 368 1160 380 1179 q 354 1107 355 1141 l 230 1107 q 276 1255 232 1205 q 386 1304 319 1304 q 448 1293 422 1304 q 494 1267 474 1282 q 531 1241 514 1252 q 565 1230 547 1230 q 603 1248 591 1230 q 615 1300 614 1266 l 737 1300 q 691 1154 736 1204 q 582 1103 647 1103 z "},"Ű":{"ha":968,"x_min":57,"x_max":911,"o":"m 668 1010 l 911 1010 l 911 359 q 858 162 911 246 q 708 33 804 79 q 484 -14 612 -14 q 260 33 356 -14 q 111 162 164 79 q 57 359 57 246 l 57 1010 l 300 1010 l 300 380 q 324 286 300 327 q 389 222 347 245 q 484 199 430 199 q 580 222 538 199 q 645 286 621 245 q 668 380 668 327 l 668 1010 m 522 1100 l 681 1302 l 874 1302 l 687 1100 l 522 1100 m 254 1100 l 392 1302 l 585 1302 l 419 1100 l 254 1100 z "},"Ȗ":{"ha":968,"x_min":57,"x_max":911,"o":"m 668 1010 l 911 1010 l 911 359 q 858 162 911 246 q 708 33 804 79 q 484 -14 612 -14 q 260 33 356 -14 q 111 162 164 79 q 57 359 57 246 l 57 1010 l 300 1010 l 300 380 q 324 286 300 327 q 389 222 347 245 q 484 199 430 199 q 580 222 538 199 q 645 286 621 245 q 668 380 668 327 l 668 1010 m 227 1104 q 298 1258 227 1200 q 484 1317 370 1317 q 671 1258 600 1317 q 742 1104 742 1200 l 583 1104 q 556 1170 583 1145 q 484 1194 530 1194 q 411 1170 437 1194 q 385 1104 385 1145 l 227 1104 z "},"Ū":{"ha":968,"x_min":57,"x_max":911,"o":"m 668 1010 l 911 1010 l 911 359 q 858 162 911 246 q 708 33 804 79 q 484 -14 612 -14 q 260 33 356 -14 q 111 162 164 79 q 57 359 57 246 l 57 1010 l 300 1010 l 300 380 q 324 286 300 327 q 389 222 347 245 q 484 199 430 199 q 580 222 538 199 q 645 286 621 245 q 668 380 668 327 l 668 1010 m 728 1263 l 728 1143 l 240 1143 l 240 1263 l 728 1263 z "},"Ṻ":{"ha":968,"x_min":57,"x_max":911,"o":"m 668 1010 l 911 1010 l 911 359 q 858 162 911 246 q 708 33 804 79 q 484 -14 612 -14 q 260 33 356 -14 q 111 162 164 79 q 57 359 57 246 l 57 1010 l 300 1010 l 300 380 q 324 286 300 327 q 389 222 347 245 q 484 199 430 199 q 580 222 538 199 q 645 286 621 245 q 668 380 668 327 l 668 1010 m 728 1221 l 728 1103 l 239 1103 l 239 1221 l 728 1221 m 235 1365 q 262 1423 235 1399 q 334 1447 290 1447 q 407 1423 378 1447 q 437 1365 436 1400 q 408 1306 436 1330 q 334 1282 379 1282 q 262 1306 290 1282 q 235 1365 235 1330 m 531 1364 q 558 1423 530 1399 q 632 1447 587 1447 q 704 1423 675 1447 q 732 1364 732 1399 q 704 1306 732 1330 q 632 1283 675 1283 q 558 1306 587 1283 q 531 1364 530 1330 z "},"Ų":{"ha":968,"x_min":57,"x_max":911,"o":"m 668 1010 l 911 1010 l 911 359 q 858 162 911 246 q 708 33 804 79 q 484 -14 612 -14 q 260 33 356 -14 q 111 162 164 79 q 57 359 57 246 l 57 1010 l 300 1010 l 300 380 q 324 286 300 327 q 389 222 347 245 q 484 199 430 199 q 580 222 538 199 q 645 286 621 245 q 668 380 668 327 l 668 1010 m 527 -278 q 414 -244 460 -278 q 354 -148 369 -211 q 349 -64 343 -106 q 376 12 355 -22 q 434 62 397 46 l 624 0 q 550 -39 577 -18 q 523 -93 522 -60 q 535 -131 522 -117 q 569 -144 548 -144 q 595 -140 584 -144 q 616 -134 606 -136 l 642 -248 q 594 -269 623 -259 q 527 -278 566 -278 z "},"Ʊ":{"ha":1050,"x_min":36,"x_max":1014,"o":"m 36 457 q 85 664 37 578 q 217 804 134 751 l 217 812 l 36 812 l 36 1010 l 451 1010 l 451 762 q 364 700 401 742 q 305 602 326 659 q 284 479 284 545 q 315 336 284 399 q 400 238 346 273 q 525 201 454 202 q 650 238 595 202 q 735 336 704 273 q 766 479 766 399 q 745 602 766 545 q 686 700 724 659 q 600 762 649 742 l 600 1010 l 1013 1010 l 1013 812 l 832 812 l 832 804 q 965 665 916 751 q 1013 457 1014 578 q 951 213 1014 319 q 778 47 888 107 q 525 -14 668 -14 q 329 21 418 -14 q 174 119 239 56 q 72 268 109 182 q 36 457 36 354 z "},"Ů":{"ha":968,"x_min":57,"x_max":911,"o":"m 668 1010 l 911 1010 l 911 359 q 858 162 911 246 q 708 33 804 79 q 484 -14 612 -14 q 260 33 356 -14 q 111 162 164 79 q 57 359 57 246 l 57 1010 l 300 1010 l 300 380 q 324 286 300 327 q 389 222 347 245 q 484 199 430 199 q 580 222 538 199 q 645 286 621 245 q 668 380 668 327 l 668 1010 m 484 1065 q 374 1109 420 1065 q 330 1215 329 1153 q 374 1321 329 1278 q 484 1366 420 1365 q 594 1321 549 1365 q 638 1215 639 1278 q 594 1109 639 1153 q 484 1065 549 1065 m 484 1154 q 530 1172 511 1154 q 549 1215 549 1190 q 530 1259 549 1240 q 484 1276 511 1277 q 438 1258 458 1276 q 420 1215 419 1240 q 438 1171 419 1190 q 484 1154 457 1153 z "},"Ũ":{"ha":968,"x_min":57,"x_max":911,"o":"m 668 1010 l 911 1010 l 911 359 q 858 162 911 246 q 708 33 804 79 q 484 -14 612 -14 q 260 33 356 -14 q 111 162 164 79 q 57 359 57 246 l 57 1010 l 300 1010 l 300 380 q 324 286 300 327 q 389 222 347 245 q 484 199 430 199 q 580 222 538 199 q 645 286 621 245 q 668 380 668 327 l 668 1010 m 582 1103 q 520 1114 546 1103 q 474 1140 494 1125 q 437 1167 454 1156 q 402 1179 420 1179 q 368 1160 380 1179 q 354 1107 355 1141 l 230 1107 q 276 1255 232 1205 q 386 1304 319 1304 q 448 1293 422 1304 q 494 1267 474 1282 q 531 1241 514 1252 q 565 1230 547 1230 q 603 1248 591 1230 q 615 1300 614 1266 l 737 1300 q 691 1154 736 1204 q 582 1103 647 1103 z "},"Ṹ":{"ha":968,"x_min":57,"x_max":911,"o":"m 668 1010 l 911 1010 l 911 359 q 858 162 911 246 q 708 33 804 79 q 484 -14 612 -14 q 260 33 356 -14 q 111 162 164 79 q 57 359 57 246 l 57 1010 l 300 1010 l 300 380 q 324 286 300 327 q 389 222 347 245 q 484 199 430 199 q 580 222 538 199 q 645 286 621 245 q 668 380 668 327 l 668 1010 m 385 1333 l 518 1516 l 724 1516 l 551 1333 l 385 1333 m 576 1092 q 518 1102 543 1092 q 475 1126 494 1113 q 440 1150 456 1140 q 407 1160 424 1160 q 374 1143 386 1160 q 361 1097 363 1126 l 245 1097 q 288 1229 247 1184 q 392 1274 328 1274 q 450 1264 425 1274 q 494 1240 475 1253 q 529 1217 513 1227 q 561 1206 545 1206 q 596 1223 586 1206 q 608 1270 607 1240 l 724 1270 q 680 1138 722 1183 q 576 1092 638 1092 z "},"Ṵ":{"ha":968,"x_min":57,"x_max":911,"o":"m 668 1010 l 911 1010 l 911 359 q 858 162 911 246 q 708 33 804 79 q 484 -14 612 -14 q 260 33 356 -14 q 111 162 164 79 q 57 359 57 246 l 57 1010 l 300 1010 l 300 380 q 324 286 300 327 q 389 222 347 245 q 484 199 430 199 q 580 222 538 199 q 645 286 621 245 q 668 380 668 327 l 668 1010 m 582 -277 q 520 -266 546 -277 q 474 -239 494 -254 q 437 -212 454 -224 q 402 -201 420 -201 q 368 -220 380 -201 q 354 -272 355 -239 l 230 -272 q 276 -125 232 -174 q 386 -75 319 -75 q 448 -86 422 -75 q 494 -113 474 -98 q 531 -139 514 -127 q 565 -150 547 -150 q 603 -132 591 -150 q 615 -79 614 -113 l 737 -79 q 691 -226 736 -175 q 582 -277 647 -277 z "},"V":{"ha":1032,"x_min":12,"x_max":1019,"o":"m 287 1010 l 511 271 l 521 271 l 747 1010 l 1019 1010 l 678 0 l 354 0 l 12 1010 l 287 1010 z "},"Ɣ":{"ha":1048,"x_min":37,"x_max":1011,"o":"m 37 1010 l 316 1010 l 593 410 q 703 171 659 273 q 769 0 747 69 q 791 -109 791 -69 q 758 -207 791 -164 q 665 -275 725 -250 q 524 -300 605 -300 q 380 -276 442 -300 q 284 -208 319 -252 q 250 -103 250 -164 q 254 -63 250 -85 q 271 -7 258 -41 q 307 81 283 28 q 367 215 330 135 q 457 412 404 296 l 731 1010 l 1011 1010 l 551 106 q 519 34 532 70 q 498 -33 505 -1 q 490 -91 490 -65 q 499 -126 490 -114 q 524 -139 507 -139 q 550 -126 541 -139 q 559 -90 558 -114 q 551 -33 559 -64 q 531 35 544 -1 q 499 106 517 71 l 37 1010 z "},"Ʋ":{"ha":907,"x_min":52,"x_max":857,"o":"m 454 -14 q 245 28 336 -14 q 103 150 154 70 q 52 346 52 231 l 52 1010 l 291 1010 l 291 346 q 330 222 291 266 q 454 177 369 178 q 577 222 540 178 q 614 346 614 266 l 614 731 q 596 807 614 787 q 527 827 578 827 q 496 826 513 827 q 461 822 480 825 l 461 1012 q 514 1021 490 1018 q 567 1024 539 1024 q 781 948 705 1024 q 857 731 857 873 l 857 346 q 807 151 857 231 q 666 28 756 70 q 454 -14 575 -14 z "},"Ṿ":{"ha":1032,"x_min":12,"x_max":1019,"o":"m 287 1010 l 511 271 l 521 271 l 747 1010 l 1019 1010 l 678 0 l 354 0 l 12 1010 l 287 1010 m 516 -296 q 429 -262 465 -296 q 392 -180 392 -228 q 429 -98 392 -132 q 516 -64 465 -64 q 604 -98 568 -64 q 640 -180 640 -132 q 604 -262 640 -228 q 516 -296 568 -296 z "},"Ṽ":{"ha":1032,"x_min":12,"x_max":1019,"o":"m 287 1010 l 511 271 l 521 271 l 747 1010 l 1019 1010 l 678 0 l 354 0 l 12 1010 l 287 1010 m 614 1103 q 552 1114 578 1103 q 506 1140 526 1125 q 469 1167 486 1156 q 435 1179 452 1179 q 400 1160 412 1179 q 387 1107 388 1141 l 262 1107 q 308 1255 264 1205 q 418 1304 352 1304 q 480 1293 454 1304 q 527 1267 507 1282 q 563 1241 547 1252 q 597 1230 580 1230 q 635 1248 624 1230 q 648 1300 646 1266 l 770 1300 q 724 1154 768 1204 q 614 1103 680 1103 z "},"W":{"ha":1438,"x_min":3,"x_max":1434,"o":"m 298 0 l 3 1010 l 273 1010 l 427 349 l 435 349 l 608 1010 l 829 1010 l 1002 347 l 1011 347 l 1164 1010 l 1434 1010 l 1140 0 l 904 0 l 723 612 l 715 612 l 534 0 l 298 0 z "},"Ẃ":{"ha":1438,"x_min":3,"x_max":1434,"o":"m 298 0 l 3 1010 l 273 1010 l 427 349 l 435 349 l 608 1010 l 829 1010 l 1002 347 l 1011 347 l 1164 1010 l 1434 1010 l 1140 0 l 904 0 l 723 612 l 715 612 l 534 0 l 298 0 m 635 1104 l 728 1318 l 941 1318 l 797 1104 l 635 1104 z "},"Ŵ":{"ha":1438,"x_min":3,"x_max":1434,"o":"m 298 0 l 3 1010 l 273 1010 l 427 349 l 435 349 l 608 1010 l 829 1010 l 1002 347 l 1011 347 l 1164 1010 l 1434 1010 l 1140 0 l 904 0 l 723 612 l 715 612 l 534 0 l 298 0 m 816 1100 l 718 1215 l 621 1100 l 418 1100 l 418 1107 l 632 1329 l 805 1329 l 1018 1107 l 1018 1100 l 816 1100 z "},"Ẅ":{"ha":1438,"x_min":3,"x_max":1434,"o":"m 298 0 l 3 1010 l 273 1010 l 427 349 l 435 349 l 608 1010 l 829 1010 l 1002 347 l 1011 347 l 1164 1010 l 1434 1010 l 1140 0 l 904 0 l 723 612 l 715 612 l 534 0 l 298 0 m 565 1106 q 486 1138 518 1106 q 453 1213 453 1169 q 486 1290 453 1259 q 565 1321 518 1320 q 643 1290 610 1320 q 675 1213 675 1259 q 643 1138 675 1169 q 565 1106 610 1106 m 873 1106 q 793 1138 826 1106 q 760 1213 760 1169 q 793 1290 760 1259 q 873 1321 826 1320 q 950 1290 918 1320 q 983 1213 983 1259 q 950 1138 983 1169 q 873 1106 918 1106 z "},"Ẇ":{"ha":1438,"x_min":3,"x_max":1434,"o":"m 298 0 l 3 1010 l 273 1010 l 427 349 l 435 349 l 608 1010 l 829 1010 l 1002 347 l 1011 347 l 1164 1010 l 1434 1010 l 1140 0 l 904 0 l 723 612 l 715 612 l 534 0 l 298 0 m 719 1097 q 631 1131 668 1097 q 595 1213 595 1165 q 631 1295 595 1261 q 719 1329 668 1329 q 807 1295 770 1329 q 843 1213 843 1261 q 807 1131 843 1165 q 719 1097 770 1097 z "},"Ẉ":{"ha":1438,"x_min":3,"x_max":1434,"o":"m 298 0 l 3 1010 l 273 1010 l 427 349 l 435 349 l 608 1010 l 829 1010 l 1002 347 l 1011 347 l 1164 1010 l 1434 1010 l 1140 0 l 904 0 l 723 612 l 715 612 l 534 0 l 298 0 m 719 -294 q 631 -260 668 -294 q 595 -178 595 -226 q 631 -96 595 -130 q 719 -62 668 -62 q 807 -96 770 -62 q 843 -178 843 -130 q 807 -260 843 -226 q 719 -294 770 -294 z "},"Ẁ":{"ha":1438,"x_min":3,"x_max":1434,"o":"m 298 0 l 3 1010 l 273 1010 l 427 349 l 435 349 l 608 1010 l 829 1010 l 1002 347 l 1011 347 l 1164 1010 l 1434 1010 l 1140 0 l 904 0 l 723 612 l 715 612 l 534 0 l 298 0 m 640 1104 l 496 1318 l 708 1318 l 803 1104 l 640 1104 z "},"X":{"ha":987,"x_min":22,"x_max":966,"o":"m 304 1010 l 489 691 l 497 691 l 682 1010 l 956 1010 l 651 505 l 966 0 l 686 0 l 497 322 l 489 322 l 299 0 l 22 0 l 334 505 l 29 1010 l 304 1010 z "},"Ẍ":{"ha":987,"x_min":22,"x_max":966,"o":"m 304 1010 l 489 691 l 497 691 l 682 1010 l 956 1010 l 651 505 l 966 0 l 686 0 l 497 322 l 489 322 l 299 0 l 22 0 l 334 505 l 29 1010 l 304 1010 m 339 1106 q 260 1138 292 1106 q 227 1213 227 1169 q 260 1290 227 1259 q 339 1321 292 1320 q 417 1290 385 1320 q 450 1213 450 1259 q 417 1138 450 1169 q 339 1106 385 1106 m 647 1106 q 567 1138 600 1106 q 534 1213 534 1169 q 567 1290 534 1259 q 647 1321 600 1320 q 725 1290 692 1320 q 757 1213 757 1259 q 725 1138 757 1169 q 647 1106 692 1106 z "},"Ẋ":{"ha":987,"x_min":22,"x_max":966,"o":"m 304 1010 l 489 691 l 497 691 l 682 1010 l 956 1010 l 651 505 l 966 0 l 686 0 l 497 322 l 489 322 l 299 0 l 22 0 l 334 505 l 29 1010 l 304 1010 m 493 1097 q 406 1131 442 1097 q 369 1213 369 1165 q 406 1295 369 1261 q 493 1329 442 1329 q 581 1295 545 1329 q 617 1213 617 1261 q 581 1131 617 1165 q 493 1097 545 1097 z "},"Y":{"ha":996,"x_min":6,"x_max":988,"o":"m 6 1010 l 279 1010 l 492 587 l 502 587 l 716 1010 l 988 1010 l 618 337 l 618 0 l 376 0 l 376 337 l 6 1010 z "},"Ʀ":{"ha":1039,"x_min":46,"x_max":993,"o":"m 46 941 l 46 1080 l 286 1080 l 286 941 l 46 941 m 46 1010 l 446 1010 q 651 976 564 1010 q 786 875 738 941 q 833 711 833 809 q 806 567 833 625 q 729 473 779 509 q 616 412 680 437 l 536 366 l 199 366 l 198 557 l 446 557 q 527 572 494 557 q 577 617 559 588 q 593 685 594 646 q 577 756 594 727 q 527 801 560 785 q 446 817 494 817 l 288 817 l 288 0 l 46 0 l 46 1010 m 736 -235 l 382 437 l 636 437 l 993 -225 l 993 -235 l 736 -235 z "},"Ý":{"ha":996,"x_min":6,"x_max":988,"o":"m 6 1010 l 279 1010 l 492 587 l 502 587 l 716 1010 l 988 1010 l 618 337 l 618 0 l 376 0 l 376 337 l 6 1010 m 413 1104 l 507 1318 l 720 1318 l 575 1104 l 413 1104 z "},"Ŷ":{"ha":996,"x_min":6,"x_max":988,"o":"m 6 1010 l 279 1010 l 492 587 l 502 587 l 716 1010 l 988 1010 l 618 337 l 618 0 l 376 0 l 376 337 l 6 1010 m 594 1100 l 496 1215 l 399 1100 l 197 1100 l 197 1107 l 410 1329 l 583 1329 l 796 1107 l 796 1100 l 594 1100 z "},"Ÿ":{"ha":996,"x_min":6,"x_max":988,"o":"m 6 1010 l 279 1010 l 492 587 l 502 587 l 716 1010 l 988 1010 l 618 337 l 618 0 l 376 0 l 376 337 l 6 1010 m 343 1106 q 264 1138 296 1106 q 231 1213 231 1169 q 264 1290 231 1259 q 343 1321 296 1320 q 421 1290 389 1320 q 454 1213 454 1259 q 421 1138 454 1169 q 343 1106 389 1106 m 651 1106 q 571 1138 604 1106 q 538 1213 538 1169 q 571 1290 538 1259 q 651 1321 604 1320 q 729 1290 696 1320 q 761 1213 761 1259 q 729 1138 761 1169 q 651 1106 696 1106 z "},"Ẏ":{"ha":996,"x_min":6,"x_max":988,"o":"m 6 1010 l 279 1010 l 492 587 l 502 587 l 716 1010 l 988 1010 l 618 337 l 618 0 l 376 0 l 376 337 l 6 1010 m 497 1097 q 410 1131 446 1097 q 373 1213 373 1165 q 410 1295 373 1261 q 497 1329 446 1329 q 585 1295 549 1329 q 621 1213 621 1261 q 585 1131 621 1165 q 497 1097 549 1097 z "},"Ỵ":{"ha":996,"x_min":6,"x_max":988,"o":"m 6 1010 l 279 1010 l 492 587 l 502 587 l 716 1010 l 988 1010 l 618 337 l 618 0 l 376 0 l 376 337 l 6 1010 m 497 -296 q 410 -262 446 -296 q 373 -180 373 -228 q 410 -98 373 -132 q 497 -64 446 -64 q 585 -98 549 -64 q 621 -180 621 -132 q 585 -262 621 -228 q 497 -296 549 -296 z "},"Ỳ":{"ha":996,"x_min":6,"x_max":988,"o":"m 6 1010 l 279 1010 l 492 587 l 502 587 l 716 1010 l 988 1010 l 618 337 l 618 0 l 376 0 l 376 337 l 6 1010 m 418 1104 l 275 1318 l 486 1318 l 581 1104 l 418 1104 z "},"Ƴ":{"ha":1096,"x_min":16,"x_max":1098,"o":"m 526 564 l 526 587 l 551 587 l 551 564 l 526 564 m 16 1010 l 279 1010 l 538 578 l 719 876 q 828 987 765 953 q 961 1021 891 1021 q 1098 998 1031 1022 l 1047 817 q 962 819 992 833 q 902 758 932 805 l 659 382 l 659 0 l 418 0 l 418 382 l 16 1010 z "},"Ỷ":{"ha":996,"x_min":6,"x_max":988,"o":"m 6 1010 l 279 1010 l 492 587 l 502 587 l 716 1010 l 988 1010 l 618 337 l 618 0 l 376 0 l 376 337 l 6 1010 m 583 1120 l 407 1120 l 393 1203 q 468 1216 446 1204 q 490 1246 490 1228 q 463 1281 490 1273 q 393 1289 435 1289 l 399 1391 q 615 1356 541 1391 q 688 1256 689 1320 q 656 1191 689 1213 q 583 1161 623 1168 l 583 1120 z "},"Ỹ":{"ha":996,"x_min":6,"x_max":988,"o":"m 6 1010 l 279 1010 l 492 587 l 502 587 l 716 1010 l 988 1010 l 618 337 l 618 0 l 376 0 l 376 337 l 6 1010 m 595 1103 q 533 1114 559 1103 q 487 1140 507 1125 q 450 1167 467 1156 q 416 1179 433 1179 q 381 1160 393 1179 q 368 1107 369 1141 l 243 1107 q 289 1255 245 1205 q 399 1304 333 1304 q 461 1293 435 1304 q 508 1267 488 1282 q 544 1241 528 1252 q 578 1230 561 1230 q 616 1248 605 1230 q 629 1300 627 1266 l 751 1300 q 705 1154 749 1204 q 595 1103 661 1103 z "},"Z":{"ha":906,"x_min":54,"x_max":852,"o":"m 54 0 l 54 139 l 545 812 l 54 812 l 54 1010 l 852 1010 l 852 871 l 361 199 l 852 199 l 852 0 l 54 0 z "},"Ź":{"ha":906,"x_min":54,"x_max":852,"o":"m 54 0 l 54 139 l 545 812 l 54 812 l 54 1010 l 852 1010 l 852 871 l 361 199 l 852 199 l 852 0 l 54 0 m 372 1104 l 465 1318 l 678 1318 l 534 1104 l 372 1104 z "},"Ƶ":{"ha":906,"x_min":54,"x_max":852,"o":"m 54 0 l 54 139 l 545 812 l 54 812 l 54 1010 l 852 1010 l 852 871 l 361 199 l 852 199 l 852 0 l 54 0 m 216 469 l 216 604 l 726 604 l 726 469 l 216 469 z "},"Ž":{"ha":906,"x_min":54,"x_max":852,"o":"m 54 0 l 54 139 l 545 812 l 54 812 l 54 1010 l 852 1010 l 852 871 l 361 199 l 852 199 l 852 0 l 54 0 m 358 1329 l 456 1214 l 553 1329 l 755 1329 l 755 1321 l 543 1100 l 369 1100 l 156 1321 l 156 1329 l 358 1329 z "},"Ẑ":{"ha":906,"x_min":54,"x_max":852,"o":"m 54 0 l 54 139 l 545 812 l 54 812 l 54 1010 l 852 1010 l 852 871 l 361 199 l 852 199 l 852 0 l 54 0 m 553 1100 l 456 1215 l 358 1100 l 156 1100 l 156 1107 l 369 1329 l 543 1329 l 755 1107 l 755 1100 l 553 1100 z "},"Ż":{"ha":906,"x_min":54,"x_max":852,"o":"m 54 0 l 54 139 l 545 812 l 54 812 l 54 1010 l 852 1010 l 852 871 l 361 199 l 852 199 l 852 0 l 54 0 m 456 1097 q 368 1131 405 1097 q 332 1213 332 1165 q 368 1295 332 1261 q 456 1329 405 1329 q 544 1295 507 1329 q 580 1213 580 1261 q 544 1131 580 1165 q 456 1097 507 1097 z "},"Ẓ":{"ha":906,"x_min":54,"x_max":852,"o":"m 54 0 l 54 139 l 545 812 l 54 812 l 54 1010 l 852 1010 l 852 871 l 361 199 l 852 199 l 852 0 l 54 0 m 452 -296 q 365 -262 401 -296 q 328 -180 328 -228 q 365 -98 328 -132 q 452 -64 401 -64 q 540 -98 504 -64 q 576 -180 576 -132 q 540 -262 576 -228 q 452 -296 504 -296 z "},"Ẕ":{"ha":906,"x_min":54,"x_max":852,"o":"m 54 0 l 54 139 l 545 812 l 54 812 l 54 1010 l 852 1010 l 852 871 l 361 199 l 852 199 l 852 0 l 54 0 m 696 -127 l 696 -246 l 209 -246 l 209 -127 l 696 -127 z "},"Ɯ":{"ha":1309,"x_min":89,"x_max":1222,"o":"m 990 184 l 990 1010 l 1222 1010 l 1222 0 l 1016 0 l 990 184 m 1019 342 l 1085 343 q 1052 160 1085 241 q 953 33 1018 79 q 794 -14 888 -14 q 660 16 717 -14 q 571 110 602 45 q 540 285 540 176 l 540 1010 l 768 1010 l 768 285 q 780 222 768 248 q 814 184 791 197 q 868 172 836 172 q 957 194 924 172 q 1005 255 990 216 q 1019 342 1019 294 m 568 342 l 638 343 q 605 158 638 239 q 505 32 571 77 q 343 -14 439 -14 q 200 16 257 -14 q 116 111 143 45 q 89 285 89 176 l 89 1010 l 317 1010 l 317 285 q 330 222 318 248 q 363 184 341 197 q 416 172 385 172 q 506 194 473 172 q 553 254 538 216 q 568 342 568 292 z "},"Ƕ":{"ha":1525,"x_min":57,"x_max":1468,"o":"m 1084 -14 q 880 30 966 -14 q 746 153 793 73 q 699 346 699 233 l 699 406 l 300 406 l 300 0 l 57 0 l 57 1010 l 300 1010 l 300 605 l 699 605 l 699 1010 l 943 1010 l 943 346 q 981 230 943 271 q 1084 189 1019 189 q 1187 230 1150 189 q 1224 346 1224 271 l 1224 731 l 1468 731 l 1468 346 q 1422 153 1468 233 q 1289 30 1375 73 q 1084 -14 1203 -14 z "},"Ƿ":{"ha":1055,"x_min":110,"x_max":949,"o":"m 347 1010 l 347 -283 l 110 -283 l 110 1010 l 347 1010 m 245 -129 l 245 66 q 444 150 359 102 q 587 255 530 197 q 674 383 645 313 q 703 533 703 452 l 703 571 q 696 664 703 617 q 672 748 690 710 q 618 809 654 786 q 524 832 583 832 q 415 809 465 833 q 329 747 365 786 q 279 660 294 709 l 279 937 q 373 1000 311 975 q 522 1024 435 1024 q 743 971 646 1024 q 894 817 839 919 q 949 568 949 715 l 949 533 q 903 322 948 422 q 769 139 858 223 q 548 -13 680 54 q 245 -129 417 -80 z "},"Ǹ":{"ha":973,"x_min":57,"x_max":916,"o":"m 916 1010 l 916 0 l 710 0 l 308 583 l 300 583 l 300 0 l 57 0 l 57 1010 l 267 1010 l 665 429 l 673 429 l 673 1010 l 916 1010 m 409 1104 l 265 1318 l 477 1318 l 572 1104 l 409 1104 z "},"Ț":{"ha":902,"x_min":24,"x_max":878,"o":"m 24 812 l 24 1010 l 878 1010 l 878 812 l 571 812 l 571 0 l 331 0 l 331 812 l 24 812 m 280 -320 l 342 -80 l 562 -80 l 446 -320 l 280 -320 z "},"Ȟ":{"ha":1000,"x_min":57,"x_max":943,"o":"m 57 0 l 57 1010 l 300 1010 l 300 605 l 699 605 l 699 1010 l 943 1010 l 943 0 l 699 0 l 699 406 l 300 406 l 300 0 l 57 0 m 402 1329 l 500 1214 l 597 1329 l 800 1329 l 800 1321 l 587 1100 l 413 1100 l 200 1321 l 200 1329 l 402 1329 z "},"Ƞ":{"ha":913,"x_min":79,"x_max":836,"o":"m 836 -282 l 602 -282 l 602 728 q 587 792 602 767 q 541 829 571 817 q 468 841 511 841 q 301 788 382 840 q 146 636 220 736 l 146 850 q 307 978 216 932 q 502 1024 397 1024 q 672 988 597 1024 q 792 885 748 951 q 836 728 836 819 l 836 -282 m 311 1010 l 311 0 l 79 0 l 79 1010 l 311 1010 z "},"Ȣ":{"ha":911,"x_min":58,"x_max":857,"o":"m 450 637 l 465 637 q 672 601 585 637 q 806 494 759 564 q 853 323 853 424 q 804 143 853 218 q 668 27 755 68 q 465 -14 581 -14 l 450 -14 q 244 27 332 -14 q 107 142 156 67 q 58 320 58 217 q 105 493 58 422 q 240 601 152 564 q 450 637 328 637 m 465 469 l 450 469 q 342 430 382 469 q 302 320 302 391 q 342 214 302 252 q 450 176 382 175 l 465 176 q 570 213 531 175 q 609 323 609 252 q 570 431 609 393 q 465 469 531 469 m 448 663 l 464 663 q 546 670 513 663 q 595 698 578 677 q 612 758 612 719 q 596 812 612 793 q 545 839 581 831 l 545 1024 q 712 993 642 1025 q 819 902 781 962 q 857 758 857 842 q 809 611 857 669 q 673 525 761 553 q 464 496 585 496 l 448 496 q 239 524 326 496 q 105 610 152 552 q 58 758 58 668 q 95 903 58 843 q 201 994 132 962 q 368 1024 271 1025 l 368 839 q 317 813 332 832 q 302 758 302 793 q 318 697 302 718 q 367 670 334 677 q 448 663 399 663 z "},"Ȥ":{"ha":906,"x_min":54,"x_max":870,"o":"m 54 812 l 54 1010 l 852 1010 l 852 871 l 356 199 l 568 199 q 792 124 715 199 q 869 -81 870 50 l 869 -182 l 673 -182 l 673 -125 q 665 -63 673 -92 q 634 -17 657 -35 q 568 0 612 0 l 54 0 l 54 139 l 551 812 l 54 812 z "},"Ȧ":{"ha":1032,"x_min":12,"x_max":1019,"o":"m 275 0 l 12 0 l 354 1010 l 678 1010 l 1019 0 l 758 0 l 520 756 l 512 756 l 275 0 m 241 398 l 789 398 l 789 212 l 241 212 l 241 398 m 516 1097 q 429 1131 465 1097 q 392 1213 392 1165 q 429 1295 392 1261 q 516 1329 465 1329 q 604 1295 568 1329 q 640 1213 640 1261 q 604 1131 640 1165 q 516 1097 568 1097 z "},"Ȩ":{"ha":818,"x_min":57,"x_max":762,"o":"m 57 0 l 57 1010 l 762 1010 l 762 812 l 300 812 l 300 608 l 725 608 l 725 414 l 300 414 l 300 199 l 761 199 l 761 0 l 57 0 m 363 4 l 460 4 l 452 -41 q 539 -80 507 -49 q 572 -161 572 -112 q 499 -283 573 -239 q 293 -327 425 -328 l 292 -228 q 397 -213 360 -229 q 435 -167 434 -197 q 413 -121 437 -138 q 340 -98 390 -104 l 363 4 z "},"Ȫ":{"ha":1056,"x_min":46,"x_max":1010,"o":"m 528 -14 q 282 47 392 -14 q 110 223 173 107 q 46 505 46 338 q 110 788 46 671 q 282 964 173 904 q 528 1024 392 1024 q 773 964 664 1024 q 946 788 882 904 q 1010 505 1010 671 q 946 222 1010 338 q 773 46 882 106 q 528 -14 664 -14 m 528 200 q 653 235 601 200 q 733 338 705 271 q 761 505 761 406 q 733 672 761 604 q 653 775 705 740 q 528 810 601 810 q 404 775 456 810 q 323 672 351 740 q 295 505 295 604 q 323 338 295 406 q 404 235 351 271 q 528 200 456 200 m 374 1106 q 295 1138 328 1106 q 262 1213 262 1169 q 295 1290 262 1259 q 374 1321 328 1320 q 452 1290 420 1320 q 485 1213 485 1259 q 452 1138 485 1169 q 374 1106 420 1106 m 682 1106 q 603 1138 635 1106 q 570 1213 570 1169 q 603 1290 570 1259 q 682 1321 635 1320 q 760 1290 728 1320 q 792 1213 792 1259 q 760 1138 792 1169 q 682 1106 728 1106 m 772 1515 l 772 1396 l 284 1396 l 284 1515 l 772 1515 z "},"Ȭ":{"ha":1056,"x_min":46,"x_max":1010,"o":"m 528 -14 q 282 47 392 -14 q 110 223 173 107 q 46 505 46 338 q 110 788 46 671 q 282 964 173 904 q 528 1024 392 1024 q 773 964 664 1024 q 946 788 882 904 q 1010 505 1010 671 q 946 222 1010 338 q 773 46 882 106 q 528 -14 664 -14 m 528 200 q 653 235 601 200 q 733 338 705 271 q 761 505 761 406 q 733 672 761 604 q 653 775 705 740 q 528 810 601 810 q 404 775 456 810 q 323 672 351 740 q 295 505 295 604 q 323 338 295 406 q 404 235 351 271 q 528 200 456 200 m 644 1274 l 740 1246 q 707 1161 740 1199 q 625 1124 674 1124 q 560 1135 587 1124 q 510 1157 534 1145 q 456 1167 486 1168 q 425 1151 437 1168 q 412 1109 412 1133 l 319 1136 q 350 1222 319 1184 q 432 1259 381 1259 q 490 1249 463 1259 q 545 1227 517 1238 q 601 1217 572 1217 q 631 1233 618 1216 q 644 1274 644 1250 m 772 1458 l 772 1337 l 283 1337 l 283 1458 l 772 1458 z "},"Ȯ":{"ha":1056,"x_min":46,"x_max":1010,"o":"m 528 -14 q 282 47 392 -14 q 110 223 173 107 q 46 505 46 338 q 110 788 46 671 q 282 964 173 904 q 528 1024 392 1024 q 773 964 664 1024 q 946 788 882 904 q 1010 505 1010 671 q 946 222 1010 338 q 773 46 882 106 q 528 -14 664 -14 m 528 200 q 653 235 601 200 q 733 338 705 271 q 761 505 761 406 q 733 672 761 604 q 653 775 705 740 q 528 810 601 810 q 404 775 456 810 q 323 672 351 740 q 295 505 295 604 q 323 338 295 406 q 404 235 351 271 q 528 200 456 200 m 528 1097 q 440 1131 477 1097 q 404 1213 404 1165 q 440 1295 404 1261 q 528 1329 477 1329 q 615 1295 579 1329 q 652 1213 652 1261 q 615 1131 652 1165 q 528 1097 579 1097 z "},"Ȱ":{"ha":1056,"x_min":46,"x_max":1010,"o":"m 528 -14 q 282 47 392 -14 q 110 223 173 107 q 46 505 46 338 q 110 788 46 671 q 282 964 173 904 q 528 1024 392 1024 q 773 964 664 1024 q 946 788 882 904 q 1010 505 1010 671 q 946 222 1010 338 q 773 46 882 106 q 528 -14 664 -14 m 528 200 q 653 235 601 200 q 733 338 705 271 q 761 505 761 406 q 733 672 761 604 q 653 775 705 740 q 528 810 601 810 q 404 775 456 810 q 323 672 351 740 q 295 505 295 604 q 323 338 295 406 q 404 235 351 271 q 528 200 456 200 m 528 1106 q 449 1138 481 1106 q 415 1213 416 1169 q 449 1289 416 1258 q 528 1321 481 1320 q 608 1289 575 1320 q 642 1213 642 1258 q 608 1138 642 1169 q 528 1106 575 1106 m 772 1515 l 772 1396 l 285 1396 l 285 1515 l 772 1515 z "},"Ȳ":{"ha":996,"x_min":6,"x_max":988,"o":"m 6 1010 l 279 1010 l 492 587 l 502 587 l 716 1010 l 988 1010 l 618 337 l 618 0 l 376 0 l 376 337 l 6 1010 m 741 1263 l 741 1143 l 253 1143 l 253 1263 l 741 1263 z "},"Ⱥ":{"ha":1032,"x_min":12,"x_max":1019,"o":"m 852 1138 l 456 -129 l 321 -129 l 718 1138 l 852 1138 m 275 0 l 12 0 l 354 1010 l 678 1010 l 1019 0 l 758 0 l 520 756 l 512 756 l 275 0 m 241 398 l 789 398 l 789 212 l 241 212 l 241 398 z "},"Ȼ":{"ha":1017,"x_min":46,"x_max":974,"o":"m 245 -129 l 642 1138 l 777 1138 l 380 -129 l 245 -129 m 525 -14 q 280 47 388 -14 q 109 223 172 107 q 46 505 46 338 q 110 788 46 671 q 282 964 173 904 q 525 1024 391 1024 q 694 999 616 1024 q 832 924 772 973 q 928 805 891 876 q 974 644 964 734 l 727 644 q 707 712 722 682 q 666 765 692 743 q 607 799 641 787 q 531 810 573 810 q 405 774 458 810 q 323 670 352 738 q 295 505 295 602 q 324 337 295 405 q 405 234 353 269 q 530 200 458 200 q 604 211 570 200 q 662 241 637 221 q 704 290 688 261 q 727 355 721 319 l 974 355 q 935 222 967 288 q 847 103 903 157 q 709 18 790 50 q 525 -14 629 -14 z "},"Ⱦ":{"ha":902,"x_min":24,"x_max":878,"o":"m 203 -129 l 600 1138 l 735 1138 l 338 -129 l 203 -129 m 24 812 l 24 1010 l 878 1010 l 878 812 l 571 812 l 571 0 l 331 0 l 331 812 l 24 812 z "},"Ɂ":{"ha":777,"x_min":37,"x_max":741,"o":"m 289 361 l 377 361 q 452 384 427 361 q 487 446 477 406 q 496 538 496 486 l 496 648 q 493 706 496 675 q 478 765 490 737 q 442 810 466 793 q 377 828 418 828 q 293 795 320 828 q 266 716 265 762 l 37 716 q 81 880 37 811 q 202 986 125 949 q 372 1024 278 1024 q 571 975 489 1024 q 697 841 654 926 q 741 648 741 756 l 741 538 q 697 349 741 433 q 572 216 654 264 q 371 167 490 168 l 289 167 l 289 361 m 508 361 l 508 0 l 266 0 l 266 361 l 508 361 z "},"Ƀ":{"ha":975,"x_min":7,"x_max":953,"o":"m 149 0 l 149 1010 l 570 1010 q 760 978 683 1010 q 875 888 836 946 q 913 755 913 831 q 889 652 913 697 q 823 577 865 607 q 725 536 781 547 l 725 525 q 838 493 786 523 q 921 409 890 463 q 953 283 953 355 q 912 137 953 201 q 792 37 871 73 q 602 0 714 0 l 149 0 m 392 197 l 544 197 q 661 227 623 197 q 699 311 699 258 q 680 378 699 350 q 628 422 662 407 q 549 438 595 438 l 392 438 l 392 197 m 392 595 l 528 595 q 598 608 568 595 q 647 647 629 622 q 665 707 665 671 q 629 787 665 758 q 532 817 593 817 l 392 817 l 392 595 m 7 251 l 7 386 l 517 386 l 517 251 l 7 251 z "},"Ʉ":{"ha":1025,"x_min":-27,"x_max":1052,"o":"m 1052 570 l 1052 434 l -27 434 l -27 570 l 1052 570 m 702 1010 l 945 1010 l 945 359 q 892 162 945 246 q 742 33 838 79 q 517 -14 646 -14 q 294 33 390 -14 q 144 162 197 79 q 91 359 91 246 l 91 1010 l 334 1010 l 334 380 q 358 286 334 327 q 422 222 381 245 q 517 199 463 199 q 614 222 572 199 q 679 286 655 245 q 702 380 702 327 l 702 1010 z "},"Ʌ":{"ha":1039,"x_min":41,"x_max":996,"o":"m 729 0 l 509 768 l 474 1010 l 648 1010 l 996 0 l 729 0 m 530 768 l 309 0 l 41 0 l 389 1010 l 563 1010 l 530 768 z "},"Ɇ":{"ha":818,"x_min":57,"x_max":762,"o":"m 676 1138 l 311 -129 l 199 -129 l 565 1138 l 676 1138 m 57 0 l 57 1010 l 762 1010 l 762 812 l 300 812 l 300 608 l 725 608 l 725 414 l 300 414 l 300 199 l 761 199 l 761 0 l 57 0 z "},"Ɉ":{"ha":765,"x_min":5,"x_max":840,"o":"m 358 -14 q 183 20 264 -14 q 54 122 102 53 q 5 300 5 191 l 5 308 l 248 308 l 248 300 q 262 234 248 261 q 300 193 275 207 q 358 178 325 178 q 418 193 393 178 q 455 238 442 208 q 467 311 467 268 l 467 1010 l 708 1010 l 708 311 q 665 140 708 214 q 544 27 623 67 q 358 -14 465 -14 m 329 536 l 329 671 l 840 671 l 840 536 l 329 536 z "},"Ɍ":{"ha":912,"x_min":-9,"x_max":904,"o":"m 229 364 l -9 364 l -9 541 l 229 541 l 229 364 m 83 0 l 83 1010 l 500 1010 q 696 969 614 1010 q 824 853 779 928 q 869 674 869 777 q 824 496 869 569 q 693 384 778 422 q 492 346 608 346 l 229 346 l 229 538 l 448 538 q 540 553 503 538 q 597 597 578 567 q 616 674 616 627 q 597 752 616 721 q 540 798 578 783 q 447 813 503 813 l 327 813 l 327 0 l 83 0 m 637 0 l 391 462 l 652 462 l 904 0 l 637 0 z "},"Ɏ":{"ha":996,"x_min":-5,"x_max":1000,"o":"m 1000 799 l 1000 680 l -5 680 l -5 799 l 1000 799 m 6 1010 l 279 1010 l 492 587 l 502 587 l 716 1010 l 988 1010 l 618 337 l 618 0 l 376 0 l 376 337 l 6 1010 z "},"Ỻ":{"ha":1331,"x_min":109,"x_max":1119,"o":"m 109 0 l 109 1010 l 353 1010 l 353 199 l 774 199 l 774 0 l 109 0 m 455 0 l 455 1010 l 699 1010 l 699 199 l 1120 199 l 1120 0 l 455 0 z "},"Ỽ":{"ha":920,"x_min":84,"x_max":838,"o":"m 484 496 l 595 656 q 715 576 661 626 q 804 461 770 526 q 838 321 838 397 q 791 139 838 214 q 662 25 745 64 q 473 -14 580 -14 q 318 13 389 -14 q 194 89 247 39 q 113 214 142 140 q 84 387 84 289 l 84 430 q 129 659 84 557 q 250 834 173 760 q 427 950 327 907 q 637 1004 526 994 l 659 817 q 534 781 593 806 q 429 709 475 755 q 356 591 382 663 q 329 414 329 519 l 329 350 q 343 259 330 298 q 388 200 357 220 q 467 179 418 179 q 535 194 506 179 q 582 238 565 210 q 598 307 599 267 q 585 381 599 347 q 546 444 572 416 q 484 496 521 473 z "},"Ỿ":{"ha":1033,"x_min":12,"x_max":1035,"o":"m 510 450 l 779 1010 l 1035 1010 l 578 146 l 514 354 l 510 450 m 363 1010 l 633 441 l 595 324 l 472 324 l 109 1010 l 363 1010 m 311 -14 q 161 26 229 -14 q 52 132 93 65 q 12 279 12 198 q 52 427 12 359 q 160 534 92 494 q 311 574 229 574 q 463 535 395 574 q 571 428 530 495 q 612 279 612 361 q 571 132 612 199 q 462 26 530 66 q 311 -14 394 -14 m 311 179 q 382 206 353 180 q 410 282 410 232 q 382 357 410 330 q 311 382 353 383 q 240 357 268 383 q 212 282 212 330 q 224 226 212 249 q 260 191 237 203 q 311 179 283 180 z "},"Ɀ":{"ha":906,"x_min":52,"x_max":856,"o":"m 736 -296 q 618 -274 669 -296 q 523 -219 566 -253 q 439 -148 480 -186 q 353 -76 398 -110 q 252 -21 308 -43 q 124 0 197 0 l 52 0 l 52 128 l 534 817 l 52 817 l 52 1010 l 844 1010 l 844 883 l 346 166 q 449 111 403 144 q 533 40 494 77 q 606 -29 571 3 q 677 -82 641 -62 q 754 -102 713 -102 q 807 -99 783 -102 q 856 -87 832 -95 l 856 -274 q 802 -290 833 -283 q 736 -296 772 -296 z "},"ɢ":{"ha":913,"x_min":87,"x_max":827,"o":"m 827 406 l 827 111 q 760 55 801 83 q 650 7 718 26 q 473 -12 581 -12 q 274 29 361 -12 q 138 144 187 71 q 87 313 88 217 l 87 425 q 136 594 88 522 q 267 707 183 667 q 459 747 351 748 q 642 721 566 748 q 764 635 719 693 q 820 483 810 576 l 591 483 q 550 547 580 529 q 459 566 520 566 q 384 548 414 566 q 337 499 353 530 q 320 426 321 467 l 320 313 q 338 241 321 273 q 389 191 355 209 q 473 172 422 172 q 543 174 518 172 q 582 179 568 175 q 610 190 597 183 l 610 257 l 467 257 l 467 406 l 827 406 z "},"ʛ":{"ha":1052,"x_min":100,"x_max":979,"o":"m 831 483 l 642 483 l 642 585 q 707 769 642 705 q 885 833 772 833 q 933 831 911 833 q 979 822 955 828 l 979 670 q 951 673 965 671 q 922 675 938 675 q 855 655 879 675 q 831 585 831 635 l 831 483 m 838 406 l 838 111 q 770 55 811 83 q 660 7 728 26 q 484 -12 592 -12 q 285 29 372 -12 q 149 144 198 71 q 100 313 100 217 l 100 425 q 147 594 100 522 q 278 707 194 667 q 470 747 361 748 q 653 721 576 748 q 775 635 730 693 q 831 483 821 576 l 602 483 q 561 547 591 529 q 470 566 531 566 q 394 548 425 566 q 348 499 363 530 q 332 426 332 467 l 332 313 q 349 241 332 273 q 399 191 366 209 q 484 172 433 172 q 554 174 529 172 q 593 179 578 175 q 621 190 608 183 l 621 257 l 477 257 l 477 406 l 838 406 z "},"ɪ":{"ha":664,"x_min":111,"x_max":553,"o":"m 553 734 l 553 549 l 111 549 l 111 734 l 553 734 m 446 734 l 446 0 l 215 0 l 215 734 l 446 734 m 553 186 l 553 0 l 111 0 l 111 186 l 553 186 z "},"ʟ":{"ha":646,"x_min":43,"x_max":604,"o":"m 604 184 l 604 0 l 185 0 l 185 184 l 604 184 m 275 734 l 275 0 l 43 0 l 43 734 l 275 734 z "},"ɴ":{"ha":843,"x_min":57,"x_max":786,"o":"m 786 758 l 786 0 l 564 0 l 297 359 l 290 359 l 290 0 l 57 0 l 57 758 l 251 758 l 541 372 l 549 372 l 549 758 l 786 758 z "},"ɶ":{"ha":1164,"x_min":52,"x_max":1111,"o":"m 1111 184 l 1111 0 l 678 0 l 678 184 l 1111 184 m 767 734 l 767 0 l 535 0 l 535 734 l 767 734 m 1049 460 l 1049 275 l 678 275 l 678 460 l 1049 460 m 1111 734 l 1111 550 l 678 550 l 678 734 l 1111 734 m 421 -14 q 220 35 302 -14 q 95 169 138 84 q 52 359 52 253 l 52 374 q 95 566 52 481 q 219 699 137 650 q 418 747 300 748 q 497 744 463 748 q 575 737 531 741 q 690 734 618 734 l 690 550 q 570 554 617 551 q 488 560 522 557 q 418 563 454 564 q 338 537 368 564 q 297 468 309 511 q 285 374 285 425 l 285 359 q 297 264 285 307 q 338 197 309 221 q 421 172 368 172 q 488 175 454 172 q 569 181 522 178 q 690 184 617 184 l 690 0 q 598 -2 635 0 q 532 -7 560 -4 q 479 -12 505 -9 q 421 -14 453 -14 z "},"ʀ":{"ha":916,"x_min":110,"x_max":808,"o":"m 368 376 l 599 376 l 808 0 l 575 0 l 368 376 m 110 734 l 452 734 q 632 700 556 734 q 748 609 707 667 q 789 477 789 551 q 748 354 789 408 q 631 269 707 300 q 452 238 555 239 l 250 238 l 250 391 l 452 391 q 533 415 506 391 q 560 469 560 439 q 533 526 560 502 q 452 550 507 550 l 340 550 l 340 0 l 110 0 l 110 734 z "},"ʁ":{"ha":916,"x_min":110,"x_max":808,"o":"m 599 358 l 368 358 l 575 734 l 808 734 l 599 358 m 452 0 l 110 0 l 110 734 l 340 734 l 340 184 l 452 184 q 533 211 505 184 q 560 264 560 237 q 533 317 560 292 q 452 343 506 342 l 250 343 l 250 496 l 452 496 q 631 465 555 496 q 748 380 707 434 q 789 256 789 326 q 748 124 789 182 q 631 33 707 66 q 452 0 555 0 z "},"ʏ":{"ha":768,"x_min":-5,"x_max":772,"o":"m 341 330 l 526 734 l 772 734 l 484 205 l 364 205 l 341 330 m 245 734 l 430 326 l 406 205 l 285 205 l -5 734 l 245 734 m 496 317 l 496 0 l 267 0 l 267 317 l 496 317 z "},"a":{"ha":781,"x_min":22,"x_max":724,"o":"m 271 -14 q 142 11 199 -14 q 54 85 85 36 q 22 210 22 135 q 44 317 22 273 q 105 387 66 360 q 195 429 144 414 q 303 448 245 444 q 407 460 368 454 q 464 479 446 466 q 482 515 482 492 l 482 518 q 456 576 482 555 q 386 597 431 597 q 309 576 338 597 q 272 519 280 555 l 50 527 q 101 651 60 596 q 214 736 142 705 q 389 768 286 768 q 522 751 460 768 q 628 701 583 734 q 699 622 673 669 q 724 515 724 575 l 724 0 l 496 0 l 496 106 l 491 106 q 439 41 470 67 q 366 0 408 14 q 271 -14 324 -14 m 345 145 q 415 161 384 145 q 466 205 447 177 q 484 270 484 233 l 484 341 q 459 331 474 336 q 427 323 445 327 q 392 316 410 319 q 357 311 374 313 q 299 294 323 306 q 262 264 275 282 q 250 222 250 247 q 277 165 250 184 q 345 145 303 145 z "},"á":{"ha":781,"x_min":22,"x_max":724,"o":"m 271 -14 q 142 11 199 -14 q 54 85 85 36 q 22 210 22 135 q 44 317 22 273 q 105 387 66 360 q 195 429 144 414 q 303 448 245 444 q 407 460 368 454 q 464 479 446 466 q 482 515 482 492 l 482 518 q 456 576 482 555 q 386 597 431 597 q 309 576 338 597 q 272 519 280 555 l 50 527 q 101 651 60 596 q 214 736 142 705 q 389 768 286 768 q 522 751 460 768 q 628 701 583 734 q 699 622 673 669 q 724 515 724 575 l 724 0 l 496 0 l 496 106 l 491 106 q 439 41 470 67 q 366 0 408 14 q 271 -14 324 -14 m 345 145 q 415 161 384 145 q 466 205 447 177 q 484 270 484 233 l 484 341 q 459 331 474 336 q 427 323 445 327 q 392 316 410 319 q 357 311 374 313 q 299 294 323 306 q 262 264 275 282 q 250 222 250 247 q 277 165 250 184 q 345 145 303 145 m 312 852 l 406 1066 l 618 1066 l 474 852 l 312 852 z "},"ă":{"ha":781,"x_min":22,"x_max":724,"o":"m 271 -14 q 142 11 199 -14 q 54 85 85 36 q 22 210 22 135 q 44 317 22 273 q 105 387 66 360 q 195 429 144 414 q 303 448 245 444 q 407 460 368 454 q 464 479 446 466 q 482 515 482 492 l 482 518 q 456 576 482 555 q 386 597 431 597 q 309 576 338 597 q 272 519 280 555 l 50 527 q 101 651 60 596 q 214 736 142 705 q 389 768 286 768 q 522 751 460 768 q 628 701 583 734 q 699 622 673 669 q 724 515 724 575 l 724 0 l 496 0 l 496 106 l 491 106 q 439 41 470 67 q 366 0 408 14 q 271 -14 324 -14 m 345 145 q 415 161 384 145 q 466 205 447 177 q 484 270 484 233 l 484 341 q 459 331 474 336 q 427 323 445 327 q 392 316 410 319 q 357 311 374 313 q 299 294 323 306 q 262 264 275 282 q 250 222 250 247 q 277 165 250 184 q 345 145 303 145 m 395 842 q 209 900 281 842 q 138 1054 138 959 l 296 1054 q 322 988 296 1013 q 395 964 349 964 q 467 988 441 964 q 494 1054 494 1013 l 653 1054 q 582 900 653 959 q 395 842 511 842 z "},"ắ":{"ha":781,"x_min":22,"x_max":724,"o":"m 271 -14 q 142 11 199 -14 q 54 85 85 36 q 22 210 22 135 q 44 317 22 273 q 105 387 66 360 q 195 429 144 414 q 303 448 245 444 q 407 460 368 454 q 464 479 446 466 q 482 515 482 492 l 482 518 q 456 576 482 555 q 386 597 431 597 q 309 576 338 597 q 272 519 280 555 l 50 527 q 101 651 60 596 q 214 736 142 705 q 389 768 286 768 q 522 751 460 768 q 628 701 583 734 q 699 622 673 669 q 724 515 724 575 l 724 0 l 496 0 l 496 106 l 491 106 q 439 41 470 67 q 366 0 408 14 q 271 -14 324 -14 m 345 145 q 415 161 384 145 q 466 205 447 177 q 484 270 484 233 l 484 341 q 459 331 474 336 q 427 323 445 327 q 392 316 410 319 q 357 311 374 313 q 299 294 323 306 q 262 264 275 282 q 250 222 250 247 q 277 165 250 184 q 345 145 303 145 m 507 1002 l 653 1002 q 582 880 652 926 q 394 832 512 833 q 207 880 276 833 q 138 1002 137 926 l 280 1002 q 306 948 279 972 q 394 924 332 924 q 481 948 456 924 q 507 1002 507 972 m 330 995 l 422 1118 l 578 1118 l 452 995 l 330 995 z "},"ặ":{"ha":781,"x_min":22,"x_max":724,"o":"m 271 -14 q 142 11 199 -14 q 54 85 85 36 q 22 210 22 135 q 44 317 22 273 q 105 387 66 360 q 195 429 144 414 q 303 448 245 444 q 407 460 368 454 q 464 479 446 466 q 482 515 482 492 l 482 518 q 456 576 482 555 q 386 597 431 597 q 309 576 338 597 q 272 519 280 555 l 50 527 q 101 651 60 596 q 214 736 142 705 q 389 768 286 768 q 522 751 460 768 q 628 701 583 734 q 699 622 673 669 q 724 515 724 575 l 724 0 l 496 0 l 496 106 l 491 106 q 439 41 470 67 q 366 0 408 14 q 271 -14 324 -14 m 345 145 q 415 161 384 145 q 466 205 447 177 q 484 270 484 233 l 484 341 q 459 331 474 336 q 427 323 445 327 q 392 316 410 319 q 357 311 374 313 q 299 294 323 306 q 262 264 275 282 q 250 222 250 247 q 277 165 250 184 q 345 145 303 145 m 395 842 q 209 900 281 842 q 138 1054 138 959 l 296 1054 q 322 988 296 1013 q 395 964 349 964 q 467 988 441 964 q 494 1054 494 1013 l 653 1054 q 582 900 653 959 q 395 842 511 842 m 387 -296 q 299 -262 336 -296 q 262 -180 262 -228 q 299 -98 262 -132 q 387 -64 336 -64 q 474 -98 438 -64 q 511 -180 511 -132 q 474 -262 511 -228 q 387 -296 438 -296 z "},"ằ":{"ha":781,"x_min":22,"x_max":724,"o":"m 271 -14 q 142 11 199 -14 q 54 85 85 36 q 22 210 22 135 q 44 317 22 273 q 105 387 66 360 q 195 429 144 414 q 303 448 245 444 q 407 460 368 454 q 464 479 446 466 q 482 515 482 492 l 482 518 q 456 576 482 555 q 386 597 431 597 q 309 576 338 597 q 272 519 280 555 l 50 527 q 101 651 60 596 q 214 736 142 705 q 389 768 286 768 q 522 751 460 768 q 628 701 583 734 q 699 622 673 669 q 724 515 724 575 l 724 0 l 496 0 l 496 106 l 491 106 q 439 41 470 67 q 366 0 408 14 q 271 -14 324 -14 m 345 145 q 415 161 384 145 q 466 205 447 177 q 484 270 484 233 l 484 341 q 459 331 474 336 q 427 323 445 327 q 392 316 410 319 q 357 311 374 313 q 299 294 323 306 q 262 264 275 282 q 250 222 250 247 q 277 165 250 184 q 345 145 303 145 m 507 1003 l 653 1003 q 583 883 652 930 q 394 836 513 836 q 207 883 276 836 q 138 1003 137 930 l 280 1003 q 306 950 279 975 q 394 926 332 926 q 481 950 454 926 q 507 1003 507 975 m 343 995 l 215 1118 l 372 1118 l 462 995 l 343 995 z "},"ẳ":{"ha":781,"x_min":22,"x_max":724,"o":"m 271 -14 q 142 11 199 -14 q 54 85 85 36 q 22 210 22 135 q 44 317 22 273 q 105 387 66 360 q 195 429 144 414 q 303 448 245 444 q 407 460 368 454 q 464 479 446 466 q 482 515 482 492 l 482 518 q 456 576 482 555 q 386 597 431 597 q 309 576 338 597 q 272 519 280 555 l 50 527 q 101 651 60 596 q 214 736 142 705 q 389 768 286 768 q 522 751 460 768 q 628 701 583 734 q 699 622 673 669 q 724 515 724 575 l 724 0 l 496 0 l 496 106 l 491 106 q 439 41 470 67 q 366 0 408 14 q 271 -14 324 -14 m 345 145 q 415 161 384 145 q 466 205 447 177 q 484 270 484 233 l 484 341 q 459 331 474 336 q 427 323 445 327 q 392 316 410 319 q 357 311 374 313 q 299 294 323 306 q 262 264 275 282 q 250 222 250 247 q 277 165 250 184 q 345 145 303 145 m 508 987 l 654 987 q 584 867 654 912 q 391 821 513 821 q 201 867 271 821 q 131 987 132 912 l 275 987 q 303 937 276 958 q 391 917 330 917 q 481 938 454 917 q 508 987 509 958 m 456 1012 l 316 1012 l 299 1077 q 373 1086 350 1078 q 396 1108 396 1095 q 369 1137 396 1131 q 300 1143 342 1143 l 307 1222 q 497 1195 432 1223 q 560 1116 562 1168 q 529 1065 562 1082 q 456 1042 496 1048 l 456 1012 z "},"ẵ":{"ha":781,"x_min":22,"x_max":724,"o":"m 271 -14 q 142 11 199 -14 q 54 85 85 36 q 22 210 22 135 q 44 317 22 273 q 105 387 66 360 q 195 429 144 414 q 303 448 245 444 q 407 460 368 454 q 464 479 446 466 q 482 515 482 492 l 482 518 q 456 576 482 555 q 386 597 431 597 q 309 576 338 597 q 272 519 280 555 l 50 527 q 101 651 60 596 q 214 736 142 705 q 389 768 286 768 q 522 751 460 768 q 628 701 583 734 q 699 622 673 669 q 724 515 724 575 l 724 0 l 496 0 l 496 106 l 491 106 q 439 41 470 67 q 366 0 408 14 q 271 -14 324 -14 m 345 145 q 415 161 384 145 q 466 205 447 177 q 484 270 484 233 l 484 341 q 459 331 474 336 q 427 323 445 327 q 392 316 410 319 q 357 311 374 313 q 299 294 323 306 q 262 264 275 282 q 250 222 250 247 q 277 165 250 184 q 345 145 303 145 m 505 989 l 650 989 q 579 866 649 913 q 391 821 509 820 q 204 866 274 820 q 134 989 134 913 l 277 989 q 303 939 277 960 q 391 919 328 919 q 478 939 451 919 q 505 989 505 959 m 503 1203 l 597 1175 q 565 1089 597 1126 q 484 1053 532 1052 q 419 1063 446 1053 q 368 1085 392 1074 q 315 1095 344 1096 q 282 1079 296 1095 q 269 1038 269 1063 l 177 1064 q 208 1150 176 1113 q 291 1187 240 1187 q 347 1177 320 1187 q 402 1155 374 1166 q 460 1145 429 1145 q 489 1161 475 1144 q 503 1203 502 1178 z "},"ǎ":{"ha":781,"x_min":22,"x_max":724,"o":"m 271 -14 q 142 11 199 -14 q 54 85 85 36 q 22 210 22 135 q 44 317 22 273 q 105 387 66 360 q 195 429 144 414 q 303 448 245 444 q 407 460 368 454 q 464 479 446 466 q 482 515 482 492 l 482 518 q 456 576 482 555 q 386 597 431 597 q 309 576 338 597 q 272 519 280 555 l 50 527 q 101 651 60 596 q 214 736 142 705 q 389 768 286 768 q 522 751 460 768 q 628 701 583 734 q 699 622 673 669 q 724 515 724 575 l 724 0 l 496 0 l 496 106 l 491 106 q 439 41 470 67 q 366 0 408 14 q 271 -14 324 -14 m 345 145 q 415 161 384 145 q 466 205 447 177 q 484 270 484 233 l 484 341 q 459 331 474 336 q 427 323 445 327 q 392 316 410 319 q 357 311 374 313 q 299 294 323 306 q 262 264 275 282 q 250 222 250 247 q 277 165 250 184 q 345 145 303 145 m 298 1076 l 395 962 l 493 1076 l 695 1076 l 695 1069 l 482 848 l 309 848 l 96 1069 l 96 1076 l 298 1076 z "},"â":{"ha":781,"x_min":22,"x_max":724,"o":"m 271 -14 q 142 11 199 -14 q 54 85 85 36 q 22 210 22 135 q 44 317 22 273 q 105 387 66 360 q 195 429 144 414 q 303 448 245 444 q 407 460 368 454 q 464 479 446 466 q 482 515 482 492 l 482 518 q 456 576 482 555 q 386 597 431 597 q 309 576 338 597 q 272 519 280 555 l 50 527 q 101 651 60 596 q 214 736 142 705 q 389 768 286 768 q 522 751 460 768 q 628 701 583 734 q 699 622 673 669 q 724 515 724 575 l 724 0 l 496 0 l 496 106 l 491 106 q 439 41 470 67 q 366 0 408 14 q 271 -14 324 -14 m 345 145 q 415 161 384 145 q 466 205 447 177 q 484 270 484 233 l 484 341 q 459 331 474 336 q 427 323 445 327 q 392 316 410 319 q 357 311 374 313 q 299 294 323 306 q 262 264 275 282 q 250 222 250 247 q 277 165 250 184 q 345 145 303 145 m 493 848 l 395 962 l 298 848 l 96 848 l 96 854 l 309 1076 l 482 1076 l 695 854 l 695 848 l 493 848 z "},"ấ":{"ha":781,"x_min":22,"x_max":890,"o":"m 271 -14 q 142 11 199 -14 q 54 85 85 36 q 22 210 22 135 q 44 317 22 273 q 105 387 66 360 q 195 429 144 414 q 303 448 245 444 q 407 460 368 454 q 464 479 446 466 q 482 515 482 492 l 482 518 q 456 576 482 555 q 386 597 431 597 q 309 576 338 597 q 272 519 280 555 l 50 527 q 101 651 60 596 q 214 736 142 705 q 389 768 286 768 q 522 751 460 768 q 628 701 583 734 q 699 622 673 669 q 724 515 724 575 l 724 0 l 496 0 l 496 106 l 491 106 q 439 41 470 67 q 366 0 408 14 q 271 -14 324 -14 m 345 145 q 415 161 384 145 q 466 205 447 177 q 484 270 484 233 l 484 341 q 459 331 474 336 q 427 323 445 327 q 392 316 410 319 q 357 311 374 313 q 299 294 323 306 q 262 264 275 282 q 250 222 250 247 q 277 165 250 184 q 345 145 303 145 m 138 837 l 336 981 l 451 981 l 651 837 l 496 837 l 395 913 l 292 837 l 138 837 m 599 913 l 722 1099 l 890 1099 l 724 913 l 599 913 z "},"ậ":{"ha":781,"x_min":22,"x_max":724,"o":"m 271 -14 q 142 11 199 -14 q 54 85 85 36 q 22 210 22 135 q 44 317 22 273 q 105 387 66 360 q 195 429 144 414 q 303 448 245 444 q 407 460 368 454 q 464 479 446 466 q 482 515 482 492 l 482 518 q 456 576 482 555 q 386 597 431 597 q 309 576 338 597 q 272 519 280 555 l 50 527 q 101 651 60 596 q 214 736 142 705 q 389 768 286 768 q 522 751 460 768 q 628 701 583 734 q 699 622 673 669 q 724 515 724 575 l 724 0 l 496 0 l 496 106 l 491 106 q 439 41 470 67 q 366 0 408 14 q 271 -14 324 -14 m 345 145 q 415 161 384 145 q 466 205 447 177 q 484 270 484 233 l 484 341 q 459 331 474 336 q 427 323 445 327 q 392 316 410 319 q 357 311 374 313 q 299 294 323 306 q 262 264 275 282 q 250 222 250 247 q 277 165 250 184 q 345 145 303 145 m 493 848 l 395 962 l 298 848 l 96 848 l 96 854 l 309 1076 l 482 1076 l 695 854 l 695 848 l 493 848 m 387 -295 q 299 -261 336 -295 q 263 -180 263 -227 q 299 -98 263 -132 q 387 -64 336 -64 q 474 -98 438 -64 q 511 -180 511 -132 q 474 -261 511 -227 q 387 -295 438 -295 z "},"ầ":{"ha":781,"x_min":-99,"x_max":724,"o":"m 271 -14 q 142 11 199 -14 q 54 85 85 36 q 22 210 22 135 q 44 317 22 273 q 105 387 66 360 q 195 429 144 414 q 303 448 245 444 q 407 460 368 454 q 464 479 446 466 q 482 515 482 492 l 482 518 q 456 576 482 555 q 386 597 431 597 q 309 576 338 597 q 272 519 280 555 l 50 527 q 101 651 60 596 q 214 736 142 705 q 389 768 286 768 q 522 751 460 768 q 628 701 583 734 q 699 622 673 669 q 724 515 724 575 l 724 0 l 496 0 l 496 106 l 491 106 q 439 41 470 67 q 366 0 408 14 q 271 -14 324 -14 m 345 145 q 415 161 384 145 q 466 205 447 177 q 484 270 484 233 l 484 341 q 459 331 474 336 q 427 323 445 327 q 392 316 410 319 q 357 311 374 313 q 299 294 323 306 q 262 264 275 282 q 250 222 250 247 q 277 165 250 184 q 345 145 303 145 m 452 978 l 652 833 l 496 833 l 395 909 l 292 833 l 138 833 l 336 978 l 452 978 m 67 1095 l 190 909 l 68 909 l -99 1095 l 67 1095 z "},"ẩ":{"ha":781,"x_min":22,"x_max":790,"o":"m 271 -14 q 142 11 199 -14 q 54 85 85 36 q 22 210 22 135 q 44 317 22 273 q 105 387 66 360 q 195 429 144 414 q 303 448 245 444 q 407 460 368 454 q 464 479 446 466 q 482 515 482 492 l 482 518 q 456 576 482 555 q 386 597 431 597 q 309 576 338 597 q 272 519 280 555 l 50 527 q 101 651 60 596 q 214 736 142 705 q 389 768 286 768 q 522 751 460 768 q 628 701 583 734 q 699 622 673 669 q 724 515 724 575 l 724 0 l 496 0 l 496 106 l 491 106 q 439 41 470 67 q 366 0 408 14 q 271 -14 324 -14 m 345 145 q 415 161 384 145 q 466 205 447 177 q 484 270 484 233 l 484 341 q 459 331 474 336 q 427 323 445 327 q 392 316 410 319 q 357 311 374 313 q 299 294 323 306 q 262 264 275 282 q 250 222 250 247 q 277 165 250 184 q 345 145 303 145 m 451 978 l 648 834 l 496 834 l 395 907 l 290 834 l 138 834 l 335 978 l 451 978 m 701 917 l 583 917 l 570 986 q 632 997 614 987 q 652 1021 651 1006 q 628 1051 651 1044 q 570 1058 605 1058 l 575 1142 q 734 1113 680 1142 q 789 1029 789 1084 q 762 976 789 996 q 701 951 734 956 l 701 917 z "},"ẫ":{"ha":781,"x_min":22,"x_max":724,"o":"m 271 -14 q 142 11 199 -14 q 54 85 85 36 q 22 210 22 135 q 44 317 22 273 q 105 387 66 360 q 195 429 144 414 q 303 448 245 444 q 407 460 368 454 q 464 479 446 466 q 482 515 482 492 l 482 518 q 456 576 482 555 q 386 597 431 597 q 309 576 338 597 q 272 519 280 555 l 50 527 q 101 651 60 596 q 214 736 142 705 q 389 768 286 768 q 522 751 460 768 q 628 701 583 734 q 699 622 673 669 q 724 515 724 575 l 724 0 l 496 0 l 496 106 l 491 106 q 439 41 470 67 q 366 0 408 14 q 271 -14 324 -14 m 345 145 q 415 161 384 145 q 466 205 447 177 q 484 270 484 233 l 484 341 q 459 331 474 336 q 427 323 445 327 q 392 316 410 319 q 357 311 374 313 q 299 294 323 306 q 262 264 275 282 q 250 222 250 247 q 277 165 250 184 q 345 145 303 145 m 455 983 l 651 837 l 498 837 l 395 913 l 294 837 l 139 837 l 336 983 l 455 983 m 498 1149 l 576 1120 q 554 1047 577 1080 q 490 1013 531 1014 q 447 1020 467 1013 q 409 1035 427 1027 q 374 1050 391 1044 q 338 1057 357 1057 q 316 1043 323 1057 q 309 1010 309 1029 l 233 1032 q 255 1103 232 1070 q 319 1137 278 1136 q 369 1126 343 1137 q 421 1105 395 1116 q 471 1095 448 1095 q 491 1113 484 1095 q 498 1149 498 1130 z "},"ȁ":{"ha":781,"x_min":22,"x_max":724,"o":"m 271 -14 q 142 11 199 -14 q 54 85 85 36 q 22 210 22 135 q 44 317 22 273 q 105 387 66 360 q 195 429 144 414 q 303 448 245 444 q 407 460 368 454 q 464 479 446 466 q 482 515 482 492 l 482 518 q 456 576 482 555 q 386 597 431 597 q 309 576 338 597 q 272 519 280 555 l 50 527 q 101 651 60 596 q 214 736 142 705 q 389 768 286 768 q 522 751 460 768 q 628 701 583 734 q 699 622 673 669 q 724 515 724 575 l 724 0 l 496 0 l 496 106 l 491 106 q 439 41 470 67 q 366 0 408 14 q 271 -14 324 -14 m 345 145 q 415 161 384 145 q 466 205 447 177 q 484 270 484 233 l 484 341 q 459 331 474 336 q 427 323 445 327 q 392 316 410 319 q 357 311 374 313 q 299 294 323 306 q 262 264 275 282 q 250 222 250 247 q 277 165 250 184 q 345 145 303 145 m 193 853 l 43 1076 l 258 1076 l 358 853 l 193 853 m 450 853 l 349 1076 l 554 1076 l 609 853 l 450 853 z "},"ä":{"ha":781,"x_min":22,"x_max":724,"o":"m 271 -14 q 142 11 199 -14 q 54 85 85 36 q 22 210 22 135 q 44 317 22 273 q 105 387 66 360 q 195 429 144 414 q 303 448 245 444 q 407 460 368 454 q 464 479 446 466 q 482 515 482 492 l 482 518 q 456 576 482 555 q 386 597 431 597 q 309 576 338 597 q 272 519 280 555 l 50 527 q 101 651 60 596 q 214 736 142 705 q 389 768 286 768 q 522 751 460 768 q 628 701 583 734 q 699 622 673 669 q 724 515 724 575 l 724 0 l 496 0 l 496 106 l 491 106 q 439 41 470 67 q 366 0 408 14 q 271 -14 324 -14 m 345 145 q 415 161 384 145 q 466 205 447 177 q 484 270 484 233 l 484 341 q 459 331 474 336 q 427 323 445 327 q 392 316 410 319 q 357 311 374 313 q 299 294 323 306 q 262 264 275 282 q 250 222 250 247 q 277 165 250 184 q 345 145 303 145 m 242 854 q 163 885 195 854 q 130 961 130 917 q 163 1037 130 1006 q 242 1069 195 1068 q 320 1037 288 1068 q 353 961 353 1006 q 320 885 353 917 q 242 854 288 854 m 550 854 q 470 885 503 854 q 437 961 437 917 q 470 1037 437 1006 q 550 1069 503 1068 q 628 1037 595 1068 q 660 961 660 1006 q 628 885 660 917 q 550 854 595 854 z "},"ǟ":{"ha":781,"x_min":22,"x_max":724,"o":"m 271 -14 q 142 11 199 -14 q 54 85 85 36 q 22 210 22 135 q 44 317 22 273 q 105 387 66 360 q 195 429 144 414 q 303 448 245 444 q 407 460 368 454 q 464 479 446 466 q 482 515 482 492 l 482 518 q 456 576 482 555 q 386 597 431 597 q 309 576 338 597 q 272 519 280 555 l 50 527 q 101 651 60 596 q 214 736 142 705 q 389 768 286 768 q 522 751 460 768 q 628 701 583 734 q 699 622 673 669 q 724 515 724 575 l 724 0 l 496 0 l 496 106 l 491 106 q 439 41 470 67 q 366 0 408 14 q 271 -14 324 -14 m 345 145 q 415 161 384 145 q 466 205 447 177 q 484 270 484 233 l 484 341 q 459 331 474 336 q 427 323 445 327 q 392 316 410 319 q 357 311 374 313 q 299 294 323 306 q 262 264 275 282 q 250 222 250 247 q 277 165 250 184 q 345 145 303 145 m 242 854 q 163 885 195 854 q 130 961 130 917 q 163 1037 130 1006 q 242 1069 195 1068 q 320 1037 288 1068 q 353 961 353 1006 q 320 885 353 917 q 242 854 288 854 m 550 854 q 470 885 503 854 q 437 961 437 917 q 470 1037 437 1006 q 550 1069 503 1068 q 628 1037 595 1068 q 660 961 660 1006 q 628 885 660 917 q 550 854 595 854 m 640 1263 l 640 1143 l 152 1143 l 152 1263 l 640 1263 z "},"ạ":{"ha":781,"x_min":22,"x_max":724,"o":"m 271 -14 q 142 11 199 -14 q 54 85 85 36 q 22 210 22 135 q 44 317 22 273 q 105 387 66 360 q 195 429 144 414 q 303 448 245 444 q 407 460 368 454 q 464 479 446 466 q 482 515 482 492 l 482 518 q 456 576 482 555 q 386 597 431 597 q 309 576 338 597 q 272 519 280 555 l 50 527 q 101 651 60 596 q 214 736 142 705 q 389 768 286 768 q 522 751 460 768 q 628 701 583 734 q 699 622 673 669 q 724 515 724 575 l 724 0 l 496 0 l 496 106 l 491 106 q 439 41 470 67 q 366 0 408 14 q 271 -14 324 -14 m 345 145 q 415 161 384 145 q 466 205 447 177 q 484 270 484 233 l 484 341 q 459 331 474 336 q 427 323 445 327 q 392 316 410 319 q 357 311 374 313 q 299 294 323 306 q 262 264 275 282 q 250 222 250 247 q 277 165 250 184 q 345 145 303 145 m 387 -296 q 299 -262 336 -296 q 262 -180 262 -228 q 299 -98 262 -132 q 387 -64 336 -64 q 474 -98 438 -64 q 511 -180 511 -132 q 474 -262 511 -228 q 387 -296 438 -296 z "},"ǡ":{"ha":781,"x_min":22,"x_max":724,"o":"m 271 -14 q 142 11 199 -14 q 54 85 85 36 q 22 210 22 135 q 44 317 22 273 q 105 387 66 360 q 195 429 144 414 q 303 448 245 444 q 407 460 368 454 q 464 479 446 466 q 482 515 482 492 l 482 518 q 456 576 482 555 q 386 597 431 597 q 309 576 338 597 q 272 519 280 555 l 50 527 q 101 651 60 596 q 214 736 142 705 q 389 768 286 768 q 522 751 460 768 q 628 701 583 734 q 699 622 673 669 q 724 515 724 575 l 724 0 l 496 0 l 496 106 l 491 106 q 439 41 470 67 q 366 0 408 14 q 271 -14 324 -14 m 345 145 q 415 161 384 145 q 466 205 447 177 q 484 270 484 233 l 484 341 q 459 331 474 336 q 427 323 445 327 q 392 316 410 319 q 357 311 374 313 q 299 294 323 306 q 262 264 275 282 q 250 222 250 247 q 277 165 250 184 q 345 145 303 145 m 396 849 q 316 881 349 849 q 283 956 283 912 q 316 1032 283 1001 q 396 1064 349 1063 q 476 1032 443 1063 q 509 956 509 1001 q 476 881 509 912 q 396 849 443 849 m 640 1258 l 640 1139 l 153 1139 l 153 1258 l 640 1258 z "},"à":{"ha":781,"x_min":22,"x_max":724,"o":"m 271 -14 q 142 11 199 -14 q 54 85 85 36 q 22 210 22 135 q 44 317 22 273 q 105 387 66 360 q 195 429 144 414 q 303 448 245 444 q 407 460 368 454 q 464 479 446 466 q 482 515 482 492 l 482 518 q 456 576 482 555 q 386 597 431 597 q 309 576 338 597 q 272 519 280 555 l 50 527 q 101 651 60 596 q 214 736 142 705 q 389 768 286 768 q 522 751 460 768 q 628 701 583 734 q 699 622 673 669 q 724 515 724 575 l 724 0 l 496 0 l 496 106 l 491 106 q 439 41 470 67 q 366 0 408 14 q 271 -14 324 -14 m 345 145 q 415 161 384 145 q 466 205 447 177 q 484 270 484 233 l 484 341 q 459 331 474 336 q 427 323 445 327 q 392 316 410 319 q 357 311 374 313 q 299 294 323 306 q 262 264 275 282 q 250 222 250 247 q 277 165 250 184 q 345 145 303 145 m 317 852 l 173 1066 l 385 1066 l 479 852 l 317 852 z "},"ả":{"ha":781,"x_min":22,"x_max":724,"o":"m 271 -14 q 142 11 199 -14 q 54 85 85 36 q 22 210 22 135 q 44 317 22 273 q 105 387 66 360 q 195 429 144 414 q 303 448 245 444 q 407 460 368 454 q 464 479 446 466 q 482 515 482 492 l 482 518 q 456 576 482 555 q 386 597 431 597 q 309 576 338 597 q 272 519 280 555 l 50 527 q 101 651 60 596 q 214 736 142 705 q 389 768 286 768 q 522 751 460 768 q 628 701 583 734 q 699 622 673 669 q 724 515 724 575 l 724 0 l 496 0 l 496 106 l 491 106 q 439 41 470 67 q 366 0 408 14 q 271 -14 324 -14 m 345 145 q 415 161 384 145 q 466 205 447 177 q 484 270 484 233 l 484 341 q 459 331 474 336 q 427 323 445 327 q 392 316 410 319 q 357 311 374 313 q 299 294 323 306 q 262 264 275 282 q 250 222 250 247 q 277 165 250 184 q 345 145 303 145 m 481 867 l 305 867 l 291 951 q 366 964 344 952 q 388 994 389 976 q 361 1029 389 1021 q 292 1037 333 1037 l 298 1139 q 513 1103 439 1139 q 587 1004 587 1068 q 554 938 587 961 q 481 909 522 916 l 481 867 z "},"ȃ":{"ha":781,"x_min":22,"x_max":724,"o":"m 271 -14 q 142 11 199 -14 q 54 85 85 36 q 22 210 22 135 q 44 317 22 273 q 105 387 66 360 q 195 429 144 414 q 303 448 245 444 q 407 460 368 454 q 464 479 446 466 q 482 515 482 492 l 482 518 q 456 576 482 555 q 386 597 431 597 q 309 576 338 597 q 272 519 280 555 l 50 527 q 101 651 60 596 q 214 736 142 705 q 389 768 286 768 q 522 751 460 768 q 628 701 583 734 q 699 622 673 669 q 724 515 724 575 l 724 0 l 496 0 l 496 106 l 491 106 q 439 41 470 67 q 366 0 408 14 q 271 -14 324 -14 m 345 145 q 415 161 384 145 q 466 205 447 177 q 484 270 484 233 l 484 341 q 459 331 474 336 q 427 323 445 327 q 392 316 410 319 q 357 311 374 313 q 299 294 323 306 q 262 264 275 282 q 250 222 250 247 q 277 165 250 184 q 345 145 303 145 m 138 852 q 209 1006 138 947 q 395 1065 281 1065 q 582 1006 511 1065 q 653 852 653 947 l 494 852 q 467 917 494 893 q 395 941 441 941 q 322 917 349 941 q 296 852 296 893 l 138 852 z "},"ā":{"ha":781,"x_min":22,"x_max":724,"o":"m 271 -14 q 142 11 199 -14 q 54 85 85 36 q 22 210 22 135 q 44 317 22 273 q 105 387 66 360 q 195 429 144 414 q 303 448 245 444 q 407 460 368 454 q 464 479 446 466 q 482 515 482 492 l 482 518 q 456 576 482 555 q 386 597 431 597 q 309 576 338 597 q 272 519 280 555 l 50 527 q 101 651 60 596 q 214 736 142 705 q 389 768 286 768 q 522 751 460 768 q 628 701 583 734 q 699 622 673 669 q 724 515 724 575 l 724 0 l 496 0 l 496 106 l 491 106 q 439 41 470 67 q 366 0 408 14 q 271 -14 324 -14 m 345 145 q 415 161 384 145 q 466 205 447 177 q 484 270 484 233 l 484 341 q 459 331 474 336 q 427 323 445 327 q 392 316 410 319 q 357 311 374 313 q 299 294 323 306 q 262 264 275 282 q 250 222 250 247 q 277 165 250 184 q 345 145 303 145 m 640 1010 l 640 891 l 152 891 l 152 1010 l 640 1010 z "},"ą":{"ha":781,"x_min":22,"x_max":742,"o":"m 271 -14 q 142 11 199 -14 q 54 85 85 36 q 22 210 22 135 q 44 317 22 273 q 105 387 66 360 q 195 429 144 414 q 303 448 245 444 q 407 460 368 454 q 464 479 446 466 q 482 515 482 492 l 482 518 q 456 576 482 555 q 386 597 431 597 q 309 576 338 597 q 272 519 280 555 l 50 527 q 101 651 60 596 q 214 736 142 705 q 389 768 286 768 q 522 751 460 768 q 628 701 583 734 q 699 622 673 669 q 724 515 724 575 l 724 0 l 496 0 l 496 106 l 491 106 q 439 41 470 67 q 366 0 408 14 q 271 -14 324 -14 m 345 145 q 415 161 384 145 q 466 205 447 177 q 484 270 484 233 l 484 341 q 459 331 474 336 q 427 323 445 327 q 392 316 410 319 q 357 311 374 313 q 299 294 323 306 q 262 264 275 282 q 250 222 250 247 q 277 165 250 184 q 345 145 303 145 m 627 -278 q 514 -244 559 -278 q 454 -148 469 -211 q 449 -64 443 -106 q 476 12 454 -22 q 534 62 497 46 l 724 0 q 649 -39 677 -18 q 623 -93 622 -60 q 635 -131 622 -117 q 669 -144 648 -144 q 695 -140 684 -144 q 715 -134 706 -136 l 742 -248 q 694 -269 723 -259 q 627 -278 665 -278 z "},"ẚ":{"ha":781,"x_min":22,"x_max":724,"o":"m 271 -14 q 142 11 199 -14 q 54 85 85 36 q 22 210 22 135 q 44 317 22 273 q 105 387 66 360 q 195 429 144 414 q 303 448 245 444 q 407 460 368 454 q 464 479 446 466 q 482 515 482 492 l 482 518 q 456 576 482 555 q 386 597 431 597 q 309 576 338 597 q 272 519 280 555 l 50 527 q 101 651 60 596 q 214 736 142 705 q 389 768 286 768 q 522 751 460 768 q 628 701 583 734 q 699 622 673 669 q 724 515 724 575 l 724 0 l 496 0 l 496 106 l 491 106 q 439 41 470 67 q 366 0 408 14 q 271 -14 324 -14 m 345 145 q 415 161 384 145 q 466 205 447 177 q 484 270 484 233 l 484 341 q 459 331 474 336 q 427 323 445 327 q 392 316 410 319 q 357 311 374 313 q 299 294 323 306 q 262 264 275 282 q 250 222 250 247 q 277 165 250 184 q 345 145 303 145 m 336 862 l 336 949 q 372 962 357 948 q 387 994 387 975 q 372 1029 387 1016 q 336 1043 357 1043 l 336 1132 q 436 1094 395 1133 q 477 994 477 1055 q 436 899 477 935 q 336 862 395 862 z "},"å":{"ha":781,"x_min":22,"x_max":724,"o":"m 271 -14 q 142 11 199 -14 q 54 85 85 36 q 22 210 22 135 q 44 317 22 273 q 105 387 66 360 q 195 429 144 414 q 303 448 245 444 q 407 460 368 454 q 464 479 446 466 q 482 515 482 492 l 482 518 q 456 576 482 555 q 386 597 431 597 q 309 576 338 597 q 272 519 280 555 l 50 527 q 101 651 60 596 q 214 736 142 705 q 389 768 286 768 q 522 751 460 768 q 628 701 583 734 q 699 622 673 669 q 724 515 724 575 l 724 0 l 496 0 l 496 106 l 491 106 q 439 41 470 67 q 366 0 408 14 q 271 -14 324 -14 m 345 145 q 415 161 384 145 q 466 205 447 177 q 484 270 484 233 l 484 341 q 459 331 474 336 q 427 323 445 327 q 392 316 410 319 q 357 311 374 313 q 299 294 323 306 q 262 264 275 282 q 250 222 250 247 q 277 165 250 184 q 345 145 303 145 m 395 838 q 312 859 350 838 q 253 917 275 880 q 231 998 231 954 q 253 1078 231 1042 q 312 1137 275 1115 q 395 1158 350 1158 q 478 1137 441 1158 q 538 1078 516 1115 q 560 998 560 1042 q 538 917 560 954 q 478 859 516 880 q 395 838 441 838 m 395 930 q 446 950 425 930 q 467 998 467 970 q 446 1046 467 1025 q 395 1065 425 1066 q 345 1045 366 1065 q 324 998 324 1025 q 345 950 324 970 q 395 930 366 930 z "},"ǻ":{"ha":781,"x_min":22,"x_max":724,"o":"m 271 -14 q 142 11 199 -14 q 54 85 85 36 q 22 210 22 135 q 44 317 22 273 q 105 387 66 360 q 195 429 144 414 q 303 448 245 444 q 407 460 368 454 q 464 479 446 466 q 482 515 482 492 l 482 518 q 456 576 482 555 q 386 597 431 597 q 309 576 338 597 q 272 519 280 555 l 50 527 q 101 651 60 596 q 214 736 142 705 q 389 768 286 768 q 522 751 460 768 q 628 701 583 734 q 699 622 673 669 q 724 515 724 575 l 724 0 l 496 0 l 496 106 l 491 106 q 439 41 470 67 q 366 0 408 14 q 271 -14 324 -14 m 345 145 q 415 161 384 145 q 466 205 447 177 q 484 270 484 233 l 484 341 q 459 331 474 336 q 427 323 445 327 q 392 316 410 319 q 357 311 374 313 q 299 294 323 306 q 262 264 275 282 q 250 222 250 247 q 277 165 250 184 q 345 145 303 145 m 322 1156 l 421 1305 l 613 1305 l 469 1156 l 322 1156 m 395 822 q 285 863 330 822 q 240 965 239 905 q 285 1065 239 1023 q 395 1107 330 1107 q 505 1065 459 1107 q 549 965 550 1023 q 505 863 550 905 q 395 822 459 822 m 395 905 q 440 923 421 906 q 460 965 459 940 q 440 1006 459 989 q 395 1023 422 1023 q 349 1006 368 1023 q 331 965 330 989 q 349 923 330 940 q 395 905 368 905 z "},"ḁ":{"ha":781,"x_min":22,"x_max":724,"o":"m 271 -14 q 142 11 199 -14 q 54 85 85 36 q 22 210 22 135 q 44 317 22 273 q 105 387 66 360 q 195 429 144 414 q 303 448 245 444 q 407 460 368 454 q 464 479 446 466 q 482 515 482 492 l 482 518 q 456 576 482 555 q 386 597 431 597 q 309 576 338 597 q 272 519 280 555 l 50 527 q 101 651 60 596 q 214 736 142 705 q 389 768 286 768 q 522 751 460 768 q 628 701 583 734 q 699 622 673 669 q 724 515 724 575 l 724 0 l 496 0 l 496 106 l 491 106 q 439 41 470 67 q 366 0 408 14 q 271 -14 324 -14 m 345 145 q 415 161 384 145 q 466 205 447 177 q 484 270 484 233 l 484 341 q 459 331 474 336 q 427 323 445 327 q 392 316 410 319 q 357 311 374 313 q 299 294 323 306 q 262 264 275 282 q 250 222 250 247 q 277 165 250 184 q 345 145 303 145 m 250 -151 q 289 -68 250 -102 q 387 -34 328 -34 q 481 -68 443 -34 q 519 -151 519 -102 q 481 -235 519 -202 q 387 -268 443 -268 q 289 -234 328 -268 q 250 -151 250 -200 m 335 -151 q 349 -185 335 -172 q 387 -198 363 -198 q 419 -185 406 -198 q 433 -151 433 -172 q 419 -118 433 -131 q 387 -105 406 -105 q 349 -118 363 -105 q 335 -151 335 -131 z "},"ɑ":{"ha":871,"x_min":31,"x_max":840,"o":"m 362 -16 q 192 35 267 -16 q 74 174 117 85 q 31 378 31 262 q 76 582 31 494 q 196 719 120 669 q 363 768 271 768 q 519 722 452 768 q 616 600 587 677 l 686 600 l 749 381 l 840 0 l 661 0 l 576 381 q 556 454 568 419 q 523 518 543 490 q 475 563 503 546 q 410 580 447 580 q 330 554 363 580 q 281 484 298 529 q 264 381 264 439 q 282 276 264 322 q 331 203 300 230 q 404 177 363 177 q 466 195 438 177 q 517 242 494 213 q 554 307 539 271 q 576 377 569 342 l 654 758 l 830 758 l 749 377 l 686 166 l 618 166 q 565 74 600 115 q 481 8 531 33 q 362 -16 431 -16 z "},"ɒ":{"ha":911,"x_min":73,"x_max":841,"o":"m 840 385 l 840 365 q 807 169 840 255 q 710 34 774 83 q 557 -16 647 -15 q 414 36 469 -15 q 328 176 359 87 q 284 372 298 264 l 284 393 q 328 585 298 500 q 414 719 358 669 q 558 768 469 768 q 710 720 648 768 q 807 587 773 673 q 840 385 841 500 m 608 365 l 608 385 q 598 484 608 438 q 562 556 589 529 q 484 583 536 583 q 407 563 435 583 q 366 505 378 543 q 349 412 353 467 l 349 350 q 365 256 352 297 q 407 193 378 216 q 484 171 435 171 q 556 196 530 171 q 596 266 583 222 q 608 365 608 311 m 353 0 l 151 0 l 151 495 q 139 561 151 539 q 101 582 128 583 q 96 582 98 583 q 88 581 94 581 l 73 753 q 117 764 95 761 q 161 768 138 768 q 323 700 264 768 q 382 496 382 631 l 382 155 l 353 0 z "}}}
